# Blender v2.82 (sub 7) OBJ File: 'newcassetThingl.blend'
# www.blender.org
mtllib newcassetThingl.mtl
o Cube
v 0.410198 0.000000 0.239843
v -0.596254 0.000000 0.239843
v 0.507617 0.500000 -0.260157
v 0.208907 0.500000 0.239843
v 0.007617 0.000000 0.239843
v 0.257617 0.000000 -0.010157
v 0.257617 0.250000 -0.260157
v 0.507617 0.000000 -0.010157
v 0.007617 0.250000 -0.260157
v -0.394964 0.500000 0.239843
v 0.208907 0.250000 0.239843
v -0.193673 0.500000 0.239843
v 0.410198 0.250000 0.239843
v -0.193673 0.250000 0.239843
v -0.394964 0.000000 0.239843
v -0.242383 0.000000 -0.010157
v -0.394964 0.250000 0.239843
v 0.007617 0.250000 0.239843
v 0.611488 0.000000 -0.010157
v -0.596254 0.500000 0.239843
v 0.007617 0.500000 0.239843
v 0.007617 0.500000 -0.010157
v -0.492383 0.500000 -0.010157
v 0.507617 0.500000 -0.010157
v 0.410198 0.500000 0.239843
v -0.242383 0.500000 -0.010157
v 0.611488 0.000000 -0.260157
v -0.596254 0.500000 -0.010157
v 0.208907 0.000000 0.239843
v -0.492383 0.500000 -0.260157
v -0.596254 0.000000 -0.260157
v -0.596254 0.500000 -0.260157
v 0.611488 0.500000 -0.260157
v 0.257617 0.500000 -0.010157
v 0.611488 0.000000 0.239843
v 0.611488 0.250000 0.239843
v 0.611488 0.250000 -0.260157
v 0.611488 0.250000 -0.010157
v 0.611488 0.500000 -0.010157
v 0.611488 0.500000 0.239843
v 0.507617 0.000000 -0.260157
v 0.007617 0.000000 -0.260157
v 0.257617 0.000000 -0.260157
v 0.507617 0.250000 -0.260157
v -0.242383 0.250000 -0.260157
v -0.596254 0.000000 -0.010157
v 0.007617 0.500000 -0.260157
v 0.257617 0.500000 -0.260157
v -0.492383 0.000000 -0.260157
v -0.596254 0.250000 0.239843
v -0.492383 0.250000 -0.260157
v -0.242383 0.500000 -0.260157
v -0.596254 0.250000 -0.010157
v -0.596254 0.250000 -0.260157
v -0.242383 0.000000 -0.260157
v -0.492383 0.000000 -0.010157
v 0.007617 0.000000 -0.010157
v -0.193673 0.000000 0.239843
vt 0.083290 0.750071
vt 0.069488 0.750071
vt 0.069488 0.772656
vt 0.083290 0.772656
vt 0.083290 0.750071
vt 0.069488 0.750071
vt 0.069488 0.772656
vt 0.083290 0.772656
vt 0.263845 0.772798
vt 0.250043 0.772798
vt 0.250043 0.795384
vt 0.263845 0.795384
vt 0.263845 0.772798
vt 0.250043 0.772798
vt 0.250043 0.795384
vt 0.263845 0.795384
vt 0.291623 0.750071
vt 0.277821 0.750071
vt 0.277821 0.772656
vt 0.291623 0.772656
vt 0.305512 0.750071
vt 0.291710 0.750071
vt 0.291710 0.772656
vt 0.305512 0.772656
vt 0.291623 0.727344
vt 0.277821 0.727344
vt 0.277821 0.749929
vt 0.291623 0.749929
vt 0.305512 0.727344
vt 0.291710 0.727344
vt 0.291710 0.749929
vt 0.305512 0.749929
vt 0.291623 0.750071
vt 0.277821 0.750071
vt 0.277821 0.772656
vt 0.291623 0.772656
vt 0.305512 0.750071
vt 0.291710 0.750071
vt 0.291710 0.772656
vt 0.305512 0.772656
vt 0.291623 0.727344
vt 0.277821 0.727344
vt 0.277821 0.749929
vt 0.291623 0.749929
vt 0.305512 0.727344
vt 0.291710 0.727344
vt 0.291710 0.749929
vt 0.305512 0.749929
vt 0.888846 0.772798
vt 0.875043 0.772798
vt 0.875043 0.795384
vt 0.888846 0.795384
vt 0.861154 0.772798
vt 0.861154 0.795384
vt 0.736154 0.818253
vt 0.749957 0.818253
vt 0.749957 0.840838
vt 0.736154 0.840838
vt 0.763846 0.818253
vt 0.763846 0.840838
vt 0.888846 0.772798
vt 0.875043 0.772798
vt 0.875043 0.795384
vt 0.888846 0.795384
vt 0.888846 0.795526
vt 0.875043 0.795526
vt 0.875043 0.818111
vt 0.888846 0.818111
vt 0.861154 0.795526
vt 0.861154 0.818111
vt 0.861154 0.772798
vt 0.861154 0.795384
vt 0.888846 0.795526
vt 0.875043 0.795526
vt 0.875043 0.818111
vt 0.888846 0.818111
vt 0.861154 0.795526
vt 0.861154 0.818111
vt 0.763846 0.818253
vt 0.750043 0.818253
vt 0.736154 0.818253
vt 0.277821 0.772798
vt 0.291623 0.772798
vt 0.291623 0.795384
vt 0.277821 0.795384
vt 0.291710 0.772798
vt 0.305512 0.772798
vt 0.305512 0.795384
vt 0.291710 0.795384
vt 0.277821 0.795526
vt 0.291623 0.795526
vt 0.291623 0.818111
vt 0.277821 0.818111
vt 0.291710 0.795526
vt 0.305512 0.795526
vt 0.305512 0.818111
vt 0.291710 0.818111
vt 0.277821 0.772798
vt 0.291623 0.772798
vt 0.291623 0.795384
vt 0.277821 0.795384
vt 0.291710 0.772798
vt 0.305512 0.772798
vt 0.305512 0.795384
vt 0.291710 0.795384
vt 0.277821 0.795526
vt 0.291623 0.795526
vt 0.291623 0.818111
vt 0.277821 0.818111
vt 0.291710 0.795526
vt 0.305512 0.795526
vt 0.305512 0.818111
vt 0.291710 0.818111
vt 0.277821 0.772798
vt 0.291623 0.772798
vt 0.291623 0.795384
vt 0.277821 0.795384
vt 0.291710 0.772798
vt 0.305512 0.772798
vt 0.305512 0.795384
vt 0.291710 0.795384
vt 0.277821 0.795526
vt 0.291623 0.795526
vt 0.291623 0.818111
vt 0.277821 0.818111
vt 0.291710 0.795526
vt 0.305512 0.795526
vt 0.305512 0.818111
vt 0.291710 0.818111
vt 0.277821 0.772798
vt 0.291623 0.772798
vt 0.291623 0.795384
vt 0.277821 0.795384
vt 0.291710 0.772798
vt 0.305512 0.772798
vt 0.305512 0.795384
vt 0.291710 0.795384
vt 0.277821 0.795526
vt 0.291623 0.795526
vt 0.291623 0.818111
vt 0.277821 0.818111
vt 0.291710 0.795526
vt 0.305512 0.795526
vt 0.305512 0.818111
vt 0.291710 0.818111
vt 0.277821 0.772798
vt 0.291623 0.772798
vt 0.291623 0.795384
vt 0.277821 0.795384
vt 0.291710 0.772798
vt 0.305512 0.772798
vt 0.305512 0.795384
vt 0.291710 0.795384
vt 0.277821 0.795526
vt 0.291623 0.795526
vt 0.291623 0.818111
vt 0.277821 0.818111
vt 0.291710 0.795526
vt 0.305512 0.795526
vt 0.305512 0.818111
vt 0.291710 0.818111
vt 0.291623 0.795384
vt 0.277821 0.795384
vt 0.305512 0.795384
vt 0.291710 0.795384
vt 0.277821 0.795526
vt 0.291623 0.795526
vt 0.291623 0.818111
vt 0.277821 0.818111
vt 0.291710 0.795526
vt 0.305512 0.795526
vt 0.305512 0.818111
vt 0.291710 0.818111
vt 0.291623 0.795384
vt 0.277821 0.795384
vt 0.305512 0.795384
vt 0.291710 0.795384
vt 0.277821 0.795526
vt 0.291623 0.795526
vt 0.291623 0.818111
vt 0.277821 0.818111
vt 0.291710 0.795526
vt 0.305512 0.795526
vt 0.305512 0.818111
vt 0.291710 0.818111
vt 0.291623 0.795384
vt 0.277821 0.795384
vt 0.305512 0.795384
vt 0.291710 0.795384
vt 0.277821 0.795526
vt 0.291623 0.795526
vt 0.291623 0.818111
vt 0.277821 0.818111
vt 0.291710 0.795526
vt 0.305512 0.795526
vt 0.305512 0.818111
vt 0.291710 0.818111
vn 0.0000 0.0000 1.0000
vn 0.0000 1.0000 0.0000
vn 1.0000 0.0000 0.0000
vn 0.0000 0.0000 -1.0000
vn -1.0000 0.0000 0.0000
vn 0.0000 -1.0000 0.0000
usemtl eMiscStuff
s off
f 18/1/1 11/2/1 4/3/1 21/4/1
f 14/5/1 18/6/1 21/7/1 12/8/1
f 5/9/1 29/10/1 11/11/1 18/12/1
f 58/13/1 5/14/1 18/15/1 14/16/1
f 13/17/1 36/18/1 40/19/1 25/20/1
f 11/21/1 13/22/1 25/23/1 4/24/1
f 1/25/1 35/26/1 36/27/1 13/28/1
f 29/29/1 1/30/1 13/31/1 11/32/1
f 17/33/1 14/34/1 12/35/1 10/36/1
f 50/37/1 17/38/1 10/39/1 20/40/1
f 15/41/1 58/42/1 14/43/1 17/44/1
f 2/45/1 15/46/1 17/47/1 50/48/1
f 20/49/2 10/50/2 23/51/2 28/52/2
f 10/50/2 12/53/2 26/54/2 23/51/2
f 12/55/2 21/56/2 22/57/2 26/58/2
f 21/56/2 4/59/2 34/60/2 22/57/2
f 4/61/2 25/62/2 24/63/2 34/64/2
f 28/65/2 23/66/2 30/67/2 32/68/2
f 23/66/2 26/69/2 52/70/2 30/67/2
f 25/62/2 40/71/2 39/72/2 24/63/2
f 34/73/2 24/74/2 3/75/2 48/76/2
f 24/74/2 39/77/2 33/78/2 3/75/2
f 48/79/2 47/80/2 22/57/2 34/60/2
f 47/80/2 52/81/2 26/58/2 22/57/2
f 35/82/3 19/83/3 38/84/3 36/85/3
f 19/86/3 27/87/3 37/88/3 38/89/3
f 36/90/3 38/91/3 39/92/3 40/93/3
f 38/94/3 37/95/3 33/96/3 39/97/3
f 27/98/4 41/99/4 44/100/4 37/101/4
f 41/102/4 43/103/4 7/104/4 44/105/4
f 37/106/4 44/107/4 3/108/4 33/109/4
f 44/110/4 7/111/4 48/112/4 3/113/4
f 43/114/4 42/115/4 9/116/4 7/117/4
f 42/118/4 55/119/4 45/120/4 9/121/4
f 7/122/4 9/123/4 47/124/4 48/125/4
f 9/126/4 45/127/4 52/128/4 47/129/4
f 55/130/4 49/131/4 51/132/4 45/133/4
f 49/134/4 31/135/4 54/136/4 51/137/4
f 45/138/4 51/139/4 30/140/4 52/141/4
f 51/142/4 54/143/4 32/144/4 30/145/4
f 31/146/5 46/147/5 53/148/5 54/149/5
f 46/150/5 2/151/5 50/152/5 53/153/5
f 54/154/5 53/155/5 28/156/5 32/157/5
f 53/158/5 50/159/5 20/160/5 28/161/5
f 31/146/6 49/131/6 56/162/6 46/163/6
f 49/134/6 55/119/6 16/164/6 56/165/6
f 46/166/6 56/167/6 15/168/6 2/169/6
f 56/170/6 16/171/6 58/172/6 15/173/6
f 55/130/6 42/115/6 57/174/6 16/175/6
f 42/118/6 43/103/6 6/176/6 57/177/6
f 16/178/6 57/179/6 5/180/6 58/181/6
f 57/182/6 6/183/6 29/184/6 5/185/6
f 43/114/6 41/99/6 8/186/6 6/187/6
f 41/102/6 27/87/6 19/188/6 8/189/6
f 6/190/6 8/191/6 1/192/6 29/193/6
f 8/194/6 19/195/6 35/196/6 1/197/6
