# Blender v2.82 (sub 7) OBJ File: 'Misc1e.blend'
# www.blender.org
mtllib Misc1e.mtl
o Cube
v -0.111954 0.500000 0.000000
v -0.152387 0.500000 -0.085328
v -0.098882 0.250000 -0.132098
v -0.401118 0.250000 -0.132098
v -0.152387 0.500000 0.085328
v -0.250000 0.250000 -0.186815
v -0.401118 0.000000 0.132098
v -0.098882 0.000000 -0.132098
v -0.036287 0.250000 0.000000
v -0.347613 0.500000 0.085328
v -0.098882 0.000000 0.132098
v -0.036287 0.000000 -0.000000
v -0.463713 0.250000 0.000000
v -0.250000 0.000000 0.000000
v -0.463713 0.000000 0.000000
v -0.250000 0.500000 0.120672
v -0.401118 0.250000 0.132098
v -0.250000 0.000000 0.186815
v -0.250000 0.727911 0.000000
v -0.388046 0.500000 -0.000000
v -0.250000 0.250000 0.186815
v -0.098882 0.250000 0.132098
v -0.347613 0.500000 -0.085328
v -0.401118 0.000000 -0.132098
v -0.250000 0.000000 -0.186815
v -0.250000 0.500000 -0.120672
vt 0.326863 0.694531
vt 0.307752 0.694531
vt 0.307752 0.722135
vt 0.326863 0.722135
vt 0.346094 0.694531
vt 0.326983 0.694531
vt 0.326983 0.722135
vt 0.346094 0.722135
vt 0.326863 0.666753
vt 0.307752 0.666753
vt 0.307752 0.694358
vt 0.326863 0.694358
vt 0.346094 0.666753
vt 0.326983 0.666753
vt 0.326983 0.694358
vt 0.346094 0.694358
vt 0.326863 0.694531
vt 0.307752 0.694531
vt 0.307752 0.722135
vt 0.326863 0.722135
vt 0.346094 0.694531
vt 0.326983 0.694531
vt 0.326983 0.722135
vt 0.346094 0.722135
vt 0.326863 0.666753
vt 0.307752 0.666753
vt 0.307752 0.694358
vt 0.326863 0.694358
vt 0.346094 0.666753
vt 0.326983 0.666753
vt 0.326983 0.694358
vt 0.346094 0.694358
vt 0.346094 0.666753
vt 0.326983 0.666753
vt 0.326983 0.694358
vt 0.346094 0.694358
vt 0.326863 0.666753
vt 0.307752 0.666753
vt 0.307752 0.694358
vt 0.326863 0.694358
vt 0.346094 0.694531
vt 0.326983 0.694531
vt 0.326983 0.722135
vt 0.346094 0.722135
vt 0.326863 0.694531
vt 0.307752 0.694531
vt 0.307752 0.722135
vt 0.326863 0.722135
vt 0.346094 0.666753
vt 0.326983 0.666753
vt 0.326983 0.694358
vt 0.346094 0.694358
vt 0.326863 0.666753
vt 0.307752 0.666753
vt 0.307752 0.694358
vt 0.326863 0.694358
vt 0.346094 0.694531
vt 0.326983 0.694531
vt 0.326983 0.722135
vt 0.346094 0.722135
vt 0.326863 0.694531
vt 0.307752 0.694531
vt 0.307752 0.722135
vt 0.326863 0.722135
vt 0.423017 0.666753
vt 0.403906 0.666753
vt 0.403906 0.694358
vt 0.423017 0.694358
vt 0.403786 0.666753
vt 0.384676 0.666753
vt 0.384676 0.694358
vt 0.403786 0.694358
vt 0.423017 0.694531
vt 0.403906 0.694531
vt 0.403906 0.722135
vt 0.423017 0.722135
vt 0.403786 0.694531
vt 0.384676 0.694531
vt 0.384676 0.722135
vt 0.403786 0.722135
vt 0.423017 0.666753
vt 0.403906 0.666753
vt 0.403906 0.694358
vt 0.423017 0.694358
vt 0.403786 0.666753
vt 0.384676 0.666753
vt 0.384676 0.694358
vt 0.403786 0.694358
vt 0.423017 0.694531
vt 0.403906 0.694531
vt 0.403906 0.722135
vt 0.423017 0.722135
vt 0.403786 0.694531
vt 0.384676 0.694531
vt 0.384676 0.722135
vt 0.403786 0.722135
vn -0.3304 0.2414 -0.9125
vn 0.3304 0.2414 -0.9125
vn -0.3405 0.0000 -0.9403
vn 0.3405 0.0000 -0.9403
vn 0.8717 0.2638 -0.4130
vn 0.8717 0.2638 0.4130
vn 0.9037 0.0000 -0.4282
vn 0.9037 0.0000 0.4282
vn -0.9037 0.0000 -0.4282
vn -0.9037 -0.0000 0.4282
vn -0.8717 0.2638 -0.4130
vn -0.8717 0.2638 0.4130
vn -0.3405 0.0000 0.9403
vn 0.3405 0.0000 0.9403
vn -0.3304 0.2414 0.9125
vn 0.3304 0.2414 0.9125
vn 0.0000 1.0000 0.0000
vn -0.5733 0.4911 -0.6559
vn -0.5733 0.4911 0.6559
vn 0.5733 0.4911 -0.6559
vn 0.5733 0.4911 0.6559
usemtl sdddd
s off
f 6/1/1 4/2/1 23/3/1 26/4/1
f 3/5/2 6/6/2 26/7/2 2/8/2
f 25/9/3 24/10/3 4/11/3 6/12/3
f 8/13/4 25/14/4 6/15/4 3/16/4
f 9/17/5 3/18/5 2/19/5 1/20/5
f 22/21/6 9/22/6 1/23/6 5/24/6
f 12/25/7 8/26/7 3/27/7 9/28/7
f 11/29/8 12/30/8 9/31/8 22/32/8
f 24/33/9 15/34/9 13/35/9 4/36/9
f 15/37/10 7/38/10 17/39/10 13/40/10
f 4/41/11 13/42/11 20/43/11 23/44/11
f 13/45/12 17/46/12 10/47/12 20/48/12
f 7/49/13 18/50/13 21/51/13 17/52/13
f 18/53/14 11/54/14 22/55/14 21/56/14
f 17/57/15 21/58/15 16/59/15 10/60/15
f 21/61/16 22/62/16 5/63/16 16/64/16
f 24/65/17 15/66/17 14/67/17 25/68/17
f 15/69/17 7/70/17 18/71/17 14/72/17
f 25/73/17 14/74/17 12/75/17 8/76/17
f 14/77/17 18/78/17 11/79/17 12/80/17
f 23/81/18 20/82/18 19/83/18 26/84/18
f 20/85/19 10/86/19 16/87/19 19/88/19
f 26/89/20 19/90/20 1/91/20 2/92/20
f 19/93/21 16/94/21 5/95/21 1/96/21
