# Blender v2.82 (sub 7) OBJ File: 'CouchBedGravity.blend'
# www.blender.org
mtllib CouchBedGravity.mtl
o Cube
v 0.750000 -0.055458 0.000000
v 0.000000 -0.055458 0.250000
v 0.250000 -0.204710 0.250000
v -0.750000 -0.055458 0.250000
v -0.750000 -0.055458 0.000000
v -0.500000 -0.055458 0.250000
v 0.500000 -0.250000 0.000000
v 0.750000 -0.055458 0.250000
v 0.750000 -0.204710 0.000000
v 0.750000 -0.055458 -0.250000
v 0.500000 -0.055458 -0.250000
v -0.500000 -0.055458 -0.250000
v 0.750000 -0.204710 0.250000
v 0.000000 -0.055458 -0.250000
v 0.250000 -0.055458 -0.250000
v -0.250000 -0.055458 -0.250000
v -0.750000 -0.055458 -0.250000
v 0.500000 -0.204710 0.250000
v -0.500000 -0.204710 0.250000
v -0.250000 -0.055458 0.250000
v -0.250000 -0.250000 0.000000
v 0.500000 -0.055458 0.250000
v 0.250000 -0.055458 0.250000
v -0.500000 0.000000 0.000000
v 0.000000 -0.250000 0.000000
v -0.250000 0.000000 0.000000
v -0.250000 -0.204710 -0.250000
v 0.500000 0.000000 0.000000
v 0.000000 -0.204710 -0.250000
v 0.000000 0.000000 0.000000
v 0.250000 0.000000 0.000000
v 0.750000 -0.204710 -0.250000
v 0.000000 -0.204710 0.250000
v -0.750000 -0.204710 -0.250000
v 0.500000 -0.204710 -0.250000
v -0.750000 -0.204710 0.000000
v -0.500000 -0.204710 -0.250000
v -0.500000 -0.250000 0.000000
v -0.750000 -0.204710 0.250000
v 0.250000 -0.204710 -0.250000
v -0.250000 -0.204710 0.250000
v 0.250000 -0.250000 0.000000
vt 0.368056 0.420455
vt 0.381944 0.420455
vt 0.381944 0.443182
vt 0.368056 0.443182
vt 0.368056 0.420455
vt 0.381944 0.420455
vt 0.381944 0.443182
vt 0.368056 0.443182
vt 0.368056 0.420455
vt 0.381944 0.420455
vt 0.381944 0.443182
vt 0.368056 0.443182
vt 0.368056 0.420455
vt 0.381944 0.420455
vt 0.381944 0.443182
vt 0.368056 0.443182
vt 0.368056 0.420455
vt 0.381944 0.420455
vt 0.381944 0.443182
vt 0.368056 0.443182
vt 0.368056 0.420455
vt 0.381944 0.420455
vt 0.381944 0.443182
vt 0.368056 0.443182
vt 0.381944 0.420455
vt 0.381944 0.443182
vt 0.368056 0.420455
vt 0.368056 0.443182
vt 0.368056 0.420455
vt 0.381944 0.420455
vt 0.381944 0.443182
vt 0.368056 0.443182
vt 0.347266 0.431889
vt 0.361068 0.431889
vt 0.361068 0.454474
vt 0.347266 0.454474
vt 0.347266 0.409162
vt 0.361068 0.409162
vt 0.361068 0.431747
vt 0.347266 0.431747
vt 0.333377 0.431889
vt 0.347179 0.431889
vt 0.347179 0.454474
vt 0.333377 0.454474
vt 0.333377 0.409162
vt 0.347179 0.409162
vt 0.347179 0.431747
vt 0.333377 0.431747
vt 0.368056 0.420455
vt 0.368056 0.443182
vt 0.381944 0.420455
vt 0.381944 0.443182
vt 0.381944 0.420455
vt 0.368056 0.420455
vt 0.368056 0.443182
vt 0.381944 0.443182
vt 0.368056 0.420455
vt 0.368056 0.443182
vt 0.368056 0.420455
vt 0.381944 0.420455
vt 0.381944 0.443182
vt 0.368056 0.443182
vt 0.381944 0.420455
vt 0.381944 0.443182
vt 0.333377 0.431889
vt 0.347179 0.431889
vt 0.347179 0.454474
vt 0.333377 0.454474
vt 0.347266 0.431889
vt 0.361068 0.431889
vt 0.361068 0.454474
vt 0.347266 0.454474
vt 0.333377 0.431889
vt 0.347179 0.431889
vt 0.347179 0.454474
vt 0.333377 0.454474
vt 0.347266 0.431889
vt 0.361068 0.431889
vt 0.361068 0.454474
vt 0.347266 0.454474
vt 0.333377 0.409162
vt 0.347179 0.409162
vt 0.347179 0.431747
vt 0.333377 0.431747
vt 0.347266 0.409162
vt 0.361068 0.409162
vt 0.361068 0.431747
vt 0.347266 0.431747
vt 0.333377 0.409162
vt 0.347179 0.409162
vt 0.347179 0.431747
vt 0.333377 0.431747
vt 0.347266 0.409162
vt 0.361068 0.409162
vt 0.361068 0.431747
vt 0.347266 0.431747
vt 0.312500 0.738636
vt 0.326389 0.738636
vt 0.326389 0.761364
vt 0.312500 0.761364
vt 0.312500 0.738636
vt 0.326389 0.738636
vt 0.326389 0.761364
vt 0.312500 0.761364
vt 0.312500 0.738636
vt 0.326389 0.738636
vt 0.326389 0.761364
vt 0.312500 0.761364
vt 0.312500 0.738636
vt 0.326389 0.738636
vt 0.326389 0.761364
vt 0.312500 0.761364
vt 0.312500 0.738636
vt 0.326389 0.738636
vt 0.326389 0.761364
vt 0.312500 0.761364
vt 0.312500 0.738636
vt 0.326389 0.738636
vt 0.326389 0.761364
vt 0.312500 0.761364
vt 0.312500 0.738636
vt 0.326389 0.738636
vt 0.326389 0.761364
vt 0.312500 0.761364
vt 0.312500 0.738636
vt 0.326389 0.738636
vt 0.326389 0.761364
vt 0.312500 0.761364
vt 0.312500 0.738636
vt 0.326389 0.738636
vt 0.326389 0.761364
vt 0.312500 0.761364
vt 0.312500 0.738636
vt 0.326389 0.738636
vt 0.326389 0.761364
vt 0.312500 0.761364
vt 0.312500 0.738636
vt 0.326389 0.738636
vt 0.326389 0.761364
vt 0.312500 0.761364
vt 0.312500 0.738636
vt 0.326389 0.738636
vt 0.326389 0.761364
vt 0.312500 0.761364
vn 1.0000 0.0000 0.0000
vn 0.0000 0.0000 1.0000
vn -1.0000 0.0000 0.0000
vn -0.1096 0.9879 0.1096
vn -0.1096 0.9879 -0.1096
vn 0.1096 0.9879 0.1096
vn 0.1096 0.9879 -0.1096
vn 0.0000 0.0000 -1.0000
vn 0.0000 0.9763 0.2166
vn 0.0000 0.9763 -0.2166
vn -0.0898 -0.9919 -0.0898
vn 0.0000 -0.9840 -0.1783
vn -0.0898 -0.9919 0.0898
vn 0.0000 -0.9840 0.1783
vn 0.0898 -0.9919 -0.0898
vn 0.0898 -0.9919 0.0898
usemtl eMiscStuff
s off
f 9/1/1 32/2/1 10/3/1 1/4/1
f 13/5/1 9/6/1 1/7/1 8/8/1
f 19/9/2 41/10/2 20/11/2 6/12/2
f 18/13/2 13/14/2 8/15/2 22/16/2
f 3/17/2 18/18/2 22/19/2 23/20/2
f 33/21/2 3/22/2 23/23/2 2/24/2
f 41/10/2 33/21/2 2/24/2 20/11/2
f 39/25/2 19/9/2 6/12/2 4/26/2
f 36/27/3 39/25/3 4/26/3 5/28/3
f 34/29/3 36/30/3 5/31/3 17/32/3
f 24/33/4 5/34/4 4/35/4 6/36/4
f 12/37/5 17/38/5 5/39/5 24/40/5
f 1/41/6 28/42/6 22/43/6 8/44/6
f 10/45/7 11/46/7 28/47/7 1/48/7
f 32/2/8 35/49/8 11/50/8 10/3/8
f 37/51/8 34/29/8 17/32/8 12/52/8
f 27/53/8 37/54/8 12/55/8 16/56/8
f 29/57/8 27/53/8 16/56/8 14/58/8
f 40/59/8 29/60/8 14/61/8 15/62/8
f 35/49/8 40/63/8 15/64/8 11/50/8
f 26/65/9 24/66/9 6/67/9 20/68/9
f 30/69/9 26/70/9 20/71/9 2/72/9
f 31/73/9 30/74/9 2/75/9 23/76/9
f 28/77/9 31/78/9 23/79/9 22/80/9
f 16/81/10 12/82/10 24/83/10 26/84/10
f 14/85/10 16/86/10 26/87/10 30/88/10
f 15/89/10 14/90/10 30/91/10 31/92/10
f 11/93/10 15/94/10 31/95/10 28/96/10
f 34/97/11 37/98/11 38/99/11 36/100/11
f 37/101/12 27/102/12 21/103/12 38/104/12
f 36/105/13 38/106/13 19/107/13 39/108/13
f 38/109/14 21/110/14 41/111/14 19/112/14
f 27/113/12 29/114/12 25/115/12 21/116/12
f 29/117/12 40/118/12 42/119/12 25/120/12
f 21/121/14 25/122/14 33/123/14 41/124/14
f 25/125/14 42/126/14 3/127/14 33/128/14
f 40/129/12 35/130/12 7/131/12 42/132/12
f 35/133/15 32/134/15 9/135/15 7/136/15
f 42/137/14 7/138/14 18/139/14 3/140/14
f 7/141/16 9/142/16 13/143/16 18/144/16
