# Blender v2.82 (sub 7) OBJ File: 'Container005.blend'
# www.blender.org
mtllib Container005.mtl
o Cube
v 1.000000 0.000000 0.000000
v 1.000000 2.000000 0.000000
v 1.000000 0.000000 1.000000
v 1.000000 1.000000 1.000000
v -1.000000 0.000000 -1.000000
v 1.000000 2.000000 -1.000000
v 0.000000 2.000000 0.000000
v 0.000000 2.000000 -1.000000
v -1.000000 2.000000 0.000000
v 1.000000 1.000000 -1.000000
v -1.000000 2.000000 -1.000000
v -1.000000 1.000000 -1.000000
v 0.000000 0.000000 0.000000
v -1.000000 0.000000 0.000000
v 0.000000 0.000000 -1.000000
v 0.000000 2.000000 1.000000
v 1.000000 2.000000 1.000000
v -1.000000 2.000000 1.000000
v -1.000000 1.000000 0.000000
v 1.000000 0.000000 -1.000000
v -1.000000 0.000000 1.000000
v 1.000000 1.000000 0.000000
v 0.000000 0.000000 1.000000
v -1.000000 1.000000 1.000000
v 0.000000 1.000000 1.000000
v 0.000000 1.000000 -1.000000
vt 0.388846 0.500078
vt 0.333377 0.500078
vt 0.333377 0.599922
vt 0.388846 0.599922
vt 0.444401 0.500078
vt 0.388932 0.500078
vt 0.388932 0.599922
vt 0.444401 0.599922
vt 0.388846 0.400078
vt 0.333377 0.400078
vt 0.333377 0.499922
vt 0.388846 0.499922
vt 0.444401 0.400078
vt 0.388932 0.400078
vt 0.388932 0.499922
vt 0.444401 0.499922
vt 0.388846 0.500078
vt 0.333377 0.500078
vt 0.333377 0.599922
vt 0.388846 0.599922
vt 0.444401 0.500078
vt 0.388932 0.500078
vt 0.388932 0.599922
vt 0.444401 0.599922
vt 0.388846 0.400078
vt 0.333377 0.400078
vt 0.333377 0.499922
vt 0.388846 0.499922
vt 0.444401 0.400078
vt 0.388932 0.400078
vt 0.388932 0.499922
vt 0.444401 0.499922
vt 0.388846 0.500078
vt 0.333377 0.500078
vt 0.333377 0.599922
vt 0.444401 0.500078
vt 0.388932 0.500078
vt 0.444401 0.599922
vt 0.388846 0.400078
vt 0.333377 0.400078
vt 0.333377 0.499922
vt 0.388846 0.499922
vt 0.444401 0.400078
vt 0.388932 0.400078
vt 0.388932 0.499922
vt 0.444401 0.499922
vt 0.388846 0.900078
vt 0.333377 0.900078
vt 0.333377 0.999922
vt 0.388846 0.999922
vt 0.444401 0.900078
vt 0.388932 0.900078
vt 0.388932 0.999922
vt 0.444401 0.999922
vt 0.388846 0.800078
vt 0.333377 0.800078
vt 0.333377 0.899922
vt 0.388846 0.899922
vt 0.444401 0.800078
vt 0.388932 0.800078
vt 0.388932 0.899922
vt 0.444401 0.899922
vt 0.055512 0.900078
vt 0.000043 0.900078
vt 0.000043 0.999922
vt 0.055512 0.999922
vt 0.111068 0.900078
vt 0.055599 0.900078
vt 0.055599 0.999922
vt 0.111068 0.999922
vt 0.055512 0.800078
vt 0.000043 0.800078
vt 0.000043 0.899922
vt 0.055512 0.899922
vt 0.111068 0.800078
vt 0.055599 0.800078
vt 0.055599 0.899922
vt 0.111068 0.899922
vt 0.388846 0.900078
vt 0.333377 0.900078
vt 0.333377 0.999922
vt 0.388846 0.999922
vt 0.444401 0.900078
vt 0.388932 0.900078
vt 0.388932 0.999922
vt 0.444401 0.999922
vt 0.388846 0.800078
vt 0.333377 0.800078
vt 0.333377 0.899922
vt 0.388846 0.899922
vt 0.444401 0.800078
vt 0.388932 0.800078
vt 0.388932 0.899922
vt 0.444401 0.899922
vn 0.0000 -1.0000 0.0000
vn 1.0000 0.0000 0.0000
vn 0.0000 1.0000 0.0000
vn 0.0000 0.0000 -1.0000
vn -1.0000 0.0000 0.0000
vn 0.0000 0.0000 1.0000
usemtl CratesAndContainaers
s off
f 13/1/1 15/2/1 20/3/1 1/4/1
f 23/5/1 13/6/1 1/7/1 3/8/1
f 14/9/1 5/10/1 15/11/1 13/12/1
f 21/13/1 14/14/1 13/15/1 23/16/1
f 22/17/2 10/18/2 6/19/2 2/20/2
f 4/21/2 22/22/2 2/23/2 17/24/2
f 1/25/2 20/26/2 10/27/2 22/28/2
f 3/29/2 1/30/2 22/31/2 4/32/2
f 7/33/3 16/34/3 17/35/3 2/20/3
f 8/36/3 7/37/3 2/23/3 6/38/3
f 9/39/3 18/40/3 16/41/3 7/42/3
f 11/43/3 9/44/3 7/45/3 8/46/3
f 26/47/4 12/48/4 11/49/4 8/50/4
f 10/51/4 26/52/4 8/53/4 6/54/4
f 15/55/4 5/56/4 12/57/4 26/58/4
f 20/59/4 15/60/4 26/61/4 10/62/4
f 19/63/5 24/64/5 18/65/5 9/66/5
f 12/67/5 19/68/5 9/69/5 11/70/5
f 14/71/5 21/72/5 24/73/5 19/74/5
f 5/75/5 14/76/5 19/77/5 12/78/5
f 25/79/6 4/80/6 17/81/6 16/82/6
f 24/83/6 25/84/6 16/85/6 18/86/6
f 23/87/6 3/88/6 4/89/6 25/90/6
f 21/91/6 23/92/6 25/93/6 24/94/6
