# Blender v2.82 (sub 7) OBJ File: 'Container003.blend'
# www.blender.org
mtllib Container003.mtl
o Cube
v 1.000000 0.000000 0.000000
v -1.000000 2.000000 1.000000
v -1.000000 1.000000 -1.000000
v -1.000000 2.000000 0.000000
v 1.000000 2.000000 -1.000000
v 1.000000 2.000000 0.000000
v 1.000000 1.000000 0.000000
v 1.000000 0.000000 -1.000000
v 0.000000 0.000000 -1.000000
v -1.000000 0.000000 0.000000
v -1.000000 1.000000 0.000000
v -1.000000 2.000000 -1.000000
v -1.000000 0.000000 1.000000
v 1.000000 2.000000 1.000000
v 0.000000 1.000000 -1.000000
v 1.000000 1.000000 -1.000000
v -1.000000 1.000000 1.000000
v 0.000000 0.000000 1.000000
v 0.000000 2.000000 -1.000000
v 1.000000 1.000000 1.000000
v 0.000000 2.000000 0.000000
v 0.000000 2.000000 1.000000
v 0.000000 1.000000 1.000000
v -1.000000 0.000000 -1.000000
v 1.000000 0.000000 1.000000
v 0.000000 0.000000 0.000000
vt 0.555599 0.700078
vt 0.611068 0.700078
vt 0.611068 0.799922
vt 0.555599 0.799922
vt 0.500043 0.700078
vt 0.555512 0.700078
vt 0.555512 0.799922
vt 0.500043 0.799922
vt 0.555599 0.600078
vt 0.611068 0.600078
vt 0.611068 0.699922
vt 0.555599 0.699922
vt 0.500043 0.600078
vt 0.555512 0.600078
vt 0.555512 0.699922
vt 0.500043 0.699922
vt 0.555512 0.699922
vt 0.500043 0.699922
vt 0.500043 0.600078
vt 0.555512 0.600078
vt 0.611068 0.699922
vt 0.555599 0.699922
vt 0.555599 0.600078
vt 0.611068 0.600078
vt 0.555512 0.799922
vt 0.500043 0.799922
vt 0.500043 0.700078
vt 0.555512 0.700078
vt 0.611068 0.799922
vt 0.555599 0.799922
vt 0.555599 0.700078
vt 0.611068 0.700078
vt 0.666710 0.500078
vt 0.722179 0.500078
vt 0.722179 0.599922
vt 0.666710 0.599922
vt 0.611154 0.500078
vt 0.666623 0.500078
vt 0.666623 0.599922
vt 0.611154 0.599922
vt 0.666710 0.400078
vt 0.722179 0.400078
vt 0.722179 0.499922
vt 0.666710 0.499922
vt 0.611154 0.400078
vt 0.666623 0.400078
vt 0.666623 0.499922
vt 0.611154 0.499922
vt 0.666710 0.500078
vt 0.722179 0.500078
vt 0.722179 0.599922
vt 0.666710 0.599922
vt 0.611154 0.500078
vt 0.666623 0.500078
vt 0.666623 0.599922
vt 0.611154 0.599922
vt 0.666710 0.400078
vt 0.722179 0.400078
vt 0.722179 0.499922
vt 0.666710 0.499922
vt 0.611154 0.400078
vt 0.666623 0.400078
vt 0.666623 0.499922
vt 0.611154 0.499922
vt 0.555599 0.700078
vt 0.611068 0.700078
vt 0.611068 0.799922
vt 0.500043 0.700078
vt 0.555512 0.700078
vt 0.500043 0.799922
vt 0.555599 0.600078
vt 0.611068 0.600078
vt 0.611068 0.699922
vt 0.555599 0.699922
vt 0.500043 0.600078
vt 0.555512 0.600078
vt 0.555512 0.699922
vt 0.500043 0.699922
vt 0.722266 0.799922
vt 0.722266 0.700078
vt 0.777734 0.700078
vt 0.777734 0.799922
vt 0.722266 0.699922
vt 0.722266 0.600078
vt 0.777734 0.600078
vt 0.777734 0.699922
vt 0.777821 0.799922
vt 0.777821 0.700078
vt 0.833290 0.700078
vt 0.833290 0.799922
vt 0.777821 0.699922
vt 0.777821 0.600078
vt 0.833290 0.600078
vt 0.833290 0.699922
vn 0.0000 0.0000 -1.0000
vn 0.0000 1.0000 0.0000
vn -1.0000 0.0000 0.0000
vn 1.0000 0.0000 0.0000
vn 0.0000 0.0000 1.0000
vn 0.0000 -1.0000 0.0000
usemtl CratesAndContainaers
s off
f 15/1/1 3/2/1 12/3/1 19/4/1
f 16/5/1 15/6/1 19/7/1 5/8/1
f 9/9/1 24/10/1 3/11/1 15/12/1
f 8/13/1 9/14/1 15/15/1 16/16/1
f 21/17/2 6/18/2 5/19/2 19/20/2
f 4/21/2 21/22/2 19/23/2 12/24/2
f 22/25/2 14/26/2 6/27/2 21/28/2
f 2/29/2 22/30/2 21/31/2 4/32/2
f 11/33/3 17/34/3 2/35/3 4/36/3
f 3/37/3 11/38/3 4/39/3 12/40/3
f 10/41/3 13/42/3 17/43/3 11/44/3
f 24/45/3 10/46/3 11/47/3 3/48/3
f 7/49/4 16/50/4 5/51/4 6/52/4
f 20/53/4 7/54/4 6/55/4 14/56/4
f 1/57/4 8/58/4 16/59/4 7/60/4
f 25/61/4 1/62/4 7/63/4 20/64/4
f 23/65/5 20/66/5 14/67/5 22/30/5
f 17/68/5 23/69/5 22/25/5 2/70/5
f 18/71/5 25/72/5 20/73/5 23/74/5
f 13/75/5 18/76/5 23/77/5 17/78/5
f 25/79/6 18/80/6 26/81/6 1/82/6
f 18/83/6 13/84/6 10/85/6 26/86/6
f 1/87/6 26/88/6 9/89/6 8/90/6
f 26/91/6 10/92/6 24/93/6 9/94/6
