# Blender v2.82 (sub 7) OBJ File: 'crater002.blend'
# www.blender.org
mtllib crater002.mtl
o Cube
v -1.000000 1.000000 -1.000000
v 0.000000 1.000000 -1.000000
v -1.000000 0.000000 0.000000
v 0.000000 1.000000 0.000000
v -1.000000 1.000000 0.000000
v 0.000000 0.000000 0.000000
v 0.000000 0.000000 -1.000000
v -1.000000 0.000000 -1.000000
vt 0.944488 0.800078
vt 0.999957 0.800078
vt 0.999957 0.899922
vt 0.944488 0.899922
vt 0.888932 0.800078
vt 0.944401 0.800078
vt 0.944401 0.899922
vt 0.888932 0.899922
vt 0.944488 0.900078
vt 0.999957 0.900078
vt 0.999957 0.999922
vt 0.944488 0.999922
vt 0.944488 0.900078
vt 0.999957 0.900078
vt 0.999957 0.999922
vt 0.944488 0.999922
vt 0.888932 0.800078
vt 0.944401 0.800078
vt 0.944401 0.899922
vt 0.888932 0.899922
vt 0.944488 0.800078
vt 0.999957 0.800078
vt 0.999957 0.899922
vt 0.944488 0.899922
vn 0.0000 1.0000 0.0000
vn 0.0000 0.0000 1.0000
vn -1.0000 0.0000 0.0000
vn 1.0000 0.0000 0.0000
vn 0.0000 0.0000 -1.0000
vn 0.0000 -1.0000 0.0000
usemtl CratesAndContainaers
s off
f 5/1/1 4/2/1 2/3/1 1/4/1
f 3/5/2 6/6/2 4/7/2 5/8/2
f 8/9/3 3/10/3 5/11/3 1/12/3
f 6/13/4 7/14/4 2/15/4 4/16/4
f 7/17/5 8/18/5 1/19/5 2/20/5
f 8/21/6 7/22/6 6/23/6 3/24/6
