# Blender v2.82 (sub 7) OBJ File: 'dOORIIl.blend'
# www.blender.org
mtllib dOORIIl.mtl
o Cube.001
v -0.685867 0.000000 0.090252
v 0.814133 0.000000 0.090252
v 0.314133 0.000000 0.090252
v -0.185867 0.000000 0.090252
v -0.685867 0.500000 0.090252
v 0.314133 0.500000 0.090252
v 0.814133 0.500000 0.090252
v -0.185867 0.500000 0.090252
v -0.185867 1.500000 0.090252
v 0.814133 1.000000 0.090252
v 0.814133 1.500000 0.090252
v 0.314133 1.500000 0.090252
v -0.685867 1.500000 0.090252
v -0.185867 1.500000 -0.069672
v 0.314133 1.500000 -0.069672
v -0.685867 1.000000 0.090252
v 0.814133 1.500000 -0.069672
v -0.685867 1.500000 -0.069672
v -0.185867 1.000000 0.090252
v 0.314133 1.000000 0.090252
v 0.814133 1.000000 -0.069672
v -0.685867 1.000000 -0.069672
v -0.185867 1.000000 -0.069672
v -0.685867 0.500000 -0.069672
v -0.685867 0.000000 -0.069672
v 0.314133 1.000000 -0.069672
v 0.814133 0.500000 -0.069672
v -0.185867 0.000000 -0.069672
v -0.185867 0.500000 -0.069672
v 0.314133 0.500000 -0.069672
v 0.314133 0.000000 -0.069672
v 0.814133 0.000000 -0.069672
vt 0.666710 0.409020
vt 0.666710 0.363707
vt 0.666710 0.363707
vt 0.666710 0.409020
vt 0.666710 0.499929
vt 0.666710 0.454616
vt 0.666710 0.454616
vt 0.666710 0.499929
vt 0.749957 0.409162
vt 0.749957 0.454474
vt 0.749957 0.454474
vt 0.749957 0.409162
vt 0.749957 0.363707
vt 0.749957 0.409020
vt 0.749957 0.409020
vt 0.749957 0.363707
vt 0.722179 0.499929
vt 0.694488 0.499929
vt 0.694488 0.499929
vt 0.722179 0.499929
vt 0.666710 0.454474
vt 0.666710 0.409162
vt 0.666710 0.409162
vt 0.666710 0.454474
vt 0.694401 0.499929
vt 0.694401 0.499929
vt 0.749957 0.499929
vt 0.722266 0.499929
vt 0.722266 0.499929
vt 0.749957 0.499929
vt 0.694401 0.363707
vt 0.694401 0.363707
vt 0.722266 0.363707
vt 0.722266 0.363707
vt 0.694488 0.363707
vt 0.722179 0.363707
vt 0.722179 0.363707
vt 0.694488 0.363707
vt 0.749957 0.454616
vt 0.749957 0.454616
vt 0.694401 0.409020
vt 0.722179 0.409020
vt 0.694488 0.409020
vt 0.722266 0.409020
vt 0.694401 0.409162
vt 0.694401 0.454474
vt 0.694488 0.409162
vt 0.722179 0.409162
vt 0.722179 0.454474
vt 0.694488 0.454474
vt 0.722266 0.409162
vt 0.722266 0.454474
vt 0.694401 0.454616
vt 0.694488 0.454616
vt 0.722179 0.454616
vt 0.722266 0.454616
vt 0.722266 0.454616
vt 0.694488 0.454616
vt 0.722179 0.454616
vt 0.694401 0.454616
vt 0.722266 0.409162
vt 0.722266 0.454474
vt 0.694488 0.409162
vt 0.694488 0.454474
vt 0.722179 0.454474
vt 0.722179 0.409162
vt 0.694401 0.454474
vt 0.694401 0.409162
vt 0.722266 0.409020
vt 0.694488 0.409020
vt 0.722179 0.409020
vt 0.694401 0.409020
vn -1.0000 0.0000 0.0000
vn 1.0000 0.0000 0.0000
vn 0.0000 -1.0000 0.0000
vn 0.0000 1.0000 0.0000
vn 0.0000 0.0000 -1.0000
vn 0.0000 0.0000 1.0000
usemtl 0LoungeOfficeWallpapersDestroyed
s off
f 27/1/1 32/2/1 2/3/1 7/4/1
f 17/5/1 21/6/1 10/7/1 11/8/1
f 24/9/2 22/10/2 16/11/2 5/12/2
f 25/13/2 24/14/2 5/15/2 1/16/2
f 14/17/3 15/18/3 12/19/3 9/20/3
f 21/21/1 27/22/1 7/23/1 10/24/1
f 15/25/3 17/5/3 11/8/3 12/26/3
f 18/27/3 14/28/3 9/29/3 13/30/3
f 32/2/4 31/31/4 3/32/4 2/3/4
f 28/33/4 25/13/4 1/16/4 4/34/4
f 31/35/4 28/36/4 4/37/4 3/38/4
f 22/39/2 18/27/2 13/30/2 16/40/2
f 2/3/5 3/32/5 6/41/5 7/4/5
f 3/38/5 4/37/5 8/42/5 6/43/5
f 4/34/5 1/16/5 5/15/5 8/44/5
f 7/23/5 6/45/5 20/46/5 10/24/5
f 6/47/5 8/48/5 19/49/5 20/50/5
f 8/51/5 5/12/5 16/11/5 19/52/5
f 10/7/5 20/53/5 12/26/5 11/8/5
f 20/54/5 19/55/5 9/20/5 12/19/5
f 19/56/5 16/40/5 13/30/5 9/29/5
f 23/57/6 14/28/6 18/27/6 22/39/6
f 26/58/6 15/18/6 14/17/6 23/59/6
f 21/6/6 17/5/6 15/25/6 26/60/6
f 29/61/6 23/62/6 22/10/6 24/9/6
f 30/63/6 26/64/6 23/65/6 29/66/6
f 27/22/6 21/21/6 26/67/6 30/68/6
f 28/33/6 29/69/6 24/14/6 25/13/6
f 31/35/6 30/70/6 29/71/6 28/36/6
f 32/2/6 27/1/6 30/72/6 31/31/6
