# Blender v2.82 (sub 7) OBJ File: 'CostumeChangeCapsuleHol.blend'
# www.blender.org
mtllib CostumeChangeCapsuleHol.mtl
o Cube
v 0.821845 0.111237 0.004586
v 0.792345 0.111237 -0.219490
v 0.705855 0.111237 0.437467
v 0.792345 0.016844 -0.219490
v 0.568269 0.509759 -0.607601
v 0.568269 0.111237 -0.607601
v 0.792345 0.111237 0.228662
v 0.792345 1.306803 0.228662
v 0.821845 0.509759 0.004586
v 0.705855 0.016844 0.437467
v 0.180158 0.111237 0.840848
v 0.792345 0.509759 0.228662
v 0.821845 1.306803 0.004586
v 0.568269 0.111237 0.616772
v -0.043918 0.111237 -0.861177
v -0.043918 0.509759 0.870348
v 0.705855 0.111237 -0.428295
v 0.568269 1.306803 -0.607601
v 0.180158 1.306803 0.840848
v -0.656104 0.111237 -0.607601
v -0.880180 0.111237 -0.219490
v -0.656104 1.306803 -0.607601
v 0.792345 1.306803 -0.219490
v -0.476799 0.509759 0.754358
v 0.388963 0.016844 0.754358
v -0.476799 0.111237 -0.745187
v -0.909680 0.111237 0.004586
v 0.568269 0.509759 0.616772
v 0.388964 0.509759 0.754358
v -0.267994 1.306803 -0.831677
v -0.043918 1.306803 -0.861177
v -0.043918 0.111237 0.870348
v -0.656104 0.509759 0.616772
v -0.267993 0.509759 0.840848
v 0.821845 0.016844 0.004586
v -0.909680 1.306803 0.004586
v 0.705855 0.509759 0.437467
v 0.388964 0.509759 -0.745187
v -0.793690 1.306803 0.437467
v -0.793690 0.509759 0.437467
v -0.793690 0.509759 -0.428295
v 0.568269 0.016844 0.616772
v -0.656104 0.111237 0.616772
v -0.793690 0.111237 0.437467
v -0.267993 0.111237 0.840848
v -0.909680 0.509759 0.004586
v 0.705855 0.509759 -0.428295
v 0.180158 0.509759 -0.831677
v -0.043918 0.509759 -0.861177
v -0.880180 0.111237 0.228662
v -0.267994 0.509759 -0.831677
v 0.792345 0.509759 -0.219490
v -0.476799 0.509759 -0.745187
v -0.656104 0.509759 -0.607601
v -0.043918 0.016844 0.870348
v 0.388964 0.111237 0.754358
v -0.656104 0.016844 0.616772
v -0.880180 0.509759 -0.219490
v -0.476799 0.111237 0.754358
v -0.880180 0.509759 0.228662
v -0.880180 0.908281 0.228662
v -0.793690 0.908281 0.437467
v -0.476799 0.016844 0.754358
v -0.476799 0.016844 -0.745187
v -0.793690 0.111237 -0.428295
v 0.180158 0.111237 -0.831677
v -0.909680 0.908281 0.004586
v -0.267994 0.111237 -0.831677
v 0.568269 0.016844 -0.607601
v 0.180158 0.016844 -0.831677
v 0.388964 0.111237 -0.745187
v 0.180158 0.016844 0.840848
v 0.792345 0.016844 0.228662
v -0.043918 0.908281 -0.861177
v -0.880180 0.908281 -0.219490
v -0.476799 0.908281 -0.745187
v -0.793690 0.016844 0.437467
v -0.267994 0.908281 -0.831677
v 0.180158 0.908281 -0.831677
v 0.705855 0.908281 -0.428295
v 0.792345 0.908281 -0.219490
v 0.705855 0.016844 -0.428295
v -0.880180 0.016844 0.228662
v -0.793690 0.908281 -0.428295
v -0.909680 0.016844 0.004586
v -0.656104 0.908281 -0.607601
v -0.267994 0.016844 0.840848
v -0.656104 0.016844 -0.607601
v 0.180158 0.908281 0.840848
v 0.388964 0.908281 -0.745187
v -0.793690 0.016844 -0.428295
v -0.267994 0.016844 -0.831677
v -0.043918 0.016844 -0.861177
v 0.568269 0.908281 -0.607601
v -0.880180 0.016844 -0.219490
v 0.821845 0.908281 0.004586
v 0.388963 0.016844 -0.745187
v 0.705855 0.908281 0.437467
v 0.792345 0.908281 0.228662
v 0.180158 0.509759 0.840848
v -0.267993 0.908281 0.840848
v -0.043918 0.908281 0.870348
v -0.656104 0.908281 0.616772
v -0.476799 0.908281 0.754358
v 0.388964 0.908281 0.754358
v 0.568269 0.908281 0.616772
v 0.821845 1.705325 0.004586
v 0.792345 1.705325 -0.219490
v 0.705855 1.705325 0.437467
v 0.568269 1.705325 -0.607601
v 0.792345 1.705325 0.228662
v 0.180158 1.705325 0.840848
v 0.568269 1.705325 0.616772
v -0.043918 1.705325 -0.861177
v 0.705855 1.705325 -0.428295
v -0.656104 1.705325 -0.607601
v -0.880180 1.705325 -0.219490
v -0.476799 1.705325 -0.745187
v -0.909680 1.705325 0.004586
v -0.043918 1.705325 0.870348
v -0.656104 1.705325 0.616772
v -0.793690 1.705325 0.437467
v -0.267993 1.705325 0.840848
v -0.880180 1.705325 0.228662
v 0.388964 1.705325 0.754358
v -0.476799 1.705325 0.754358
v -0.793690 1.705325 -0.428295
v 0.180158 1.705325 -0.831677
v -0.267994 1.705325 -0.831677
v 0.388964 1.705325 -0.745187
v -0.043918 1.306803 0.870348
v -0.476799 1.306803 0.754358
v 0.568269 1.306803 0.616772
v 0.388964 1.306803 0.754358
v -0.656104 1.306803 0.616772
v -0.267993 1.306803 0.840848
v 0.705855 1.306803 0.437467
v 0.388964 1.306803 -0.745187
v -0.793690 1.306803 -0.428295
v 0.705855 1.306803 -0.428295
v 0.180158 1.306803 -0.831677
v -0.476799 1.306803 -0.745187
v -0.880180 1.306803 -0.219490
v -0.880180 1.306803 0.228662
vt 0.402821 0.534956
vt 0.416623 0.534956
vt 0.416623 0.558067
vt 0.402821 0.558067
vt 0.402821 0.534956
vt 0.416623 0.534956
vt 0.416623 0.558067
vt 0.402821 0.558067
vt 0.402821 0.534956
vt 0.416623 0.534956
vt 0.416623 0.558067
vt 0.402821 0.558067
vt 0.402821 0.534956
vt 0.416623 0.534956
vt 0.416623 0.558067
vt 0.402821 0.558067
vt 0.402821 0.534956
vt 0.416623 0.534956
vt 0.416623 0.558067
vt 0.402821 0.558067
vt 0.402821 0.534956
vt 0.416623 0.534956
vt 0.416623 0.558067
vt 0.402821 0.558067
vt 0.402821 0.534956
vt 0.416623 0.534956
vt 0.416623 0.558067
vt 0.402821 0.558067
vt 0.402821 0.534956
vt 0.416623 0.534956
vt 0.416623 0.558067
vt 0.402821 0.558067
vt 0.402821 0.534956
vt 0.416623 0.534956
vt 0.416623 0.558067
vt 0.402821 0.558067
vt 0.402821 0.534956
vt 0.416623 0.534956
vt 0.416623 0.558067
vt 0.402821 0.558067
vt 0.402821 0.534956
vt 0.416623 0.534956
vt 0.416623 0.558067
vt 0.402821 0.558067
vt 0.402821 0.534956
vt 0.416623 0.534956
vt 0.416623 0.558067
vt 0.402821 0.558067
vt 0.402821 0.534956
vt 0.416623 0.534956
vt 0.416623 0.558067
vt 0.402821 0.558067
vt 0.402821 0.534956
vt 0.416623 0.534956
vt 0.416623 0.558067
vt 0.402821 0.558067
vt 0.402821 0.534956
vt 0.416623 0.534956
vt 0.416623 0.558067
vt 0.402821 0.558067
vt 0.402821 0.534956
vt 0.416623 0.534956
vt 0.416623 0.558067
vt 0.402821 0.558067
vt 0.472266 0.534956
vt 0.486068 0.534956
vt 0.486068 0.558067
vt 0.472266 0.558067
vt 0.472266 0.534956
vt 0.486068 0.534956
vt 0.486068 0.558067
vt 0.472266 0.558067
vt 0.472266 0.534956
vt 0.486068 0.534956
vt 0.486068 0.558067
vt 0.472266 0.558067
vt 0.472266 0.558212
vt 0.486068 0.558212
vt 0.486068 0.581323
vt 0.472266 0.581323
vt 0.472266 0.558212
vt 0.486068 0.558212
vt 0.486068 0.581323
vt 0.472266 0.581323
vt 0.472266 0.558212
vt 0.486068 0.558212
vt 0.486068 0.581323
vt 0.472266 0.581323
vt 0.472266 0.558212
vt 0.486068 0.558212
vt 0.486068 0.581323
vt 0.472266 0.581323
vt 0.472266 0.558212
vt 0.486068 0.581323
vt 0.486068 0.581323
vt 0.472266 0.558212
vt 0.472266 0.558212
vt 0.486068 0.558212
vt 0.486068 0.581323
vt 0.472266 0.581323
vt 0.472266 0.558212
vt 0.486068 0.558212
vt 0.486068 0.581323
vt 0.472266 0.581323
vt 0.472266 0.558212
vt 0.486068 0.558212
vt 0.486068 0.581323
vt 0.472266 0.581323
vt 0.430512 0.488445
vt 0.402821 0.488445
vt 0.402821 0.511555
vt 0.430512 0.511555
vt 0.472266 0.558212
vt 0.486068 0.558212
vt 0.486068 0.581323
vt 0.472266 0.581323
vt 0.486068 0.558212
vt 0.486068 0.581323
vt 0.416710 0.488445
vt 0.430512 0.488445
vt 0.430512 0.511555
vt 0.416710 0.511555
vt 0.486068 0.558212
vt 0.472266 0.558212
vt 0.472266 0.581323
vt 0.486068 0.581323
vt 0.472266 0.558212
vt 0.486068 0.558212
vt 0.486068 0.581323
vt 0.472266 0.581323
vt 0.472266 0.558212
vt 0.486068 0.558212
vt 0.486068 0.581323
vt 0.472266 0.581323
vt 0.430512 0.488445
vt 0.402821 0.488445
vt 0.402821 0.511555
vt 0.430512 0.511555
vt 0.472266 0.558212
vt 0.486068 0.558212
vt 0.486068 0.581323
vt 0.472266 0.581323
vt 0.402821 0.488445
vt 0.430512 0.488445
vt 0.430512 0.511555
vt 0.402821 0.511555
vt 0.486068 0.558212
vt 0.472266 0.558212
vt 0.472266 0.581323
vt 0.486068 0.581323
vt 0.472266 0.558212
vt 0.486068 0.558212
vt 0.486068 0.581323
vt 0.472266 0.581323
vt 0.472266 0.558212
vt 0.486068 0.558212
vt 0.486068 0.581323
vt 0.472266 0.581323
vt 0.472266 0.558212
vt 0.486068 0.558212
vt 0.486068 0.581323
vt 0.472266 0.581323
vt 0.472266 0.558212
vt 0.472266 0.581323
vt 0.472266 0.558212
vt 0.486068 0.558212
vt 0.486068 0.581323
vt 0.472266 0.581323
vt 0.472266 0.534956
vt 0.486068 0.534956
vt 0.486068 0.558067
vt 0.472266 0.558067
vt 0.402821 0.534956
vt 0.416623 0.534956
vt 0.416623 0.558067
vt 0.402821 0.558067
vt 0.402821 0.534956
vt 0.416623 0.534956
vt 0.416623 0.558067
vt 0.402821 0.558067
vt 0.402821 0.534956
vt 0.416623 0.534956
vt 0.416623 0.558067
vt 0.402821 0.558067
vt 0.402821 0.534956
vt 0.416623 0.534956
vt 0.416623 0.558067
vt 0.402821 0.558067
vt 0.402821 0.534956
vt 0.416623 0.534956
vt 0.416623 0.558067
vt 0.402821 0.558067
vt 0.402821 0.534956
vt 0.416623 0.534956
vt 0.416623 0.558067
vt 0.402821 0.558067
vt 0.402821 0.534956
vt 0.416623 0.534956
vt 0.416623 0.558067
vt 0.402821 0.558067
vt 0.402821 0.534956
vt 0.416623 0.534956
vt 0.416623 0.558067
vt 0.402821 0.558067
vt 0.472266 0.534956
vt 0.486068 0.534956
vt 0.486068 0.558067
vt 0.472266 0.558067
vt 0.472266 0.534956
vt 0.486068 0.534956
vt 0.486068 0.558067
vt 0.472266 0.558067
vt 0.486068 0.534956
vt 0.486068 0.558067
vt 0.472266 0.534956
vt 0.486068 0.534956
vt 0.486068 0.558067
vt 0.472266 0.558067
vt 0.472266 0.534956
vt 0.486068 0.534956
vt 0.486068 0.558067
vt 0.472266 0.558067
vt 0.472266 0.534956
vt 0.486068 0.534956
vt 0.486068 0.558067
vt 0.472266 0.558067
vt 0.472266 0.534956
vt 0.486068 0.534956
vt 0.486068 0.558067
vt 0.472266 0.558067
vt 0.472266 0.534956
vt 0.486068 0.534956
vt 0.486068 0.558067
vt 0.472266 0.558067
vt 0.472266 0.534956
vt 0.486068 0.534956
vt 0.486068 0.558067
vt 0.472266 0.558067
vt 0.472266 0.534956
vt 0.486068 0.534956
vt 0.486068 0.558067
vt 0.472266 0.558067
vt 0.472266 0.534956
vt 0.472266 0.558067
vt 0.472266 0.534956
vt 0.486068 0.534956
vt 0.486068 0.558067
vt 0.472266 0.558067
vt 0.472266 0.534956
vt 0.486068 0.534956
vt 0.486068 0.558067
vt 0.472266 0.558067
vt 0.472266 0.534956
vt 0.486068 0.534956
vt 0.486068 0.558067
vt 0.472266 0.558067
vt 0.472266 0.534956
vt 0.486068 0.534956
vt 0.486068 0.558067
vt 0.472266 0.558067
vt 0.472266 0.558212
vt 0.486068 0.558212
vt 0.486068 0.581323
vt 0.472266 0.581323
vt 0.472266 0.558212
vt 0.486068 0.558212
vt 0.486068 0.581323
vt 0.472266 0.581323
vt 0.472266 0.558212
vt 0.486068 0.558212
vt 0.486068 0.581323
vt 0.472266 0.581323
vt 0.472266 0.558212
vt 0.486068 0.558212
vt 0.486068 0.581323
vt 0.472266 0.581323
vt 0.472266 0.558212
vt 0.486068 0.581323
vt 0.472266 0.558212
vt 0.486068 0.558212
vt 0.486068 0.581323
vt 0.472266 0.581323
vt 0.472266 0.558212
vt 0.486068 0.558212
vt 0.486068 0.581323
vt 0.472266 0.581323
vt 0.472266 0.558212
vt 0.486068 0.558212
vt 0.486068 0.581323
vt 0.472266 0.581323
vt 0.430512 0.488445
vt 0.416710 0.488445
vt 0.416710 0.511555
vt 0.430512 0.511555
vt 0.472266 0.558212
vt 0.486068 0.558212
vt 0.486068 0.581323
vt 0.472266 0.581323
vt 0.486068 0.581323
vt 0.486068 0.581323
vt 0.472266 0.558212
vt 0.486068 0.558212
vt 0.486068 0.581323
vt 0.472266 0.581323
vt 0.402821 0.488445
vt 0.430512 0.488445
vt 0.430512 0.511555
vt 0.402821 0.511555
vt 0.472266 0.558212
vt 0.486068 0.558212
vt 0.486068 0.581323
vt 0.472266 0.581323
vt 0.472266 0.558212
vt 0.486068 0.558212
vt 0.486068 0.581323
vt 0.472266 0.581323
vt 0.486068 0.558212
vt 0.472266 0.558212
vt 0.472266 0.581323
vt 0.486068 0.581323
vt 0.472266 0.558212
vt 0.486068 0.558212
vt 0.486068 0.581323
vt 0.472266 0.581323
vt 0.486068 0.558212
vt 0.472266 0.558212
vt 0.472266 0.581323
vt 0.486068 0.581323
vt 0.486068 0.558212
vt 0.472266 0.558212
vt 0.472266 0.581323
vt 0.486068 0.581323
vt 0.430512 0.488445
vt 0.416710 0.488445
vt 0.416710 0.511555
vt 0.430512 0.511555
vt 0.472266 0.534956
vt 0.486068 0.534956
vt 0.486068 0.558067
vt 0.472266 0.558067
vt 0.472266 0.534956
vt 0.486068 0.534956
vt 0.486068 0.558067
vt 0.472266 0.558067
vt 0.472266 0.534956
vt 0.486068 0.534956
vt 0.486068 0.558067
vt 0.472266 0.558067
vt 0.472266 0.534956
vt 0.486068 0.534956
vt 0.486068 0.558067
vt 0.472266 0.558067
vt 0.472266 0.558212
vt 0.486068 0.558212
vt 0.486068 0.581323
vt 0.472266 0.581323
vt 0.472266 0.558212
vt 0.486068 0.558212
vt 0.486068 0.581323
vt 0.472266 0.581323
vt 0.472266 0.558212
vt 0.472266 0.581323
vt 0.472266 0.558212
vt 0.486068 0.558212
vt 0.486068 0.581323
vt 0.472266 0.581323
vt 0.472266 0.558212
vt 0.486068 0.558212
vt 0.486068 0.581323
vt 0.472266 0.581323
vt 0.472266 0.558212
vt 0.486068 0.558212
vt 0.486068 0.581323
vt 0.472266 0.581323
vt 0.472266 0.558212
vt 0.486068 0.558212
vt 0.486068 0.581323
vt 0.472266 0.581323
vt 0.472266 0.558212
vt 0.486068 0.558212
vt 0.486068 0.581323
vt 0.472266 0.581323
vt 0.486068 0.558212
vt 0.486068 0.581323
vt 0.472266 0.581323
vt 0.472266 0.558212
vt 0.486068 0.558212
vt 0.486068 0.581323
vt 0.472266 0.581323
vt 0.472266 0.558212
vt 0.486068 0.558212
vt 0.486068 0.581323
vt 0.472266 0.581323
vt 0.472266 0.558212
vt 0.486068 0.558212
vt 0.486068 0.581323
vt 0.472266 0.581323
vt 0.430512 0.488445
vt 0.416710 0.488445
vt 0.416710 0.511555
vt 0.430512 0.511555
vt 0.472266 0.558212
vt 0.486068 0.558212
vt 0.486068 0.581323
vt 0.472266 0.581323
vt 0.486068 0.558212
vt 0.486068 0.581323
vt 0.472266 0.558212
vt 0.486068 0.558212
vt 0.486068 0.581323
vt 0.472266 0.581323
vt 0.486068 0.558212
vt 0.472266 0.558212
vt 0.472266 0.581323
vt 0.486068 0.581323
vt 0.472266 0.558212
vt 0.486068 0.558212
vt 0.486068 0.581323
vt 0.472266 0.581323
vt 0.472266 0.558212
vt 0.486068 0.558212
vt 0.486068 0.581323
vt 0.472266 0.581323
vt 0.486068 0.558212
vt 0.472266 0.558212
vt 0.472266 0.581323
vt 0.486068 0.581323
vt 0.472266 0.558212
vt 0.486068 0.558212
vt 0.486068 0.581323
vt 0.472266 0.581323
vt 0.430512 0.488445
vt 0.416710 0.488445
vt 0.416710 0.511555
vt 0.430512 0.511555
vt 0.486068 0.558212
vt 0.472266 0.558212
vt 0.472266 0.581323
vt 0.486068 0.581323
vt 0.472266 0.558212
vt 0.486068 0.558212
vt 0.486068 0.581323
vt 0.472266 0.581323
vt 0.472266 0.558212
vt 0.486068 0.558212
vt 0.486068 0.581323
vt 0.472266 0.581323
vt 0.472266 0.558212
vt 0.486068 0.558212
vt 0.486068 0.581323
vt 0.472266 0.581323
vt 0.472266 0.558212
vt 0.472266 0.581323
vt 0.472266 0.558212
vt 0.486068 0.558212
vt 0.486068 0.581323
vt 0.472266 0.581323
vn -0.9914 0.0000 -0.1305
vn -0.9914 0.0000 0.1305
vn -0.9239 0.0000 0.3827
vn -0.7934 0.0000 0.6088
vn -0.6088 0.0000 0.7934
vn -0.3827 0.0000 0.9239
vn -0.1305 0.0000 0.9914
vn 0.1305 0.0000 0.9914
vn 0.3827 -0.0000 0.9239
vn 0.6088 0.0000 0.7934
vn 0.7934 -0.0000 -0.6088
vn 0.9239 -0.0000 -0.3827
vn 0.9914 0.0000 -0.1305
vn 0.9914 0.0000 0.1305
vn 0.9239 0.0000 0.3827
vn 0.7934 0.0000 0.6088
vn 0.6088 0.0000 -0.7934
vn -0.1305 0.0000 -0.9914
vn -0.6088 0.0000 -0.7934
vn 0.1305 0.0000 -0.9914
vn -0.9239 0.0000 -0.3827
vn -0.7934 0.0000 -0.6088
vn 0.3827 0.0000 -0.9239
vn -0.3827 0.0000 -0.9239
usemtl sdddd
s off
f 95/1/1 85/2/1 27/3/1 21/4/1
f 85/5/2 83/6/2 50/7/2 27/8/2
f 83/9/3 77/10/3 44/11/3 50/12/3
f 77/13/4 57/14/4 43/15/4 44/16/4
f 57/17/5 63/18/5 59/19/5 43/20/5
f 63/21/6 87/22/6 45/23/6 59/24/6
f 87/25/7 55/26/7 32/27/7 45/28/7
f 55/29/8 72/30/8 11/31/8 32/32/8
f 72/33/9 25/34/9 56/35/9 11/36/9
f 25/37/10 42/38/10 14/39/10 56/40/10
f 82/41/11 69/42/11 6/43/11 17/44/11
f 4/45/12 82/46/12 17/47/12 2/48/12
f 35/49/13 4/50/13 2/51/13 1/52/13
f 73/53/14 35/54/14 1/55/14 7/56/14
f 10/57/15 73/58/15 7/59/15 3/60/15
f 42/61/16 10/62/16 3/63/16 14/64/16
f 1/65/1 7/66/1 12/67/1 9/68/1
f 6/69/17 71/70/17 38/71/17 5/72/17
f 11/73/18 32/74/18 16/75/18 100/76/18
f 106/77/19 105/78/19 134/79/19 133/80/19
f 104/81/17 103/82/17 135/83/17 132/84/17
f 102/85/20 101/86/20 136/87/20 131/88/20
f 99/89/21 98/90/21 137/91/21 8/92/21
f 98/93/22 106/94/22 133/95/22 137/96/22
f 96/97/1 99/98/1 8/99/1 13/100/1
f 94/101/17 90/102/17 138/103/17 18/104/17
f 89/105/18 102/106/18 131/107/18 19/108/18
f 86/109/22 84/110/22 139/111/22 22/112/22
f 81/113/2 96/114/2 13/115/2 23/116/2
f 94/101/4 80/117/4 140/118/4 18/104/4
f 90/119/23 79/120/23 141/121/23 138/122/23
f 78/123/24 76/124/24 142/125/24 30/126/24
f 101/127/23 104/128/23 132/129/23 136/130/23
f 80/131/3 81/132/3 23/133/3 140/134/3
f 76/135/19 86/136/19 22/137/19 142/138/19
f 84/139/21 75/140/21 143/141/21 139/142/21
f 74/143/18 78/144/18 30/145/18 31/146/18
f 67/147/14 75/148/14 143/149/14 36/150/14
f 79/151/20 74/152/20 31/153/20 141/154/20
f 62/155/12 61/156/12 144/157/12 39/158/12
f 103/159/11 62/160/11 39/161/11 135/162/11
f 61/163/13 67/147/13 36/150/13 144/164/13
f 105/165/24 89/166/24 19/167/24 134/168/24
f 14/169/19 56/170/19 29/171/19 28/172/19
f 91/173/21 95/174/21 21/175/21 65/176/21
f 88/177/22 91/178/22 65/179/22 20/180/22
f 64/181/19 88/182/19 20/183/19 26/184/19
f 92/185/24 64/186/24 26/187/24 68/188/24
f 93/189/18 92/190/18 68/191/18 15/192/18
f 70/193/20 93/194/20 15/195/20 66/196/20
f 97/197/23 70/198/23 66/199/23 71/200/23
f 69/201/17 97/202/17 71/203/17 6/204/17
f 20/205/22 65/206/22 41/207/22 54/208/22
f 2/209/2 1/210/2 9/211/2 52/212/2
f 6/69/4 17/213/4 47/214/4 5/72/4
f 71/215/23 66/216/23 48/217/23 38/218/23
f 68/219/24 26/220/24 53/221/24 51/222/24
f 45/223/23 59/224/23 24/225/23 34/226/23
f 17/227/3 2/228/3 52/229/3 47/230/3
f 26/231/19 20/232/19 54/233/19 53/234/19
f 65/235/21 21/236/21 58/237/21 41/238/21
f 15/239/18 68/240/18 51/241/18 49/242/18
f 27/243/14 21/236/14 58/237/14 46/244/14
f 66/216/20 15/239/20 49/242/20 48/217/20
f 44/245/12 50/246/12 60/247/12 40/248/12
f 43/249/11 44/250/11 40/251/11 33/252/11
f 50/253/13 27/254/13 46/255/13 60/256/13
f 56/257/24 11/258/24 100/259/24 29/260/24
f 28/261/19 29/262/19 105/263/19 106/264/19
f 24/265/17 33/266/17 103/267/17 104/268/17
f 16/269/20 34/270/20 101/271/20 102/272/20
f 12/273/21 37/274/21 98/275/21 99/276/21
f 37/277/22 28/278/22 106/94/22 98/93/22
f 9/279/1 12/280/1 99/281/1 96/282/1
f 5/283/17 38/284/17 90/285/17 94/286/17
f 100/287/18 16/288/18 102/289/18 89/290/18
f 54/291/22 41/292/22 84/293/22 86/294/22
f 52/295/2 9/296/2 96/297/2 81/298/2
f 5/283/4 47/299/4 80/300/4 94/101/4
f 38/301/23 48/302/23 79/303/23 90/304/23
f 51/305/24 53/306/24 76/307/24 78/308/24
f 34/309/23 24/310/23 104/311/23 101/312/23
f 47/313/3 52/314/3 81/315/3 80/316/3
f 53/317/19 54/318/19 86/319/19 76/320/19
f 41/321/21 58/322/21 75/323/21 84/324/21
f 49/325/18 51/326/18 78/327/18 74/328/18
f 46/329/14 58/330/14 75/331/14 67/332/14
f 48/333/20 49/334/20 74/335/20 79/336/20
f 59/337/17 43/338/17 33/339/17 24/340/17
f 32/341/20 45/342/20 34/343/20 16/344/20
f 7/345/21 3/346/21 37/347/21 12/348/21
f 3/349/22 14/350/22 28/351/22 37/352/22
f 40/353/12 60/354/12 61/355/12 62/356/12
f 33/357/11 40/358/11 62/359/11 103/360/11
f 60/361/13 46/329/13 67/332/13 61/362/13
f 29/363/24 100/364/24 89/365/24 105/366/24
f 133/367/19 134/368/19 125/369/19 113/370/19
f 132/371/17 135/372/17 121/373/17 126/374/17
f 131/375/20 136/376/20 123/377/20 120/378/20
f 8/379/21 137/380/21 109/381/21 111/382/21
f 137/96/22 133/383/22 113/384/22 109/385/22
f 13/386/1 8/387/1 111/388/1 107/389/1
f 18/390/17 138/391/17 130/392/17 110/393/17
f 19/394/18 131/395/18 120/396/18 112/397/18
f 22/398/22 139/399/22 127/400/22 116/401/22
f 23/402/2 13/403/2 107/404/2 108/405/2
f 18/390/4 140/406/4 115/407/4 110/393/4
f 138/408/23 141/409/23 128/410/23 130/411/23
f 30/412/24 142/413/24 118/414/24 129/415/24
f 136/416/23 132/417/23 126/418/23 123/419/23
f 140/420/3 23/421/3 108/422/3 115/423/3
f 142/424/19 22/425/19 116/426/19 118/427/19
f 139/428/21 143/429/21 117/430/21 127/431/21
f 31/432/18 30/433/18 129/434/18 114/435/18
f 36/436/14 143/437/14 117/438/14 119/439/14
f 141/440/20 31/441/20 114/442/20 128/443/20
f 39/444/12 144/445/12 124/446/12 122/447/12
f 135/448/11 39/449/11 122/450/11 121/451/11
f 144/452/13 36/436/13 119/439/13 124/453/13
f 134/454/24 19/455/24 112/456/24 125/457/24
