# Blender v2.82 (sub 7) OBJ File: 'LoungeAndOfficeCollodoubeWalPAPERl.blend'
# www.blender.org
mtllib LoungeAndOfficeCollodoubeWalPAPERl.mtl
o Cube.001
v -0.493547 -0.000037 -1.026003
v -1.993546 0.499963 -1.026003
v -1.993546 -0.000037 -1.026003
v -0.493547 0.499963 -1.026003
v -0.993547 -0.000037 -1.026003
v -1.493546 -0.000037 -1.026003
v -2.493546 -0.000037 -2.026003
v -0.993547 0.499963 -1.026003
v -0.993547 0.999963 -1.026003
v -0.493547 0.999963 -1.026003
v -2.493546 0.999963 -1.026003
v -0.493547 1.499963 -1.026003
v -0.993547 1.499963 -1.026003
v -0.493547 1.999963 -1.026003
v -2.493546 1.999963 -3.026003
v -0.993547 1.999963 -1.026003
v -1.493546 0.499963 -1.026003
v -1.993546 1.499963 -1.026003
v -1.493546 0.999963 -1.026003
v -1.993546 0.999963 -1.026003
v -1.493546 1.499963 -1.026003
v -1.493546 1.999963 -1.026003
v -1.993546 1.999963 -1.026003
v -1.493546 2.499963 -1.026003
v -2.493546 1.999963 -1.526003
v -1.993546 2.499963 -1.026003
v -2.493546 1.499963 -2.026003
v -2.493546 1.999963 -2.526003
v -2.493546 2.499963 -1.526003
v -2.493546 2.499963 -1.026003
v -2.493546 2.499963 -2.026003
v -2.493546 1.999963 -2.026003
v -2.493546 2.499963 -2.526003
v -2.493546 2.499963 -3.026003
v -2.493546 -0.000037 -1.026003
v -2.493546 0.499963 -2.026003
v -2.493546 0.499963 -1.026003
v -2.493546 -0.000037 -1.526003
v -2.493546 0.999963 -2.026003
v -2.493546 0.499963 -1.526003
v -2.493546 1.499963 -1.526003
v -2.493546 0.999963 -1.526003
v -2.493546 1.499963 -1.026003
v -2.493546 1.999963 -1.026003
v -2.493546 -0.000037 -7.526003
v -2.493546 -0.000037 -8.026003
v -2.493546 1.499963 -8.526003
v -2.493546 0.499963 -7.526003
v -2.493546 0.999963 -8.026003
v -2.493546 -0.000037 -9.526003
v -2.493546 0.499963 -8.526003
v -2.493546 0.499963 -8.026003
v -2.493546 0.999963 -7.526003
v -2.493546 1.999963 -10.026003
v -2.493546 0.499963 -9.026003
v -2.493546 1.499963 -10.026003
v -2.493546 1.499963 -7.526003
v -2.493546 -0.000037 -8.526003
v -2.493546 1.499963 -8.026003
v -2.493546 1.999963 -7.526003
v -2.493546 1.999963 -8.526003
v -2.493546 1.999963 -8.026003
v -2.493546 -0.000037 -9.026003
v -2.493546 1.999963 -9.526003
v -2.493546 0.499963 -9.526003
v -2.493546 1.999963 -9.026003
v -2.493546 0.999963 -8.526003
v -2.493546 1.499963 -9.026003
v -2.493546 0.999963 -9.026003
v -2.493546 -0.000037 -10.026003
v -2.493546 0.499963 -10.026003
v -2.493546 0.999963 -10.026003
v -2.493546 0.999963 -9.526003
v -2.493546 1.499963 -9.526003
v 4.993115 1.999963 -1.026003
v 3.493115 -0.000037 -1.026003
v 4.993115 1.499963 -1.026003
v 5.993115 0.999963 -2.026003
v 2.993115 0.499963 -1.026003
v 2.993115 -0.000037 -1.026003
v 2.993115 0.999963 -1.026003
v 3.493115 0.499963 -1.026003
v 3.493115 0.999963 -1.026003
v 5.993115 1.999963 -1.026003
v 4.493115 0.499963 -1.026003
v 2.993115 1.499963 -1.026003
v 3.993115 1.499963 -1.026003
v 3.493115 1.499963 -1.026003
v 5.493115 0.999963 -1.026003
v 2.993115 1.999963 -1.026003
v 3.493115 1.999963 -1.026003
v 4.993115 0.999963 -1.026003
v 4.493115 -0.000037 -1.026003
v 3.993115 -0.000037 -1.026003
v 3.993115 0.499963 -1.026003
v 3.993115 0.999963 -1.026003
v 4.493115 0.999963 -1.026003
v 5.493115 1.499963 -1.026003
v 4.493115 1.499963 -1.026003
v 3.993115 1.999963 -1.026003
v 4.493115 1.999963 -1.026003
v 5.493115 0.499963 -1.026003
v 5.993115 0.499963 -2.526003
v 5.993115 -0.000037 -1.026003
v 5.493115 1.999963 -1.026003
v 5.493115 -0.000037 -1.026003
v 4.993115 -0.000037 -1.026003
v 4.993115 0.499963 -1.026003
v 5.993115 -0.000037 -2.026003
v 5.993115 -0.000037 -1.526003
v 5.993115 1.499963 -6.026003
v 5.993115 0.499963 -2.026003
v 5.993115 0.499963 -1.026003
v 5.993115 0.499963 -1.526003
v 5.993115 0.999963 -1.026003
v 5.993115 0.999963 -1.526003
v 5.993115 1.499963 -1.026003
v 5.993115 1.499963 -1.526003
v 5.993115 1.999963 -1.526003
v 5.993115 1.999963 -6.026003
v 5.993115 1.999963 -5.526003
v 5.993115 1.499963 -3.026003
v 5.993115 -0.000037 -3.026003
v 5.993115 2.499963 -6.026003
v 5.993115 1.999963 -3.026003
v 5.993115 1.999963 -5.026003
v 5.993115 1.999963 -3.526003
v 5.993115 1.999963 -4.026003
v 5.993115 2.499963 -3.026003
v 5.993115 0.999963 -3.026003
v 5.993115 2.499963 -3.526003
v 5.993115 2.499963 -4.026003
v 5.993115 0.999963 -5.526003
v 5.993115 2.499963 -4.526003
v 5.993115 1.499963 -4.026003
v 5.993115 -0.000037 -5.526003
v 5.993115 2.499963 -5.026003
v 5.993115 2.499963 -5.526003
v 5.993115 1.999963 -4.526003
v 5.993115 1.499963 -4.526003
v 5.993115 -0.000037 -4.526003
v 5.993115 0.499963 -5.526003
v 5.993115 -0.000037 -3.526003
v 5.993115 -0.000037 -5.026003
v 5.993115 0.499963 -5.026003
v 5.993115 0.999963 -4.526003
v 5.993115 0.999963 -5.026003
v 5.993115 1.499963 -5.026003
v 5.993115 0.499963 -4.526003
v 5.993115 1.499963 -3.526003
v 5.993115 -0.000037 -4.026003
v 5.993115 0.499963 -3.526003
v 5.993115 0.499963 -4.026003
v 5.993115 0.999963 -6.026003
v 5.993115 0.999963 -4.026003
v 5.993115 1.499963 -5.526003
v 5.993115 0.999963 -3.526003
v 5.993115 -0.000037 -2.526003
v 5.993115 0.499963 -3.026003
v 5.993115 0.999963 -2.526003
v 5.993115 -0.000037 -6.026003
v 5.993115 0.499963 -6.026003
vt 0.499957 0.727344
vt 0.472266 0.727344
vt 0.472266 0.772656
vt 0.499957 0.772656
vt 0.472179 0.727344
vt 0.444488 0.727344
vt 0.444488 0.772656
vt 0.472179 0.772656
vt 0.499957 0.772798
vt 0.472266 0.772798
vt 0.472266 0.818111
vt 0.499957 0.818111
vt 0.472179 0.772798
vt 0.444488 0.772798
vt 0.444488 0.818111
vt 0.472179 0.818111
vt 0.499957 0.818253
vt 0.472266 0.818253
vt 0.472266 0.863565
vt 0.499957 0.863565
vt 0.472179 0.818253
vt 0.444488 0.818253
vt 0.444488 0.863565
vt 0.472179 0.863565
vt 0.499957 0.863707
vt 0.472266 0.863707
vt 0.472266 0.909020
vt 0.499957 0.909020
vt 0.472179 0.863707
vt 0.444488 0.863707
vt 0.444488 0.909020
vt 0.472179 0.909020
vt 0.444401 0.727344
vt 0.416710 0.727344
vt 0.416710 0.772656
vt 0.444401 0.772656
vt 0.583290 0.545526
vt 0.555599 0.545526
vt 0.555599 0.590838
vt 0.583290 0.590838
vt 0.444401 0.772798
vt 0.416710 0.772798
vt 0.416710 0.818111
vt 0.444401 0.818111
vt 0.583290 0.590980
vt 0.555599 0.590980
vt 0.555599 0.636293
vt 0.583290 0.636293
vt 0.388932 0.818111
vt 0.416623 0.818111
vt 0.416623 0.772798
vt 0.388932 0.772798
vt 0.583290 0.636435
vt 0.555599 0.636435
vt 0.555599 0.681747
vt 0.583290 0.681747
vt 0.388932 0.772656
vt 0.416623 0.772656
vt 0.416623 0.727344
vt 0.388932 0.727344
vt 0.583290 0.681889
vt 0.555599 0.681889
vt 0.555599 0.727202
vt 0.583290 0.727202
vt 0.305599 0.818111
vt 0.333290 0.818111
vt 0.333290 0.772798
vt 0.305599 0.772798
vt 0.305599 0.818111
vt 0.333290 0.818111
vt 0.333290 0.772798
vt 0.305599 0.772798
vt 0.305599 0.818111
vt 0.333290 0.818111
vt 0.333290 0.772798
vt 0.305599 0.772798
vt 0.305599 0.818111
vt 0.333290 0.818111
vt 0.333290 0.772798
vt 0.305599 0.772798
vt 0.305599 0.818111
vt 0.333290 0.818111
vt 0.333290 0.772798
vt 0.305599 0.772798
vt 0.305599 0.818111
vt 0.333290 0.818111
vt 0.333290 0.772798
vt 0.305599 0.772798
vt 0.500043 0.545526
vt 0.527734 0.545526
vt 0.527734 0.590838
vt 0.500043 0.590838
vt 0.527821 0.545526
vt 0.555512 0.545526
vt 0.555512 0.590838
vt 0.527821 0.590838
vt 0.500043 0.590980
vt 0.527734 0.590980
vt 0.527734 0.636293
vt 0.500043 0.636293
vt 0.527821 0.590980
vt 0.555512 0.590980
vt 0.555512 0.636293
vt 0.527821 0.636293
vt 0.500043 0.636435
vt 0.527734 0.636435
vt 0.527734 0.681747
vt 0.500043 0.681747
vt 0.527821 0.636435
vt 0.555512 0.636435
vt 0.555512 0.681747
vt 0.527821 0.681747
vt 0.500043 0.681889
vt 0.527734 0.681889
vt 0.527734 0.727202
vt 0.500043 0.727202
vt 0.527821 0.681889
vt 0.555512 0.681889
vt 0.555512 0.727202
vt 0.527821 0.727202
vt 0.555512 0.545526
vt 0.527821 0.545526
vt 0.527821 0.590838
vt 0.555512 0.590838
vt 0.527734 0.545526
vt 0.500043 0.545526
vt 0.500043 0.590838
vt 0.527734 0.590838
vt 0.555512 0.590980
vt 0.527821 0.590980
vt 0.527821 0.636293
vt 0.555512 0.636293
vt 0.527734 0.590980
vt 0.500043 0.590980
vt 0.500043 0.636293
vt 0.527734 0.636293
vt 0.555512 0.636435
vt 0.527821 0.636435
vt 0.527821 0.681747
vt 0.555512 0.681747
vt 0.527734 0.636435
vt 0.500043 0.636435
vt 0.500043 0.681747
vt 0.527734 0.681747
vt 0.555512 0.681889
vt 0.527821 0.681889
vt 0.527821 0.727202
vt 0.555512 0.727202
vt 0.527734 0.681889
vt 0.500043 0.681889
vt 0.500043 0.727202
vt 0.527734 0.727202
vt 0.638846 0.545526
vt 0.611154 0.545526
vt 0.611154 0.590838
vt 0.638846 0.590838
vt 0.638846 0.545526
vt 0.611154 0.545526
vt 0.611154 0.590838
vt 0.638846 0.590838
vt 0.638846 0.590980
vt 0.611154 0.590980
vt 0.611154 0.636293
vt 0.638846 0.636293
vt 0.638846 0.590980
vt 0.611154 0.590980
vt 0.611154 0.636293
vt 0.638846 0.636293
vt 0.638846 0.636435
vt 0.611154 0.636435
vt 0.611154 0.681747
vt 0.638846 0.681747
vt 0.638846 0.636435
vt 0.611154 0.636435
vt 0.611154 0.681747
vt 0.638846 0.681747
vt 0.638846 0.681889
vt 0.611154 0.681889
vt 0.611154 0.727202
vt 0.638846 0.727202
vt 0.638846 0.681889
vt 0.611154 0.681889
vt 0.611154 0.727202
vt 0.638846 0.727202
vt 0.583290 0.545526
vt 0.555599 0.545526
vt 0.555599 0.590838
vt 0.583290 0.590838
vt 0.583290 0.590980
vt 0.555599 0.590980
vt 0.555599 0.636293
vt 0.583290 0.636293
vt 0.583290 0.636435
vt 0.555599 0.636435
vt 0.555599 0.681747
vt 0.583290 0.681747
vt 0.583290 0.681889
vt 0.555599 0.681889
vt 0.555599 0.727202
vt 0.583290 0.727202
vt 0.500043 0.545526
vt 0.527734 0.545526
vt 0.527734 0.590838
vt 0.500043 0.590838
vt 0.527821 0.545526
vt 0.555512 0.545526
vt 0.555512 0.590838
vt 0.527821 0.590838
vt 0.500043 0.590980
vt 0.527734 0.590980
vt 0.527734 0.636293
vt 0.500043 0.636293
vt 0.527821 0.590980
vt 0.555512 0.590980
vt 0.555512 0.636293
vt 0.527821 0.636293
vt 0.500043 0.636435
vt 0.527734 0.636435
vt 0.527734 0.681747
vt 0.500043 0.681747
vt 0.527821 0.636435
vt 0.555512 0.636435
vt 0.555512 0.681747
vt 0.527821 0.681747
vt 0.500043 0.681889
vt 0.527734 0.681889
vt 0.527734 0.727202
vt 0.500043 0.727202
vt 0.527821 0.681889
vt 0.555512 0.681889
vt 0.555512 0.727202
vt 0.527821 0.727202
vt 0.499957 0.727344
vt 0.472266 0.727344
vt 0.472266 0.772656
vt 0.499957 0.772656
vt 0.472179 0.727344
vt 0.444488 0.727344
vt 0.444488 0.772656
vt 0.472179 0.772656
vt 0.499957 0.772798
vt 0.472266 0.772798
vt 0.472266 0.818111
vt 0.499957 0.818111
vt 0.472179 0.772798
vt 0.444488 0.772798
vt 0.444488 0.818111
vt 0.472179 0.818111
vt 0.472266 0.772798
vt 0.499957 0.772798
vt 0.444488 0.772798
vt 0.472179 0.772798
vt 0.499957 0.772656
vt 0.472266 0.772656
vt 0.472266 0.727344
vt 0.499957 0.727344
vt 0.472179 0.772656
vt 0.444488 0.772656
vt 0.444488 0.727344
vt 0.472179 0.727344
vt 0.444488 0.818111
vt 0.472179 0.818111
vt 0.472179 0.772798
vt 0.444488 0.772798
vt 0.472266 0.818111
vt 0.472266 0.772798
vt 0.444488 0.772656
vt 0.472179 0.772656
vt 0.472179 0.727344
vt 0.444488 0.727344
vt 0.472266 0.772656
vt 0.472266 0.727344
vt 0.444488 0.727344
vt 0.472179 0.727344
vt 0.472179 0.772656
vt 0.444488 0.772656
vt 0.472266 0.727344
vt 0.472266 0.772656
vt 0.444488 0.772798
vt 0.472179 0.772798
vt 0.472266 0.772798
vt 0.499957 0.727344
vt 0.472266 0.727344
vt 0.472266 0.772656
vt 0.499957 0.772656
vt 0.472179 0.727344
vt 0.472179 0.772656
vt 0.499957 0.772798
vt 0.472266 0.772798
vt 0.472266 0.818111
vt 0.499957 0.818111
vt 0.472179 0.772798
vt 0.472179 0.818111
vt 0.527734 0.636435
vt 0.500043 0.636435
vt 0.500043 0.681747
vt 0.527734 0.681747
vt 0.527734 0.681889
vt 0.500043 0.681889
vt 0.500043 0.727202
vt 0.527734 0.727202
vt 0.527734 0.636435
vt 0.500043 0.636435
vt 0.500043 0.681747
vt 0.527734 0.681747
vt 0.527734 0.681889
vt 0.500043 0.681889
vt 0.500043 0.727202
vt 0.527734 0.727202
vt 0.500043 0.636435
vt 0.527734 0.636435
vt 0.527734 0.681747
vt 0.500043 0.681747
vt 0.500043 0.681889
vt 0.527734 0.681889
vt 0.527734 0.727202
vt 0.500043 0.727202
vt 0.388932 0.863707
vt 0.416623 0.863707
vt 0.416623 0.909020
vt 0.388932 0.909020
vt 0.388932 0.863707
vt 0.416623 0.863707
vt 0.416623 0.909020
vt 0.388932 0.909020
vt 0.388932 0.863707
vt 0.416623 0.863707
vt 0.416623 0.909020
vt 0.388932 0.909020
vt 0.388932 0.863707
vt 0.416623 0.863707
vt 0.416623 0.909020
vt 0.388932 0.909020
vt 0.388932 0.727344
vt 0.416623 0.727344
vt 0.416623 0.772656
vt 0.388932 0.772656
vt 0.388932 0.772798
vt 0.416623 0.772798
vt 0.416623 0.818111
vt 0.388932 0.818111
vt 0.388932 0.818253
vt 0.416623 0.818253
vt 0.416623 0.863565
vt 0.388932 0.863565
vt 0.388932 0.727344
vt 0.416623 0.727344
vt 0.416623 0.772656
vt 0.388932 0.772656
vt 0.388932 0.772798
vt 0.416623 0.772798
vt 0.416623 0.818111
vt 0.388932 0.818111
vt 0.388932 0.818253
vt 0.416623 0.818253
vt 0.416623 0.863565
vt 0.388932 0.863565
vt 0.388932 0.727344
vt 0.416623 0.727344
vt 0.416623 0.772656
vt 0.388932 0.772656
vt 0.388932 0.772798
vt 0.416623 0.772798
vt 0.416623 0.818111
vt 0.388932 0.818111
vt 0.388932 0.818253
vt 0.416623 0.818253
vt 0.416623 0.863565
vt 0.388932 0.863565
vt 0.388932 0.727344
vt 0.416623 0.727344
vt 0.416623 0.772656
vt 0.388932 0.772656
vt 0.388932 0.772798
vt 0.416623 0.772798
vt 0.416623 0.818111
vt 0.388932 0.818111
vt 0.388932 0.818253
vt 0.416623 0.818253
vt 0.416623 0.863565
vt 0.388932 0.863565
vt 0.388932 0.772798
vt 0.416623 0.772798
vt 0.416623 0.818111
vt 0.388932 0.818111
vt 0.388932 0.772798
vt 0.416623 0.772798
vt 0.416623 0.818111
vt 0.388932 0.818111
vt 0.388932 0.772798
vt 0.416623 0.772798
vt 0.416623 0.818111
vt 0.388932 0.818111
vt 0.388932 0.772798
vt 0.416623 0.772798
vt 0.416623 0.818111
vt 0.388932 0.818111
vt 0.444488 0.818253
vt 0.472179 0.818253
vt 0.472179 0.863565
vt 0.444488 0.863565
vt 0.500043 0.590980
vt 0.527734 0.590980
vt 0.527734 0.636293
vt 0.500043 0.636293
vt 0.527734 0.636435
vt 0.500043 0.636435
vt 0.500043 0.681747
vt 0.527734 0.681747
vt 0.527734 0.636435
vt 0.500043 0.636435
vt 0.500043 0.681747
vt 0.527734 0.681747
vt 0.500043 0.545526
vt 0.527734 0.545526
vt 0.527734 0.590838
vt 0.500043 0.590838
vt 0.527821 0.545526
vt 0.555512 0.545526
vt 0.555512 0.590838
vt 0.527821 0.590838
vt 0.527821 0.590980
vt 0.555512 0.590980
vt 0.555512 0.636293
vt 0.527821 0.636293
vt 0.472179 0.909020
vt 0.444488 0.909020
vt 0.444488 0.863707
vt 0.472179 0.863707
vn 0.0000 0.0000 -1.0000
vn 1.0000 -0.0000 0.0000
vn -1.0000 0.0000 0.0000
usemtl 0LoungeOfficeWallpapersDestroyed
s off
f 1/1/1 5/2/1 8/3/1 4/4/1
f 5/5/1 6/6/1 17/7/1 8/8/1
f 4/9/1 8/10/1 9/11/1 10/12/1
f 8/13/1 17/14/1 19/15/1 9/16/1
f 10/17/1 9/18/1 13/19/1 12/20/1
f 9/21/1 19/22/1 21/23/1 13/24/1
f 12/25/1 13/26/1 16/27/1 14/28/1
f 13/29/1 21/30/1 22/31/1 16/32/1
f 6/33/1 3/34/1 2/35/1 17/36/1
f 3/37/1 35/38/1 37/39/1 2/40/1
f 17/41/1 2/42/1 20/43/1 19/44/1
f 2/45/1 37/46/1 11/47/1 20/48/1
f 19/49/1 20/50/1 18/51/1 21/52/1
f 20/53/1 11/54/1 43/55/1 18/56/1
f 21/57/1 18/58/1 23/59/1 22/60/1
f 18/61/1 43/62/1 44/63/1 23/64/1
f 22/65/1 23/66/1 26/67/1 24/68/1
f 23/69/1 44/70/1 30/71/1 26/72/1
f 44/73/2 25/74/2 29/75/2 30/76/2
f 25/77/2 32/78/2 31/79/2 29/80/2
f 32/81/2 28/82/2 33/83/2 31/84/2
f 28/85/2 15/86/2 34/87/2 33/88/2
f 35/89/2 38/90/2 40/91/2 37/92/2
f 38/93/2 7/94/2 36/95/2 40/96/2
f 37/97/2 40/98/2 42/99/2 11/100/2
f 40/101/2 36/102/2 39/103/2 42/104/2
f 11/105/2 42/106/2 41/107/2 43/108/2
f 42/109/2 39/110/2 27/111/2 41/112/2
f 43/113/2 41/114/2 25/115/2 44/116/2
f 41/117/2 27/118/2 32/119/2 25/120/2
f 45/121/2 46/122/2 52/123/2 48/124/2
f 46/125/2 58/126/2 51/127/2 52/128/2
f 48/129/2 52/130/2 49/131/2 53/132/2
f 52/133/2 51/134/2 67/135/2 49/136/2
f 53/137/2 49/138/2 59/139/2 57/140/2
f 49/141/2 67/142/2 47/143/2 59/144/2
f 57/145/2 59/146/2 62/147/2 60/148/2
f 59/149/2 47/150/2 61/151/2 62/152/2
f 58/153/2 63/154/2 55/155/2 51/156/2
f 63/157/2 50/158/2 65/159/2 55/160/2
f 51/161/2 55/162/2 69/163/2 67/164/2
f 55/165/2 65/166/2 73/167/2 69/168/2
f 67/169/2 69/170/2 68/171/2 47/172/2
f 69/173/2 73/174/2 74/175/2 68/176/2
f 47/177/2 68/178/2 66/179/2 61/180/2
f 68/181/2 74/182/2 64/183/2 66/184/2
f 50/185/2 70/186/2 71/187/2 65/188/2
f 65/189/2 71/190/2 72/191/2 73/192/2
f 73/193/2 72/194/2 56/195/2 74/196/2
f 74/197/2 56/198/2 54/199/2 64/200/2
f 94/201/1 76/202/1 82/203/1 95/204/1
f 76/205/1 80/206/1 79/207/1 82/208/1
f 95/209/1 82/210/1 83/211/1 96/212/1
f 82/213/1 79/214/1 81/215/1 83/216/1
f 96/217/1 83/218/1 88/219/1 87/220/1
f 83/221/1 81/222/1 86/223/1 88/224/1
f 87/225/1 88/226/1 91/227/1 100/228/1
f 88/229/1 86/230/1 90/231/1 91/232/1
f 107/233/1 93/234/1 85/235/1 108/236/1
f 93/237/1 94/238/1 95/239/1 85/240/1
f 108/241/1 85/242/1 97/243/1 92/244/1
f 85/245/1 95/246/1 96/247/1 97/248/1
f 92/244/1 97/243/1 99/249/1 77/250/1
f 97/248/1 96/247/1 87/251/1 99/252/1
f 77/253/1 99/254/1 101/255/1 75/256/1
f 99/257/1 87/258/1 100/259/1 101/260/1
f 115/261/1 89/262/1 98/263/1 117/264/1
f 89/265/1 92/244/1 77/250/1 98/266/1
f 117/267/1 98/268/1 105/269/1 84/270/1
f 98/271/1 77/253/1 75/256/1 105/272/1
f 104/273/1 106/274/1 102/275/1 113/276/1
f 106/277/1 107/233/1 108/236/1 102/278/1
f 113/279/1 102/280/1 89/262/1 115/261/1
f 102/281/1 108/241/1 92/244/1 89/265/1
f 109/282/3 110/283/3 114/284/3 112/285/3
f 110/286/3 104/273/3 113/276/3 114/287/3
f 112/288/3 114/289/3 116/290/3 78/291/3
f 114/292/3 113/279/3 115/261/3 116/293/3
f 116/294/3 115/295/3 117/296/3 118/297/3
f 118/298/3 117/299/3 84/300/3 119/301/3
f 111/302/3 156/303/3 121/304/3 120/305/3
f 120/306/3 121/307/3 138/308/3 124/309/3
f 150/310/3 122/311/3 125/312/3 127/313/3
f 127/314/3 125/315/3 129/316/3 131/317/3
f 128/318/3 127/319/3 131/320/3 132/321/3
f 139/322/3 128/323/3 132/324/3 134/325/3
f 126/326/3 139/327/3 134/328/3 137/329/3
f 121/330/3 126/331/3 137/332/3 138/333/3
f 136/334/3 144/335/3 145/336/3 142/337/3
f 142/338/3 145/339/3 147/340/3 133/341/3
f 133/342/3 147/343/3 148/344/3 156/345/3
f 144/346/3 141/347/3 149/348/3 145/349/3
f 145/350/3 149/351/3 146/352/3 147/353/3
f 147/354/3 146/355/3 140/356/3 148/357/3
f 141/358/3 151/359/3 153/360/3 149/361/3
f 149/362/3 153/363/3 155/364/3 146/365/3
f 146/366/3 155/367/3 135/368/3 140/369/3
f 151/370/3 143/371/3 152/372/3 153/373/3
f 153/374/3 152/375/3 157/376/3 155/377/3
f 155/378/3 157/379/3 150/380/3 135/381/3
f 135/382/3 150/383/3 127/384/3 128/385/3
f 140/386/3 135/387/3 128/388/3 139/389/3
f 148/390/3 140/391/3 139/392/3 126/393/3
f 156/394/3 148/395/3 126/396/3 121/397/3
f 157/398/3 130/399/3 122/400/3 150/401/3
f 152/402/3 159/403/3 130/404/3 157/405/3
f 154/406/3 133/407/3 156/408/3 111/409/3
f 162/410/3 142/411/3 133/412/3 154/413/3
f 143/414/3 123/415/3 159/416/3 152/417/3
f 123/418/3 158/419/3 103/420/3 159/421/3
f 159/422/3 103/423/3 160/424/3 130/425/3
f 161/426/3 136/427/3 142/428/3 162/429/3
