# Blender v2.82 (sub 7) OBJ File: 'newBoardTerminal.blend'
# www.blender.org
mtllib newBoardTerminal.mtl
o Cube
v -0.204844 0.000000 -0.624984
v -0.250000 0.000000 0.185709
v -0.447912 0.875520 0.000000
v -0.447912 0.875520 0.185709
v -0.369033 0.638290 0.000000
v 0.045156 0.250000 -0.624984
v -0.318280 0.466946 0.371418
v 0.045156 0.250000 -0.374984
v -0.369033 0.638290 -0.185709
v -0.318280 0.466946 0.000000
v 0.000000 0.000000 0.371418
v 0.045156 0.500000 -0.374984
v -0.239401 0.229715 0.000000
v -0.369033 0.638290 -0.371418
v -0.318280 0.466946 0.185709
v -0.250000 0.000000 0.371418
v -0.447912 0.875520 -0.371418
v 0.000000 0.000000 0.185709
v -0.239401 0.229715 -0.185709
v 0.045156 0.000000 -0.374984
v -0.250000 0.000000 0.000000
v -0.447912 0.875520 0.371418
v -0.369033 0.638290 0.371418
v -0.250000 0.000000 -0.185709
v -0.210681 0.954399 0.000000
v -0.239401 0.229715 0.371418
v -0.210681 0.954399 -0.371418
v -0.250000 0.000000 -0.371418
v 0.000000 0.000000 0.000000
v -0.318280 0.466946 -0.185709
v -0.239401 0.229715 0.185709
v -0.210681 0.954399 -0.185709
v -0.447912 0.875520 -0.185709
v -0.210681 0.954399 0.185709
v -0.002171 0.308594 0.371418
v -0.210681 0.954399 0.371418
v -0.204844 0.250000 -0.374984
v -0.131803 0.717168 -0.371418
v -0.204844 0.500000 -0.624984
v -0.239401 0.229715 -0.371418
v -0.131803 0.717168 0.371418
v -0.081049 0.545824 -0.371418
v -0.002171 0.308594 -0.371418
v 0.045156 0.000000 -0.624984
v -0.002171 0.308594 -0.185709
v -0.002171 0.308594 0.185709
v -0.002171 0.308594 0.000000
v 0.000000 0.000000 -0.185709
v 0.000000 0.000000 -0.371418
v -0.081049 0.545824 0.371418
v -0.369033 0.638290 0.185709
v 0.045156 0.500000 -0.624984
v -0.318280 0.466946 -0.371418
v -0.204844 0.000000 -0.374984
v -0.204844 0.500000 -0.374984
v -0.204844 0.250000 -0.624984
v -0.418349 0.786609 -0.185709
v -0.418349 0.786609 -0.371418
v -0.181119 0.865487 0.000000
v -0.418349 0.786609 0.371418
v -0.181119 0.865487 0.371418
v -0.181119 0.865487 -0.371418
v -0.418349 0.786609 0.000000
v -0.181119 0.865487 0.185709
v -0.181119 0.865487 -0.185709
v -0.418349 0.786609 0.185709
v -0.268773 0.318053 0.185709
v -0.268773 0.318053 -0.371418
v -0.268773 0.318053 -0.185709
v -0.268773 0.318053 0.000000
v -0.031543 0.396931 0.371418
v -0.031543 0.396931 -0.185709
v -0.031543 0.396931 -0.371418
v -0.031543 0.396931 0.000000
v -0.031543 0.396931 0.185709
v -0.268773 0.318053 0.371418
v -0.318280 0.466946 0.278564
v 0.000000 0.000000 0.278564
v -0.210681 0.954399 0.278564
v -0.250000 0.000000 0.278564
v -0.081049 0.545824 0.278564
v -0.002171 0.308594 0.278564
v -0.447912 0.875520 0.278564
v -0.131803 0.717168 0.278564
v -0.369033 0.638290 0.278564
v -0.239401 0.229715 0.278564
v -0.181119 0.865487 0.278564
v -0.418349 0.786609 0.278564
v -0.031543 0.396931 0.278564
v -0.268773 0.318053 0.278564
v -0.318280 0.466946 -0.278564
v 0.000000 0.000000 -0.278564
v -0.210681 0.954399 -0.278564
v -0.131803 0.717168 -0.278564
v -0.239401 0.229715 -0.278564
v -0.081049 0.545824 -0.278564
v -0.002171 0.308594 -0.278564
v -0.447912 0.875520 -0.278564
v -0.250000 0.000000 -0.278564
v -0.369033 0.638290 -0.278564
v -0.181119 0.865487 -0.278564
v -0.418349 0.786609 -0.278564
v -0.031543 0.396931 -0.278564
v -0.268773 0.318053 -0.278564
vt 0.187305 0.166927
vt 0.125195 0.166927
vt 0.125195 0.249740
vt 0.187305 0.249740
vt 0.343750 0.666927
vt 0.281250 0.666927
vt 0.281250 0.749740
vt 0.343750 0.749740
vt 0.187305 0.208333
vt 0.125195 0.208333
vt 0.125195 0.249740
vt 0.187305 0.249740
vt 0.468848 0.968702
vt 0.437695 0.968702
vt 0.437695 0.999740
vt 0.468750 0.999740
vt 0.562500 0.968702
vt 0.500000 0.968702
vt 0.500195 0.999740
vt 0.562305 0.999740
vt 0.625000 0.968702
vt 0.562695 0.999740
vt 0.624805 0.999740
vt 0.656152 0.968702
vt 0.625195 0.999740
vt 0.656250 0.999740
vt 0.468750 0.833333
vt 0.437695 0.833594
vt 0.437695 0.916406
vt 0.468750 0.916667
vt 0.562305 0.833594
vt 0.500195 0.833594
vt 0.500195 0.916406
vt 0.562305 0.916406
vt 0.624805 0.833594
vt 0.562695 0.833594
vt 0.562695 0.916406
vt 0.624805 0.916406
vt 0.656250 0.833333
vt 0.625195 0.833594
vt 0.625195 0.916406
vt 0.656250 0.916667
vt 0.468848 0.781097
vt 0.437695 0.781097
vt 0.437695 0.833073
vt 0.562305 0.583594
vt 0.500195 0.583594
vt 0.500195 0.666406
vt 0.562305 0.666406
vt 0.562305 0.333594
vt 0.500195 0.333594
vt 0.500195 0.416406
vt 0.562305 0.416406
vt 0.562500 0.781097
vt 0.500000 0.781097
vt 0.500195 0.833073
vt 0.562305 0.833073
vt 0.625000 0.781097
vt 0.562695 0.833073
vt 0.624805 0.833073
vt 0.656152 0.781097
vt 0.625195 0.833073
vt 0.468750 0.666927
vt 0.437695 0.666927
vt 0.437695 0.749740
vt 0.468750 0.750000
vt 0.562305 0.666927
vt 0.500195 0.666927
vt 0.500195 0.749740
vt 0.562305 0.749740
vt 0.624805 0.666927
vt 0.562695 0.666927
vt 0.562695 0.749740
vt 0.624805 0.749740
vt 0.656250 0.666927
vt 0.625195 0.666927
vt 0.625195 0.749740
vt 0.656250 0.750000
vt 0.562305 0.625000
vt 0.500195 0.625000
vt 0.500195 0.666406
vt 0.562305 0.666406
vt 0.562305 0.500260
vt 0.500195 0.500260
vt 0.500195 0.583073
vt 0.562305 0.583073
vt 0.562305 0.583594
vt 0.500195 0.583594
vt 0.500195 0.666406
vt 0.562305 0.666406
vt 0.562305 0.333594
vt 0.500195 0.333594
vt 0.500195 0.416406
vt 0.562305 0.416406
vt 0.562305 0.416927
vt 0.500195 0.416927
vt 0.500195 0.499740
vt 0.562305 0.499740
vt 0.562305 0.375000
vt 0.500195 0.375000
vt 0.500195 0.416406
vt 0.562305 0.416406
vt 0.562305 0.583594
vt 0.500195 0.583594
vt 0.500195 0.666406
vt 0.562305 0.666406
vt 0.562305 0.333594
vt 0.500195 0.333594
vt 0.500195 0.416406
vt 0.562305 0.416406
vt 0.562305 0.583594
vt 0.500195 0.583594
vt 0.500195 0.666406
vt 0.562305 0.666406
vt 0.499805 0.635369
vt 0.437695 0.635369
vt 0.437695 0.666406
vt 0.499805 0.666406
vt 0.499805 0.500260
vt 0.437695 0.500260
vt 0.437695 0.583073
vt 0.499805 0.583073
vt 0.499805 0.447764
vt 0.437695 0.447764
vt 0.437695 0.499740
vt 0.499805 0.499740
vt 0.499805 0.333594
vt 0.437695 0.333594
vt 0.437695 0.416406
vt 0.499805 0.416406
vt 0.499805 0.635369
vt 0.437695 0.635369
vt 0.437695 0.666406
vt 0.499805 0.666406
vt 0.499805 0.500260
vt 0.437695 0.500260
vt 0.437695 0.583073
vt 0.499805 0.583073
vt 0.562305 0.333594
vt 0.500195 0.333594
vt 0.500195 0.416406
vt 0.562305 0.416406
vt 0.499805 0.447764
vt 0.437695 0.447764
vt 0.437695 0.499740
vt 0.499805 0.499740
vt 0.187305 0.208333
vt 0.125195 0.208333
vt 0.125195 0.249740
vt 0.187305 0.249740
vt 0.499805 0.333594
vt 0.437695 0.333594
vt 0.437695 0.416406
vt 0.499805 0.416406
vt 0.218848 0.968702
vt 0.187695 0.968702
vt 0.187695 0.999740
vt 0.218750 0.999740
vt 0.187305 0.166927
vt 0.125195 0.166927
vt 0.125195 0.249740
vt 0.187305 0.249740
vt 0.312500 0.968702
vt 0.250000 0.968702
vt 0.250195 0.999740
vt 0.312305 0.999740
vt 0.375000 0.968702
vt 0.312695 0.999740
vt 0.374805 0.999740
vt 0.406152 0.968702
vt 0.375195 0.999740
vt 0.406250 0.999740
vt 0.218750 0.833333
vt 0.187695 0.833594
vt 0.187695 0.916406
vt 0.218750 0.916667
vt 0.218848 0.781097
vt 0.187695 0.781097
vt 0.187695 0.833073
vt 0.218750 0.666927
vt 0.187695 0.666927
vt 0.187695 0.749740
vt 0.218750 0.750000
vt 0.312305 0.666927
vt 0.250195 0.666927
vt 0.250195 0.749740
vt 0.312305 0.749740
vt 0.374805 0.666927
vt 0.312695 0.666927
vt 0.312695 0.749740
vt 0.374805 0.749740
vt 0.406250 0.666927
vt 0.375195 0.666927
vt 0.375195 0.749740
vt 0.406250 0.750000
vt 0.187695 0.916927
vt 0.499805 0.583594
vt 0.437695 0.583594
vt 0.499805 0.583594
vt 0.437695 0.583594
vt 0.625195 0.916927
vt 0.624805 0.916927
vt 0.562695 0.916927
vt 0.562305 0.916927
vt 0.500195 0.916927
vt 0.437695 0.916927
vt 0.375195 0.750260
vt 0.375000 0.781097
vt 0.406152 0.781097
vt 0.374805 0.750260
vt 0.312695 0.750260
vt 0.312500 0.781097
vt 0.312305 0.750260
vt 0.250195 0.750260
vt 0.250000 0.781097
vt 0.187695 0.750260
vt 0.499805 0.416927
vt 0.437695 0.416927
vt 0.499805 0.416927
vt 0.437695 0.416927
vt 0.625195 0.750260
vt 0.624805 0.750260
vt 0.562695 0.750260
vt 0.562305 0.750260
vt 0.500195 0.750260
vt 0.437695 0.750260
vt 0.499805 0.750260
vt 0.437305 0.750260
vt 0.437305 0.781097
vt 0.499805 0.916927
vt 0.437305 0.916927
vt 0.406250 0.916667
vt 0.437305 0.968702
vt 0.437305 0.666927
vt 0.437305 0.749740
vt 0.406250 0.833333
vt 0.437305 0.833073
vt 0.437305 0.833594
vt 0.437305 0.916406
vt 0.437305 0.999740
vt 0.562305 0.333594
vt 0.500195 0.333594
vt 0.499805 0.666927
vt 0.499805 0.749740
vt 0.499805 0.833073
vt 0.499805 0.833594
vt 0.499805 0.916406
vt 0.499805 0.999740
vt 0.187305 0.166927
vt 0.125195 0.166927
vt 0.687305 0.750260
vt 0.687305 0.781097
vt 0.249805 0.750260
vt 0.687305 0.916927
vt 0.687305 0.968702
vt 0.249805 0.666927
vt 0.249805 0.749740
vt 0.249805 0.999740
vt 0.187305 0.166927
vt 0.125195 0.166927
vt 0.562305 0.583594
vt 0.500195 0.583594
vt 0.687305 0.666927
vt 0.687305 0.749740
vt 0.687305 0.833073
vt 0.687305 0.833594
vt 0.687305 0.916406
vt 0.687305 0.999740
vn 0.0000 -1.0000 0.0000
vn 0.0000 1.0000 0.0000
vn -0.9489 -0.3155 0.0000
vn -0.9588 -0.2840 0.0000
vn 0.0000 0.0000 -1.0000
vn -0.9989 0.0461 0.0000
vn -0.3155 0.9489 0.0000
vn 1.0000 0.0000 0.0000
vn -1.0000 0.0000 0.0000
vn 0.0000 0.0000 1.0000
vn 0.9489 0.3155 0.0000
vn 0.9588 0.2840 0.0000
vn 1.0000 0.0070 0.0000
usemtl NoticeboardTerminal
s off
f 21/1/1 29/2/1 18/3/1 2/4/1
f 12/5/2 52/6/2 39/7/2 55/8/2
f 80/9/1 78/10/1 11/11/1 16/12/1
f 88/13/3 60/14/3 22/15/3 83/16/3
f 63/17/3 66/18/3 4/19/3 3/20/3
f 57/21/3 63/17/3 3/22/3 33/23/3
f 102/24/3 57/21/3 33/25/3 98/26/3
f 77/27/4 7/28/4 23/29/4 85/30/4
f 10/31/4 15/32/4 51/33/4 5/34/4
f 30/35/4 10/36/4 5/37/4 9/38/4
f 91/39/4 30/40/4 9/41/4 100/42/4
f 90/43/3 76/44/3 7/45/3 77/27/3
f 6/46/5 56/47/5 39/48/5 52/49/5
f 44/50/5 1/51/5 56/52/5 6/53/5
f 70/54/3 67/55/3 15/56/3 10/57/3
f 69/58/3 70/54/3 10/59/3 30/60/3
f 104/61/3 69/58/3 30/62/3 91/39/3
f 80/63/6 16/64/6 26/65/6 86/66/6
f 21/67/6 2/68/6 31/69/6 13/70/6
f 24/71/6 21/72/6 13/73/6 19/74/6
f 99/75/6 24/76/6 19/77/6 95/78/6
f 98/79/7 93/80/7 27/81/7 17/82/7
f 3/83/7 25/84/7 32/85/7 33/86/7
f 8/87/8 6/88/8 52/89/8 12/90/8
f 20/91/8 44/92/8 6/93/8 8/94/8
f 4/95/7 34/96/7 25/97/7 3/98/7
f 83/99/7 79/100/7 34/101/7 4/102/7
f 56/103/9 37/104/9 55/105/9 39/106/9
f 1/107/9 54/108/9 37/109/9 56/110/9
f 37/111/10 8/112/10 12/113/10 55/114/10
f 60/115/10 61/116/10 36/117/10 22/118/10
f 7/119/10 50/120/10 41/121/10 23/122/10
f 76/123/10 71/124/10 50/125/10 7/126/10
f 16/127/10 11/128/10 35/129/10 26/130/10
f 62/131/5 58/132/5 17/133/5 27/134/5
f 42/135/5 53/136/5 14/137/5 38/138/5
f 54/139/10 20/140/10 8/141/10 37/142/10
f 73/143/5 68/144/5 53/145/5 42/146/5
f 99/147/1 92/148/1 48/149/1 24/150/1
f 49/151/5 28/152/5 40/153/5 43/154/5
f 101/155/11 62/156/11 27/157/11 93/158/11
f 24/159/1 48/160/1 29/161/1 21/162/1
f 59/163/11 65/164/11 32/165/11 25/166/11
f 64/167/11 59/163/11 25/168/11 34/169/11
f 87/170/11 64/167/11 34/171/11 79/172/11
f 96/173/12 42/174/12 38/175/12 94/176/12
f 103/177/11 73/178/11 42/179/11 96/173/11
f 92/180/13 49/181/13 43/182/13 97/183/13
f 29/184/13 48/185/13 45/186/13 47/187/13
f 18/188/13 29/189/13 47/190/13 46/191/13
f 78/192/13 18/193/13 46/194/13 82/195/13
f 94/176/11 38/196/11 62/156/11 101/155/11
f 38/197/5 14/198/5 58/132/5 62/131/5
f 23/199/10 41/200/10 61/116/10 60/115/10
f 100/42/3 9/201/3 57/21/3 102/24/3
f 9/202/3 5/203/3 63/17/3 57/21/3
f 5/204/3 51/205/3 66/18/3 63/17/3
f 85/30/3 23/206/3 60/14/3 88/13/3
f 82/195/11 46/207/11 75/208/11 89/209/11
f 46/210/11 47/211/11 74/212/11 75/208/11
f 47/213/11 45/214/11 72/215/11 74/212/11
f 97/183/11 43/216/11 73/178/11 103/177/11
f 43/217/5 40/218/5 68/144/5 73/143/5
f 26/219/10 35/220/10 71/124/10 76/123/10
f 95/78/3 19/221/3 69/58/3 104/61/3
f 19/222/3 13/223/3 70/54/3 69/58/3
f 13/224/3 31/225/3 67/55/3 70/54/3
f 86/66/3 26/226/3 76/44/3 90/43/3
f 31/227/3 86/66/3 90/43/3 67/55/3
f 35/228/11 82/195/11 89/209/11 71/229/11
f 51/230/3 85/30/3 88/13/3 66/18/3
f 41/231/11 84/232/11 87/170/11 61/233/11
f 11/234/13 78/192/13 82/195/13 35/235/13
f 71/229/11 89/209/11 81/236/11 50/237/11
f 50/238/12 81/236/12 84/232/12 41/239/12
f 61/233/11 87/170/11 79/172/11 36/240/11
f 22/241/7 36/242/7 79/100/7 83/99/7
f 2/243/6 80/63/6 86/66/6 31/244/6
f 67/55/3 90/43/3 77/27/3 15/245/3
f 15/246/4 77/27/4 85/30/4 51/247/4
f 66/18/3 88/13/3 83/16/3 4/248/3
f 2/249/1 18/250/1 78/10/1 80/9/1
f 40/251/3 95/78/3 104/61/3 68/252/3
f 45/253/11 97/183/11 103/177/11 72/215/11
f 14/254/3 100/42/3 102/24/3 58/255/3
f 48/256/13 92/180/13 97/183/13 45/257/13
f 65/164/11 101/155/11 93/158/11 32/258/11
f 28/259/1 49/260/1 92/148/1 99/147/1
f 33/261/7 32/262/7 93/80/7 98/79/7
f 28/263/6 99/75/6 95/78/6 40/264/6
f 68/252/3 104/61/3 91/39/3 53/265/3
f 53/266/4 91/39/4 100/42/4 14/267/4
f 58/255/3 102/24/3 98/26/3 17/268/3
