# Blender v2.82 (sub 7) OBJ File: 'BarrellRoll.blend'
# www.blender.org
mtllib BarrellRoll.mtl
o Cube
v -0.349086 0.650135 -0.000000
v -0.322513 0.800271 0.133589
v 0.246841 0.650135 -0.246841
v -0.246841 0.650135 0.246841
v 0.246841 0.349865 0.246841
v -0.322513 0.500000 -0.133589
v -0.349086 0.349865 0.000000
v -0.246841 0.349865 0.246841
v -0.246841 0.800271 -0.246841
v 0.301777 1.000000 0.000000
v -0.246841 0.800271 0.246841
v 0.000000 1.000000 0.000000
v -0.000000 0.500000 -0.349086
v 0.246841 0.650135 0.246841
v -0.000000 0.650135 0.349086
v -0.246841 0.500000 0.246841
v -0.322513 0.800271 -0.133589
v 0.133589 0.500000 0.322513
v 0.133589 0.650135 0.322513
v -0.322513 0.349865 0.133590
v 0.246841 0.500000 0.246841
v -0.322513 0.650135 -0.133589
v 0.000000 0.500000 0.349086
v 0.213388 1.000000 0.213388
v -0.133589 0.500000 0.322513
v -0.133589 0.650135 0.322513
v 0.000000 0.349865 0.349086
v 0.133589 0.349865 0.322513
v -0.000000 0.199729 -0.349086
v 0.133589 0.500000 -0.322513
v 0.246841 0.199729 -0.246841
v 0.133589 0.349865 -0.322513
v -0.133590 0.349865 -0.322513
v -0.133589 0.349865 0.322513
v -0.213388 0.000000 -0.213388
v 0.349086 0.500000 -0.000000
v -0.322513 0.199729 -0.133589
v -0.000000 0.000000 -0.301777
v 0.213388 0.000000 -0.213388
v 0.133589 0.199729 0.322513
v 0.349086 0.199729 -0.000000
v -0.301777 0.000000 0.000000
v 0.301777 0.000000 -0.000000
v 0.213388 0.000000 0.213388
v 0.322513 0.199729 0.133589
v 0.000000 0.000000 0.000000
v -0.349086 0.199729 0.000000
v 0.000000 0.000000 0.301777
v 0.246841 0.199729 0.246841
v -0.322513 0.349865 -0.133589
v -0.133589 0.199729 0.322513
v -0.322513 0.199729 0.133589
v -0.213388 0.000000 0.213388
v 0.000000 0.199729 0.349086
v -0.246841 0.199729 0.246841
v -0.349086 0.500000 0.000000
v -0.322513 0.500000 0.133589
v -0.322513 0.650135 0.133589
v -0.349086 0.800271 -0.000000
v -0.246841 0.199729 -0.246841
v 0.133589 0.199729 -0.322513
v -0.133589 0.800271 -0.322513
v -0.133589 0.199729 -0.322513
v -0.246841 0.500000 -0.246841
v -0.000000 0.349865 -0.349086
v -0.246841 0.349865 -0.246841
v -0.133589 0.500000 -0.322513
v -0.246841 0.650135 -0.246841
v 0.246841 0.800271 0.246841
v -0.133589 0.650135 -0.322513
v 0.000000 0.650135 -0.349086
v 0.133589 0.650135 -0.322513
v 0.349086 0.800271 0.000000
v -0.213388 1.000000 -0.213388
v 0.000000 0.800271 -0.349086
v 0.133589 0.800271 -0.322513
v 0.322513 0.500000 0.133589
v 0.246841 0.349865 -0.246841
v 0.322513 0.349865 0.133589
v 0.322513 0.199729 -0.133589
v 0.322513 0.349865 -0.133589
v 0.349086 0.349865 -0.000000
v 0.322513 0.650135 0.133589
v 0.246841 0.500000 -0.246841
v 0.322513 0.500000 -0.133589
v 0.322513 0.650135 -0.133589
v 0.213388 1.000000 -0.213388
v 0.349086 0.650135 0.000000
v 0.322513 0.800271 -0.133589
v 0.322513 0.800271 0.133589
v 0.246841 0.800271 -0.246841
v 0.133589 0.800271 0.322513
v -0.000000 1.000000 0.301777
v -0.000000 0.800271 0.349086
v 0.000000 1.000000 -0.301777
v -0.213388 1.000000 0.213388
v -0.301777 1.000000 -0.000000
v -0.133589 0.800271 0.322513
vt 0.986154 0.750071
vt 0.999957 0.750071
vt 0.999957 0.772656
vt 0.986154 0.772656
vt 0.972266 0.750071
vt 0.986068 0.750071
vt 0.986068 0.772656
vt 0.972266 0.772656
vt 0.958377 0.750071
vt 0.972179 0.750071
vt 0.972179 0.772656
vt 0.958377 0.772656
vt 0.944488 0.750071
vt 0.958290 0.750071
vt 0.958290 0.772656
vt 0.944488 0.772656
vt 0.986154 0.727344
vt 0.999957 0.727344
vt 0.999957 0.749929
vt 0.986154 0.749929
vt 0.972266 0.727344
vt 0.986068 0.727344
vt 0.986068 0.749929
vt 0.972266 0.749929
vt 0.958377 0.727344
vt 0.972179 0.727344
vt 0.972179 0.749929
vt 0.958377 0.749929
vt 0.944488 0.727344
vt 0.958290 0.727344
vt 0.958290 0.749929
vt 0.944488 0.749929
vt 0.986154 0.795526
vt 0.999957 0.795526
vt 0.999957 0.818111
vt 0.986154 0.818111
vt 0.972266 0.795526
vt 0.986068 0.795526
vt 0.986068 0.818111
vt 0.972266 0.818111
vt 0.958377 0.795526
vt 0.972179 0.795526
vt 0.972179 0.818111
vt 0.958377 0.818111
vt 0.944488 0.795526
vt 0.958290 0.795526
vt 0.958290 0.818111
vt 0.944488 0.818111
vt 0.986154 0.772798
vt 0.999957 0.772798
vt 0.999957 0.795384
vt 0.986154 0.795384
vt 0.972266 0.772798
vt 0.986068 0.772798
vt 0.986068 0.795384
vt 0.972266 0.795384
vt 0.958377 0.772798
vt 0.972179 0.772798
vt 0.972179 0.795384
vt 0.958377 0.795384
vt 0.944488 0.772798
vt 0.958290 0.772798
vt 0.958290 0.795384
vt 0.944488 0.795384
vt 0.986154 0.750071
vt 0.999957 0.750071
vt 0.999957 0.772656
vt 0.986154 0.772656
vt 0.972266 0.750071
vt 0.986068 0.750071
vt 0.986068 0.772656
vt 0.972266 0.772656
vt 0.958377 0.750071
vt 0.972179 0.750071
vt 0.972179 0.772656
vt 0.958377 0.772656
vt 0.944488 0.750071
vt 0.958290 0.750071
vt 0.958290 0.772656
vt 0.944488 0.772656
vt 0.986154 0.727344
vt 0.999957 0.727344
vt 0.999957 0.749929
vt 0.986154 0.749929
vt 0.972266 0.727344
vt 0.986068 0.727344
vt 0.986068 0.749929
vt 0.972266 0.749929
vt 0.958377 0.727344
vt 0.972179 0.727344
vt 0.972179 0.749929
vt 0.958377 0.749929
vt 0.944488 0.727344
vt 0.958290 0.727344
vt 0.958290 0.749929
vt 0.944488 0.749929
vt 0.986154 0.795526
vt 0.999957 0.795526
vt 0.999957 0.818111
vt 0.986154 0.818111
vt 0.972266 0.795526
vt 0.986068 0.795526
vt 0.986068 0.818111
vt 0.972266 0.818111
vt 0.958377 0.795526
vt 0.972179 0.795526
vt 0.972179 0.818111
vt 0.958377 0.818111
vt 0.944488 0.795526
vt 0.958290 0.795526
vt 0.958290 0.818111
vt 0.944488 0.818111
vt 0.986154 0.772798
vt 0.999957 0.772798
vt 0.999957 0.795384
vt 0.986154 0.795384
vt 0.972266 0.772798
vt 0.986068 0.772798
vt 0.986068 0.795384
vt 0.972266 0.795384
vt 0.958377 0.772798
vt 0.972179 0.772798
vt 0.972179 0.795384
vt 0.958377 0.795384
vt 0.944488 0.772798
vt 0.958290 0.772798
vt 0.958290 0.795384
vt 0.944488 0.795384
vt 0.986154 0.750071
vt 0.999957 0.750071
vt 0.999957 0.772656
vt 0.986154 0.772656
vt 0.972266 0.750071
vt 0.986068 0.750071
vt 0.986068 0.772656
vt 0.972266 0.772656
vt 0.958377 0.750071
vt 0.972179 0.750071
vt 0.972179 0.772656
vt 0.958377 0.772656
vt 0.944488 0.750071
vt 0.958290 0.750071
vt 0.958290 0.772656
vt 0.944488 0.772656
vt 0.986154 0.727344
vt 0.999957 0.727344
vt 0.999957 0.749929
vt 0.986154 0.749929
vt 0.972266 0.727344
vt 0.986068 0.727344
vt 0.986068 0.749929
vt 0.972266 0.749929
vt 0.958377 0.727344
vt 0.972179 0.727344
vt 0.972179 0.749929
vt 0.958377 0.749929
vt 0.944488 0.727344
vt 0.958290 0.727344
vt 0.958290 0.749929
vt 0.944488 0.749929
vt 0.986154 0.795526
vt 0.999957 0.795526
vt 0.999957 0.818111
vt 0.986154 0.818111
vt 0.972266 0.795526
vt 0.986068 0.795526
vt 0.986068 0.818111
vt 0.972266 0.818111
vt 0.958377 0.795526
vt 0.972179 0.795526
vt 0.972179 0.818111
vt 0.958377 0.818111
vt 0.944488 0.795526
vt 0.958290 0.795526
vt 0.958290 0.818111
vt 0.944488 0.818111
vt 0.986154 0.772798
vt 0.999957 0.772798
vt 0.999957 0.795384
vt 0.986154 0.795384
vt 0.972266 0.772798
vt 0.986068 0.772798
vt 0.986068 0.795384
vt 0.972266 0.795384
vt 0.958377 0.772798
vt 0.972179 0.772798
vt 0.972179 0.795384
vt 0.958377 0.795384
vt 0.944488 0.772798
vt 0.958290 0.772798
vt 0.958290 0.795384
vt 0.944488 0.795384
vt 0.986154 0.750071
vt 0.999957 0.750071
vt 0.999957 0.772656
vt 0.986154 0.772656
vt 0.972266 0.750071
vt 0.986068 0.750071
vt 0.986068 0.772656
vt 0.972266 0.772656
vt 0.958377 0.750071
vt 0.972179 0.750071
vt 0.972179 0.772656
vt 0.958377 0.772656
vt 0.944488 0.750071
vt 0.958290 0.750071
vt 0.958290 0.772656
vt 0.944488 0.772656
vt 0.999957 0.749929
vt 0.986154 0.749929
vt 0.986068 0.749929
vt 0.972266 0.749929
vt 0.972179 0.749929
vt 0.958377 0.749929
vt 0.958290 0.749929
vt 0.944488 0.749929
vt 0.944488 0.772798
vt 0.958290 0.772798
vt 0.958290 0.795384
vt 0.944488 0.795384
vt 0.958377 0.772798
vt 0.972179 0.772798
vt 0.972179 0.795384
vt 0.958377 0.795384
vt 0.972266 0.772798
vt 0.986068 0.772798
vt 0.986068 0.795384
vt 0.972266 0.795384
vt 0.986154 0.772798
vt 0.999957 0.772798
vt 0.999957 0.795384
vt 0.986154 0.795384
vt 0.944488 0.795526
vt 0.958290 0.795526
vt 0.958290 0.818111
vt 0.944488 0.818111
vt 0.958377 0.795526
vt 0.972179 0.795526
vt 0.972179 0.818111
vt 0.958377 0.818111
vt 0.972266 0.795526
vt 0.986068 0.795526
vt 0.986068 0.818111
vt 0.972266 0.818111
vt 0.986154 0.795526
vt 0.999957 0.795526
vt 0.999957 0.818111
vt 0.986154 0.818111
vt 0.944488 0.727344
vt 0.958290 0.727344
vt 0.958290 0.749929
vt 0.944488 0.749929
vt 0.958377 0.727344
vt 0.972179 0.727344
vt 0.972179 0.749929
vt 0.958377 0.749929
vt 0.972266 0.727344
vt 0.986068 0.727344
vt 0.986068 0.749929
vt 0.972266 0.749929
vt 0.986154 0.727344
vt 0.999957 0.727344
vt 0.999957 0.749929
vt 0.986154 0.749929
vt 0.944488 0.750071
vt 0.958290 0.750071
vt 0.958290 0.772656
vt 0.944488 0.772656
vt 0.958377 0.750071
vt 0.972179 0.750071
vt 0.972179 0.772656
vt 0.958377 0.772656
vt 0.972266 0.750071
vt 0.986068 0.750071
vt 0.986068 0.772656
vt 0.972266 0.772656
vt 0.986154 0.750071
vt 0.999957 0.750071
vt 0.999957 0.772656
vt 0.986154 0.772656
vt 0.944488 0.772798
vt 0.958290 0.772798
vt 0.958290 0.795384
vt 0.944488 0.795384
vt 0.958377 0.772798
vt 0.972179 0.772798
vt 0.972179 0.795384
vt 0.958377 0.795384
vt 0.972266 0.772798
vt 0.986068 0.772798
vt 0.986068 0.795384
vt 0.972266 0.795384
vt 0.986154 0.772798
vt 0.999957 0.772798
vt 0.999957 0.795384
vt 0.986154 0.795384
vt 0.944488 0.795526
vt 0.958290 0.795526
vt 0.958290 0.818111
vt 0.944488 0.818111
vt 0.958377 0.795526
vt 0.972179 0.795526
vt 0.972179 0.818111
vt 0.958377 0.818111
vt 0.972266 0.795526
vt 0.986068 0.795526
vt 0.986068 0.818111
vt 0.972266 0.818111
vt 0.986154 0.795526
vt 0.999957 0.795526
vt 0.999957 0.818111
vt 0.986154 0.818111
vt 0.944488 0.727344
vt 0.958290 0.727344
vt 0.958290 0.749929
vt 0.944488 0.749929
vt 0.958377 0.727344
vt 0.972179 0.727344
vt 0.972179 0.749929
vt 0.958377 0.749929
vt 0.972266 0.727344
vt 0.986068 0.727344
vt 0.986068 0.749929
vt 0.972266 0.749929
vt 0.986154 0.727344
vt 0.999957 0.727344
vt 0.999957 0.749929
vt 0.986154 0.749929
vt 0.944488 0.750071
vt 0.958290 0.750071
vt 0.958290 0.772656
vt 0.944488 0.772656
vt 0.958377 0.750071
vt 0.972179 0.750071
vt 0.972179 0.772656
vt 0.958377 0.772656
vt 0.972266 0.750071
vt 0.986068 0.750071
vt 0.986068 0.772656
vt 0.972266 0.772656
vt 0.986154 0.750071
vt 0.999957 0.750071
vt 0.999957 0.772656
vt 0.986154 0.772656
vt 0.944488 0.772798
vt 0.958290 0.772798
vt 0.958290 0.795384
vt 0.944488 0.795384
vt 0.958377 0.772798
vt 0.972179 0.772798
vt 0.972179 0.795384
vt 0.958377 0.795384
vt 0.972266 0.772798
vt 0.986068 0.772798
vt 0.986068 0.795384
vt 0.972266 0.795384
vt 0.986154 0.772798
vt 0.999957 0.772798
vt 0.999957 0.795384
vt 0.986154 0.795384
vt 0.944488 0.795526
vt 0.958290 0.795526
vt 0.958290 0.818111
vt 0.958377 0.795526
vt 0.972179 0.795526
vt 0.958377 0.818111
vt 0.972266 0.795526
vt 0.986068 0.795526
vt 0.986068 0.818111
vt 0.986154 0.795526
vt 0.999957 0.795526
vt 0.986154 0.818111
vn -0.5556 0.0000 -0.8315
vn -0.1951 -0.0000 -0.9808
vn 0.1951 0.0000 -0.9808
vn 0.5556 0.0000 -0.8315
vn -0.8315 -0.0000 0.5556
vn -0.9808 0.0000 0.1951
vn -0.9808 0.0000 -0.1951
vn -0.8315 0.0000 -0.5556
vn 0.5556 -0.0000 0.8315
vn 0.1951 0.0000 0.9808
vn -0.1951 -0.0000 0.9808
vn -0.5556 -0.0000 0.8315
vn -0.6881 0.2305 0.6881
vn -0.3005 0.2952 0.9070
vn 0.3005 0.2952 0.9070
vn 0.6881 0.2305 0.6881
vn -0.9070 0.2952 0.3005
vn 0.0000 1.0000 0.0000
vn 0.9070 0.2952 0.3005
vn -0.9070 0.2952 -0.3005
vn 0.9070 0.2952 -0.3005
vn -0.6881 0.2305 -0.6881
vn -0.3005 0.2952 -0.9070
vn 0.3005 0.2952 -0.9070
vn 0.6881 0.2305 -0.6881
vn 0.8315 -0.0000 0.5556
vn 0.9808 -0.0000 0.1951
vn 0.9808 0.0000 -0.1951
vn 0.8315 0.0000 -0.5556
usemtl eMiscStuff
s off
f 33/1/1 66/2/1 64/3/1 67/4/1
f 65/5/2 33/6/2 67/7/2 13/8/2
f 32/9/3 65/10/3 13/11/3 30/12/3
f 78/13/4 32/14/4 30/15/4 84/16/4
f 63/17/1 60/18/1 66/19/1 33/20/1
f 29/21/2 63/22/2 33/23/2 65/24/2
f 61/25/3 29/26/3 65/27/3 32/28/3
f 31/29/4 61/30/4 32/31/4 78/32/4
f 58/33/5 4/34/5 11/35/5 2/36/5
f 1/37/6 58/38/6 2/39/6 59/40/6
f 22/41/7 1/42/7 59/43/7 17/44/7
f 68/45/8 22/46/8 17/47/8 9/48/8
f 57/49/5 16/50/5 4/51/5 58/52/5
f 56/53/6 57/54/6 58/55/6 1/56/6
f 6/57/7 56/58/7 1/59/7 22/60/7
f 64/61/8 6/62/8 22/63/8 68/64/8
f 20/65/5 8/66/5 16/67/5 57/68/5
f 7/69/6 20/70/6 57/71/6 56/72/6
f 50/73/7 7/74/7 56/75/7 6/76/7
f 66/77/8 50/78/8 6/79/8 64/80/8
f 52/81/5 55/82/5 8/83/5 20/84/5
f 47/85/6 52/86/6 20/87/6 7/88/6
f 37/89/7 47/90/7 7/91/7 50/92/7
f 60/93/8 37/94/8 50/95/8 66/96/8
f 19/97/9 14/98/9 69/99/9 92/100/9
f 15/101/10 19/102/10 92/103/10 94/104/10
f 26/105/11 15/106/11 94/107/11 98/108/11
f 4/109/12 26/110/12 98/111/12 11/112/12
f 18/113/9 21/114/9 14/115/9 19/116/9
f 23/117/10 18/118/10 19/119/10 15/120/10
f 25/121/11 23/122/11 15/123/11 26/124/11
f 16/125/12 25/126/12 26/127/12 4/128/12
f 28/129/9 5/130/9 21/131/9 18/132/9
f 27/133/10 28/134/10 18/135/10 23/136/10
f 34/137/11 27/138/11 23/139/11 25/140/11
f 8/141/12 34/142/12 25/143/12 16/144/12
f 40/145/9 49/146/9 5/147/9 28/148/9
f 54/149/10 40/150/10 28/151/10 27/152/10
f 51/153/11 54/154/11 27/155/11 34/156/11
f 55/157/12 51/158/12 34/159/12 8/160/12
f 39/161/13 80/162/13 31/163/13 61/164/13
f 38/165/14 39/166/14 61/167/14 29/168/14
f 35/169/15 38/170/15 29/171/15 63/172/15
f 37/173/16 35/174/16 63/175/16 60/176/16
f 43/177/17 41/178/17 80/179/17 39/180/17
f 46/181/18 43/182/18 39/183/18 38/184/18
f 42/185/18 46/186/18 38/187/18 35/188/18
f 47/189/19 42/190/19 35/191/19 37/192/19
f 44/193/20 45/194/20 41/195/20 43/196/20
f 48/197/18 44/198/18 43/199/18 46/200/18
f 53/201/18 48/202/18 46/203/18 42/204/18
f 52/205/21 53/206/21 42/207/21 47/208/21
f 40/145/22 49/146/22 45/209/22 44/210/22
f 54/149/23 40/150/23 44/211/23 48/212/23
f 51/153/24 54/154/24 48/213/24 53/214/24
f 55/157/25 51/158/25 53/215/25 52/216/25
f 84/217/4 30/218/4 72/219/4 3/220/4
f 30/221/3 13/222/3 71/223/3 72/224/3
f 13/225/2 67/226/2 70/227/2 71/228/2
f 67/229/1 64/230/1 68/231/1 70/232/1
f 3/233/4 72/234/4 76/235/4 91/236/4
f 72/237/3 71/238/3 75/239/3 76/240/3
f 71/241/2 70/242/2 62/243/2 75/244/2
f 70/245/1 68/246/1 9/247/1 62/248/1
f 49/249/26 45/250/26 79/251/26 5/252/26
f 45/253/27 41/254/27 82/255/27 79/256/27
f 41/257/28 80/258/28 81/259/28 82/260/28
f 80/261/29 31/262/29 78/263/29 81/264/29
f 5/265/26 79/266/26 77/267/26 21/268/26
f 79/269/27 82/270/27 36/271/27 77/272/27
f 82/273/28 81/274/28 85/275/28 36/276/28
f 81/277/29 78/278/29 84/279/29 85/280/29
f 21/281/26 77/282/26 83/283/26 14/284/26
f 77/285/27 36/286/27 88/287/27 83/288/27
f 36/289/28 85/290/28 86/291/28 88/292/28
f 85/293/29 84/294/29 3/295/29 86/296/29
f 14/297/26 83/298/26 90/299/26 69/300/26
f 83/301/27 88/302/27 73/303/27 90/304/27
f 88/305/28 86/306/28 89/307/28 73/308/28
f 86/309/29 3/310/29 91/311/29 89/312/29
f 69/313/16 90/314/16 24/315/16 92/316/16
f 90/317/19 73/318/19 10/319/19 24/320/19
f 73/321/21 89/322/21 87/323/21 10/324/21
f 89/325/25 91/326/25 76/327/25 87/328/25
f 92/329/15 24/330/15 93/331/15 94/332/15
f 24/333/18 10/334/18 12/335/18 93/336/18
f 10/337/18 87/338/18 95/339/18 12/340/18
f 87/341/24 76/342/24 75/343/24 95/344/24
f 94/345/14 93/346/14 96/347/14 98/348/14
f 93/349/18 12/350/18 97/351/18 96/352/18
f 12/353/18 95/354/18 74/355/18 97/356/18
f 95/357/23 75/358/23 62/359/23 74/360/23
f 98/361/13 96/362/13 2/363/13 11/112/13
f 96/364/17 97/365/17 59/43/17 2/366/17
f 97/367/20 74/368/20 17/369/20 59/40/20
f 74/370/22 62/371/22 9/247/22 17/372/22
