# Blender v2.82 (sub 7) OBJ File: 'Misc4.blend'
# www.blender.org
mtllib Misc4.mtl
o Cube
v 0.000000 0.500000 0.000000
v 0.175693 0.425693 -0.425693
v 0.250000 0.250000 -0.250000
v 0.175693 0.074307 -0.074307
v 0.000000 0.000000 0.000000
v -0.089170 0.065486 -0.313933
v -0.089170 1.298152 -0.099438
v -0.175693 0.074307 -0.074307
v -0.175693 0.074307 -0.425693
v 0.250000 0.000000 -0.250000
v -0.175693 0.425693 -0.074307
v 0.175693 0.250000 -0.425693
v 0.175693 0.250000 -0.074307
v 0.250000 0.500000 -0.250000
v 0.175693 0.425693 -0.074307
v 0.175693 0.074307 -0.425693
v 0.000000 0.000000 -0.500000
v -0.175693 0.425693 -0.425693
v -0.250000 0.000000 -0.250000
v 0.000000 0.500000 -0.500000
v -0.175693 0.250000 -0.425693
v -0.175693 0.250000 -0.074307
v -0.250000 0.500000 -0.250000
v -0.250000 0.250000 -0.250000
v 0.000000 0.250000 0.000000
v 0.000000 0.250000 -0.250000
v 0.000000 0.250000 -0.500000
v -0.026703 1.294432 -0.082471
v -0.026703 0.317643 -0.296678
v -0.089170 0.321364 -0.313646
v -0.089170 0.077167 -0.367198
v -0.026703 0.806038 -0.189575
v -0.026703 1.050235 -0.136023
v -0.026703 1.290192 -0.063140
v -0.026703 0.313404 -0.277348
v -0.026703 0.561840 -0.243127
v -0.026703 0.073446 -0.350230
v -0.026703 1.045995 -0.116692
v -0.026703 0.069207 -0.330900
v -0.089170 0.565561 -0.260094
v -0.089170 0.809758 -0.206542
v -0.089170 1.053955 -0.152990
v -0.089170 0.309683 -0.260381
v -0.026703 0.801798 -0.170244
v -0.089170 0.553881 -0.206829
v -0.089170 0.798078 -0.153277
v -0.089170 1.042275 -0.099725
v -0.089170 1.286472 -0.046173
v -0.026703 0.557601 -0.223796
v -0.135513 0.098808 -0.199633
v 0.209182 1.282299 0.014862
v 0.268117 1.261258 0.031829
v -0.005026 0.323438 -0.182379
v -0.063961 0.344478 -0.199346
v -0.132247 0.110023 -0.252898
v 0.131546 0.792348 -0.075275
v 0.199832 1.026803 -0.021723
v 0.266932 1.257188 0.051159
v -0.006211 0.319368 -0.163048
v 0.063260 0.557893 -0.128827
v -0.073311 0.088982 -0.235931
v 0.198646 1.022733 -0.002393
v -0.074497 0.084912 -0.216600
v 0.004325 0.578933 -0.145794
v 0.072611 0.813389 -0.092242
v 0.140896 1.047844 -0.038690
v -0.067227 0.333263 -0.146081
v 0.130360 0.788278 -0.055945
v 0.001058 0.567718 -0.092529
v 0.069344 0.802174 -0.038977
v 0.137630 1.036629 0.014575
v 0.205916 1.271084 0.068127
v 0.062075 0.553823 -0.109496
vt 0.286458 0.651235
vt 0.282986 0.651235
vt 0.282986 0.668605
vt 0.286458 0.674346
vt 0.286458 0.651235
vt 0.282986 0.651235
vt 0.282986 0.674346
vt 0.286458 0.668605
vt 0.182292 0.558212
vt 0.192708 0.563953
vt 0.192708 0.581323
vt 0.182292 0.581323
vt 0.182292 0.563953
vt 0.192708 0.558212
vt 0.192708 0.581323
vt 0.182292 0.581323
vt 0.189236 0.563953
vt 0.185764 0.558212
vt 0.185764 0.581323
vt 0.189236 0.581323
vt 0.192708 0.558212
vt 0.182292 0.563953
vt 0.182292 0.581323
vt 0.192708 0.581323
vt 0.289931 0.651235
vt 0.279514 0.651235
vt 0.279514 0.674346
vt 0.289931 0.668605
vt 0.289931 0.651235
vt 0.279514 0.651235
vt 0.279514 0.668605
vt 0.289931 0.674346
vt 0.189236 0.563953
vt 0.185764 0.558212
vt 0.185764 0.581323
vt 0.189236 0.581323
vt 0.189236 0.558212
vt 0.185764 0.563953
vt 0.185764 0.581323
vt 0.189236 0.581323
vt 0.286458 0.651235
vt 0.282986 0.651235
vt 0.282986 0.674346
vt 0.286458 0.668605
vt 0.279514 0.651235
vt 0.289931 0.651235
vt 0.289931 0.668605
vt 0.279514 0.674346
vt 0.192708 0.563953
vt 0.182292 0.558212
vt 0.182292 0.581323
vt 0.192708 0.581323
vt 0.192708 0.558212
vt 0.192708 0.581323
vt 0.286458 0.651235
vt 0.282986 0.651235
vt 0.282986 0.674346
vt 0.286458 0.668605
vt 0.289931 0.651235
vt 0.279514 0.651235
vt 0.279514 0.668605
vt 0.289931 0.674346
vt 0.423017 0.666753
vt 0.403906 0.666753
vt 0.403906 0.694358
vt 0.423017 0.694358
vt 0.403786 0.666753
vt 0.384676 0.666753
vt 0.384676 0.694358
vt 0.403786 0.694358
vt 0.423017 0.694531
vt 0.403906 0.694531
vt 0.403906 0.722135
vt 0.423017 0.722135
vt 0.403786 0.694531
vt 0.384676 0.694531
vt 0.384676 0.722135
vt 0.403786 0.722135
vt 0.269097 0.473837
vt 0.269097 0.479651
vt 0.272569 0.479651
vt 0.272569 0.473837
vt 0.272569 0.465116
vt 0.269097 0.465116
vt 0.269097 0.488299
vt 0.272569 0.488299
vt 0.269097 0.465116
vt 0.269097 0.468023
vt 0.272569 0.488299
vt 0.272569 0.485465
vt 0.269097 0.465116
vt 0.269097 0.468023
vt 0.272569 0.488299
vt 0.272569 0.485465
vt 0.269097 0.465116
vt 0.269097 0.468023
vt 0.272569 0.488299
vt 0.272569 0.485465
vt 0.274306 0.476744
vt 0.270833 0.476744
vt 0.267361 0.476744
vt 0.270833 0.476744
vt 0.274306 0.476744
vt 0.270833 0.476744
vt 0.267361 0.476744
vt 0.270833 0.476744
vt 0.269097 0.465116
vt 0.272569 0.465116
vt 0.272569 0.488299
vt 0.269097 0.488299
vt 0.269097 0.465116
vt 0.272569 0.465116
vt 0.272569 0.488299
vt 0.269097 0.488299
vt 0.272569 0.465116
vt 0.269097 0.465116
vt 0.269097 0.488299
vt 0.269097 0.465116
vt 0.269097 0.465116
vt 0.272569 0.488299
vt 0.272569 0.488299
vt 0.269097 0.465116
vt 0.269097 0.465116
vt 0.272569 0.488299
vt 0.272569 0.488299
vt 0.269097 0.465116
vt 0.269097 0.468023
vt 0.272569 0.488299
vt 0.272569 0.485465
vt 0.269097 0.465116
vt 0.269097 0.468023
vt 0.272569 0.488299
vt 0.272569 0.485465
vt 0.269097 0.468023
vt 0.272569 0.488299
vt 0.272569 0.485465
vt 0.270833 0.465116
vt 0.270833 0.465116
vt 0.270833 0.488299
vt 0.270833 0.488299
vt 0.270833 0.465116
vt 0.270833 0.465116
vt 0.270833 0.488299
vt 0.270833 0.488299
vt 0.270833 0.465116
vt 0.270833 0.465116
vt 0.270833 0.488299
vt 0.270833 0.488299
vt 0.270833 0.465116
vt 0.270833 0.465116
vt 0.270833 0.488299
vt 0.270833 0.488299
vt 0.270833 0.465116
vt 0.270833 0.465116
vt 0.270833 0.488299
vt 0.270833 0.488299
vt 0.270833 0.473837
vt 0.270833 0.473837
vt 0.269097 0.479651
vt 0.272569 0.479651
vt 0.269171 0.500087
vt 0.250060 0.500087
vt 0.250060 0.527691
vt 0.269171 0.527691
vt 0.269097 0.476744
vt 0.269097 0.482558
vt 0.272569 0.476744
vt 0.272569 0.470930
vt 0.270833 0.465116
vt 0.267361 0.468023
vt 0.270833 0.488299
vt 0.274306 0.485465
vt 0.270833 0.465116
vt 0.267361 0.468023
vt 0.270833 0.488299
vt 0.274306 0.485465
vt 0.270833 0.465116
vt 0.267361 0.468023
vt 0.270833 0.488299
vt 0.274306 0.485465
vt 0.270833 0.465116
vt 0.267361 0.468023
vt 0.270833 0.488299
vt 0.274306 0.485465
vt 0.274306 0.473837
vt 0.270833 0.473837
vt 0.267361 0.479651
vt 0.270833 0.479651
vt 0.269097 0.465116
vt 0.272569 0.465116
vt 0.272569 0.488299
vt 0.269097 0.488299
vt 0.269097 0.465116
vt 0.272569 0.465116
vt 0.272569 0.488299
vt 0.269097 0.488299
vt 0.272569 0.465116
vt 0.269097 0.465116
vt 0.269097 0.488299
vt 0.272569 0.488299
vt 0.272569 0.465116
vt 0.269097 0.465116
vt 0.269097 0.488299
vt 0.272569 0.488299
vt 0.923017 0.277865
vt 0.903906 0.277865
vt 0.903906 0.305469
vt 0.923017 0.305469
vt 0.269097 0.465116
vt 0.269097 0.468023
vt 0.272569 0.488299
vt 0.272569 0.485465
vt 0.269097 0.465116
vt 0.269097 0.468023
vt 0.272569 0.488299
vt 0.272569 0.485465
vt 0.269097 0.468023
vt 0.272569 0.488299
vt 0.272569 0.485465
vt 0.269097 0.468023
vt 0.272569 0.488299
vt 0.272569 0.485465
vt 0.270833 0.465116
vt 0.270833 0.465116
vt 0.270833 0.488299
vt 0.270833 0.488299
vt 0.270833 0.465116
vt 0.270833 0.488299
vt 0.270833 0.488299
vt 0.270833 0.465116
vt 0.270833 0.488299
vt 0.270833 0.488299
vt 0.270833 0.465116
vt 0.270833 0.488299
vt 0.270833 0.488299
vt 0.270833 0.465116
vt 0.270833 0.488299
vt 0.270833 0.488299
vt 0.270833 0.473837
vt 0.270833 0.473837
vt 0.269097 0.479651
vt 0.272569 0.479651
vt 0.269171 0.500087
vt 0.250060 0.500087
vt 0.250060 0.527691
vt 0.269171 0.527691
vn 0.3895 0.0000 0.9210
vn -0.3895 0.0000 0.9210
vn 0.9210 0.0000 0.3895
vn 0.9210 0.0000 -0.3895
vn 0.3895 0.0000 -0.9210
vn -0.3895 0.0000 -0.9210
vn -0.9210 0.0000 -0.3895
vn -0.9210 0.0000 0.3895
vn 0.0000 1.0000 0.0000
vn 0.2679 0.2064 -0.9411
vn -1.0000 0.0000 0.0000
vn 0.2679 -0.2064 0.9411
vn 1.0000 -0.0000 0.0000
vn -0.0000 0.9768 0.2142
vn 0.3149 0.1232 -0.9411
vn -0.9601 0.2796 -0.0000
vn 0.1995 -0.2731 0.9411
vn 0.9601 -0.2796 -0.0000
vn 0.2731 0.9378 0.2142
usemtl sdddd
s off
f 25/1/1 13/2/1 15/3/1 1/4/1
f 22/5/2 25/6/2 1/7/2 11/8/2
f 5/9/1 4/10/1 13/11/1 25/12/1
f 8/13/2 5/14/2 25/15/2 22/16/2
f 4/17/3 10/18/3 3/19/3 13/20/3
f 10/21/4 16/22/4 12/23/4 3/24/4
f 13/25/3 3/26/3 14/27/3 15/28/3
f 3/29/4 12/30/4 2/31/4 14/32/4
f 16/33/5 17/34/5 27/35/5 12/36/5
f 17/37/6 9/38/6 21/39/6 27/40/6
f 12/41/5 27/42/5 20/43/5 2/44/5
f 27/45/6 21/46/6 18/47/6 20/48/6
f 9/49/7 19/50/7 24/51/7 21/52/7
f 19/53/8 8/13/8 22/16/8 24/54/8
f 21/55/7 24/56/7 23/57/7 18/58/7
f 24/59/8 22/60/8 11/61/8 23/62/8
f 21/63/9 24/64/9 26/65/9 27/66/9
f 24/67/9 22/68/9 25/69/9 26/70/9
f 27/71/9 26/72/9 3/73/9 12/74/9
f 26/75/9 25/76/9 13/77/9 3/78/9
f 37/79/10 31/80/10 30/81/10 29/82/10
f 29/83/10 30/84/10 40/85/10 36/86/10
f 36/87/10 40/88/10 41/89/10 32/90/10
f 32/91/10 41/92/10 42/93/10 33/94/10
f 33/95/10 42/96/10 7/97/10 28/98/10
f 31/99/11 6/100/11 43/101/11 30/102/11
f 30/103/11 43/104/11 45/105/11 40/106/11
f 40/107/11 45/108/11 46/109/11 41/110/11
f 41/111/11 46/112/11 47/113/11 42/114/11
f 42/115/11 47/116/11 48/117/11 7/97/11
f 6/118/12 39/119/12 35/120/12 43/121/12
f 43/122/12 35/123/12 49/124/12 45/125/12
f 45/126/12 49/127/12 44/128/12 46/129/12
f 46/130/12 44/131/12 38/132/12 47/133/12
f 47/116/12 38/134/12 34/135/12 48/136/12
f 39/137/13 37/138/13 29/139/13 35/140/13
f 35/141/13 29/142/13 36/143/13 49/144/13
f 49/145/13 36/146/13 32/147/13 44/148/13
f 44/149/13 32/150/13 33/151/13 38/152/13
f 38/153/13 33/154/13 28/155/13 34/156/13
f 34/157/14 28/158/14 7/159/14 48/160/14
f 39/161/14 37/162/14 31/163/14 6/164/14
f 61/165/15 55/166/15 54/167/15 53/168/15
f 53/169/15 54/170/15 64/171/15 60/172/15
f 60/173/15 64/174/15 65/175/15 56/176/15
f 56/177/15 65/178/15 66/179/15 57/180/15
f 57/181/15 66/182/15 51/183/15 52/184/15
f 55/185/16 50/186/16 67/187/16 54/188/16
f 54/189/16 67/190/16 69/191/16 64/192/16
f 64/193/16 69/194/16 70/195/16 65/196/16
f 65/197/16 70/198/16 71/199/16 66/200/16
f 66/201/16 71/202/16 72/203/16 51/204/16
f 50/205/17 63/206/17 59/207/17 67/208/17
f 67/209/17 59/210/17 73/211/17 69/212/17
f 69/213/17 73/214/17 68/215/17 70/216/17
f 70/198/17 68/217/17 62/218/17 71/219/17
f 71/202/17 62/220/17 58/221/17 72/222/17
f 63/223/18 61/224/18 53/225/18 59/226/18
f 59/227/18 53/169/18 60/228/18 73/229/18
f 73/230/18 60/173/18 56/231/18 68/232/18
f 68/233/18 56/177/18 57/234/18 62/235/18
f 62/236/18 57/181/18 52/237/18 58/238/18
f 58/239/19 52/240/19 51/241/19 72/242/19
f 63/243/19 61/244/19 55/245/19 50/246/19
