# Blender v2.82 (sub 7) OBJ File: 'Misc3.blend'
# www.blender.org
mtllib Misc3.mtl
o Cube
v 0.149983 0.404807 0.148635
v -0.212108 0.404807 -0.001348
v -0.212108 0.053375 -0.001348
v -0.149983 0.053375 -0.151331
v 0.149983 0.053375 -0.151331
v 0.000000 0.229091 -0.303125
v -0.213388 0.229091 0.212040
v -0.213388 0.229091 -0.214736
v 0.213388 0.229091 0.212040
v -0.000000 0.229091 0.300429
v -0.301777 0.229091 -0.001348
v -0.149983 0.053375 0.148635
v -0.149983 0.404807 -0.151331
v 0.000000 0.535518 -0.001348
v 0.000000 0.053375 0.210760
v 0.301777 0.229091 -0.001348
v 0.213388 0.229091 -0.214736
v 0.000000 0.404807 -0.213456
v -0.149983 0.404807 0.148635
v 0.149983 0.053375 0.148635
v 0.212108 0.053375 -0.001348
v 0.149983 0.404807 -0.151331
v 0.212108 0.404807 -0.001348
v -0.000000 0.404807 0.210760
v 0.000000 0.053375 -0.213456
v 0.000000 -0.077336 -0.001348
v -0.265813 -0.256942 0.251618
v -0.265813 -0.165699 0.001618
v -0.265813 -0.256942 0.001618
v 0.234187 -0.256942 0.251618
v -0.015813 -0.165699 0.251618
v 0.234187 -0.165699 0.251618
v -0.265813 -0.165699 -0.248382
v 0.234187 -0.256942 -0.248382
v -0.265813 -0.165699 0.251618
v 0.234187 -0.165699 0.251618
v -0.265813 -0.256942 -0.248382
v -0.015813 -0.256942 -0.248382
v -0.015813 -0.256942 0.251618
v 0.234187 -0.165699 -0.248382
v -0.015813 -0.165699 -0.248382
v 0.234187 -0.256942 0.001618
v -0.015813 -0.165699 -0.248382
v 0.234187 -0.165699 -0.248382
v 0.234187 -0.165699 0.001618
v -0.015813 -0.082386 0.251618
v -0.015813 -0.256942 0.001618
v -0.015813 -0.165699 0.251618
v -0.265813 -0.165699 -0.248382
v -0.265813 -0.165699 0.251618
v -0.265813 -0.165699 0.001618
v 0.234187 -0.165699 0.001618
v -0.127297 -0.082386 0.251618
v -0.127297 -0.082386 -0.248382
v -0.127297 -0.082386 0.001618
v -0.015813 -0.082386 0.001618
v 0.095671 -0.082386 0.001618
v 0.095671 -0.082386 -0.248382
v -0.015813 -0.082386 -0.248382
v 0.095671 -0.082386 0.251618
vt 0.482639 0.561046
vt 0.473958 0.561046
vt 0.472266 0.578488
vt 0.484375 0.578488
vt 0.479167 0.561046
vt 0.475694 0.561046
vt 0.479167 0.578488
vt 0.482639 0.578488
vt 0.484375 0.561046
vt 0.472266 0.563953
vt 0.473958 0.581323
vt 0.482639 0.578488
vt 0.484375 0.558212
vt 0.473958 0.563953
vt 0.477431 0.581323
vt 0.484375 0.578488
vt 0.482639 0.561046
vt 0.473958 0.561046
vt 0.472266 0.578488
vt 0.484375 0.578488
vt 0.484375 0.561046
vt 0.477431 0.561046
vt 0.473958 0.578488
vt 0.484375 0.578488
vt 0.414931 0.494186
vt 0.404514 0.488445
vt 0.404514 0.508721
vt 0.411458 0.511555
vt 0.484375 0.558212
vt 0.473958 0.563953
vt 0.477431 0.581323
vt 0.484375 0.578488
vt 0.475694 0.558212
vt 0.484375 0.561046
vt 0.486068 0.581323
vt 0.473958 0.575581
vt 0.479167 0.561046
vt 0.475694 0.561046
vt 0.479167 0.578488
vt 0.482639 0.578488
vt 0.484375 0.561046
vt 0.472266 0.561046
vt 0.473958 0.578488
vt 0.482639 0.578488
vt 0.482639 0.566860
vt 0.479167 0.558212
vt 0.475694 0.572674
vt 0.479167 0.578488
vt 0.427083 0.491279
vt 0.418403 0.491279
vt 0.416710 0.508721
vt 0.428819 0.508721
vt 0.428819 0.488445
vt 0.420139 0.491279
vt 0.418403 0.508721
vt 0.430512 0.505814
vt 0.414931 0.491279
vt 0.402821 0.491279
vt 0.404514 0.508721
vt 0.413194 0.508721
vt 0.484375 0.558212
vt 0.473958 0.563953
vt 0.477431 0.581323
vt 0.484375 0.578488
vt 0.407986 0.491279
vt 0.402821 0.502907
vt 0.413194 0.514535
vt 0.416623 0.491279
vt 0.484375 0.563953
vt 0.477431 0.563953
vt 0.473958 0.563953
vt 0.484375 0.575581
vt 0.404514 0.494186
vt 0.404514 0.505814
vt 0.414931 0.494186
vt 0.411458 0.494186
vt 0.484375 0.563953
vt 0.477431 0.563953
vt 0.473958 0.563953
vt 0.480903 0.578488
vt 0.486068 0.566860
vt 0.475694 0.555233
vt 0.472266 0.578488
vt 0.472266 0.566860
vt 0.477431 0.578488
vt 0.486068 0.578488
vt 0.482639 0.555233
vt 0.484375 0.575581
vt 0.484375 0.563953
vt 0.473958 0.575581
vt 0.477431 0.575581
vt 0.484375 0.575581
vt 0.477431 0.575581
vt 0.307632 0.666753
vt 0.288522 0.666753
vt 0.288522 0.694358
vt 0.307632 0.694358
vt 0.288401 0.666753
vt 0.269291 0.666753
vt 0.269291 0.694358
vt 0.288401 0.694358
vt 0.307632 0.666753
vt 0.288522 0.666753
vt 0.288522 0.694358
vt 0.307632 0.694358
vt 0.288401 0.666753
vt 0.269291 0.666753
vt 0.269291 0.694358
vt 0.288401 0.694358
vt 0.307632 0.666753
vt 0.288522 0.666753
vt 0.288522 0.694358
vt 0.307632 0.694358
vt 0.288401 0.666753
vt 0.269291 0.666753
vt 0.269291 0.694358
vt 0.288401 0.694358
vt 0.307632 0.666753
vt 0.288522 0.666753
vt 0.288522 0.694358
vt 0.307632 0.694358
vt 0.288401 0.666753
vt 0.269291 0.666753
vt 0.269291 0.694358
vt 0.288401 0.694358
vt 0.269291 0.694358
vt 0.288401 0.694358
vt 0.269291 0.694358
vt 0.288401 0.694358
vt 0.288522 0.694358
vt 0.307632 0.694358
vt 0.269291 0.694358
vt 0.288401 0.694358
vt 0.423017 0.666753
vt 0.403906 0.666753
vt 0.403906 0.694358
vt 0.423017 0.694358
vt 0.403786 0.666753
vt 0.384676 0.666753
vt 0.384676 0.694358
vt 0.403786 0.694358
vt 0.423017 0.694531
vt 0.403906 0.694531
vt 0.403906 0.722135
vt 0.423017 0.722135
vt 0.403786 0.694531
vt 0.384676 0.694531
vt 0.384676 0.722135
vt 0.403786 0.722135
vt 0.269291 0.694358
vt 0.288401 0.694358
vt 0.307632 0.694358
vt 0.288522 0.694358
vt 0.288522 0.694358
vt 0.307632 0.694358
vt 0.307632 0.694358
vt 0.288522 0.694358
vt 0.288522 0.694358
vt 0.307632 0.694358
vt 0.269291 0.694358
vt 0.288401 0.694358
vt 0.288522 0.694358
vt 0.307632 0.694358
vt 0.269291 0.694358
vt 0.288401 0.694358
vt 0.423017 0.666753
vt 0.403906 0.666753
vt 0.403906 0.694358
vt 0.423017 0.694358
vt 0.403786 0.666753
vt 0.384676 0.666753
vt 0.384676 0.694358
vt 0.403786 0.694358
vt 0.423017 0.694531
vt 0.403906 0.694531
vt 0.403906 0.722135
vt 0.423017 0.722135
vt 0.403786 0.694531
vt 0.384676 0.694531
vt 0.384676 0.722135
vt 0.403786 0.722135
vt 0.288522 0.694358
vt 0.307632 0.694358
vt 0.269291 0.694358
vt 0.288401 0.694358
vt 0.269291 0.694358
vt 0.288401 0.694358
vt 0.288522 0.694358
vt 0.307632 0.694358
vn 0.3461 -0.4264 -0.8357
vn -0.3461 -0.4264 -0.8357
vn 0.3461 0.4264 -0.8357
vn -0.3461 0.4264 -0.8357
vn -0.8357 -0.4264 -0.3461
vn -0.8357 -0.4264 0.3461
vn -0.8357 0.4264 -0.3461
vn -0.8357 0.4264 0.3461
vn -0.3461 -0.4264 0.8357
vn 0.3461 -0.4264 0.8357
vn -0.3461 0.4264 0.8357
vn 0.3461 0.4264 0.8357
vn 0.8357 -0.4264 0.3461
vn 0.8357 -0.4264 -0.3461
vn 0.8357 0.4264 0.3461
vn 0.8357 0.4264 -0.3461
vn 0.3710 0.8513 0.3710
vn 0.3710 0.8513 -0.3710
vn -0.3710 0.8513 0.3710
vn -0.3710 0.8513 -0.3710
vn -0.3710 -0.8513 -0.3710
vn 0.3710 -0.8513 -0.3710
vn -0.3710 -0.8513 0.3710
vn 0.3710 -0.8513 0.3710
vn 0.0000 0.0000 1.0000
vn -1.0000 0.0000 0.0000
vn 0.0000 0.0000 -1.0000
vn 1.0000 0.0000 0.0000
vn 0.0000 -1.0000 0.0000
vn 0.5154 0.8569 0.0000
vn 0.0000 1.0000 0.0000
vn -0.5154 0.8569 0.0000
usemtl sdddd
s off
f 5/1/1 25/2/1 6/3/1 17/4/1
f 25/5/2 4/6/2 8/7/2 6/8/2
f 17/9/3 6/10/3 18/11/3 22/12/3
f 6/13/4 8/14/4 13/15/4 18/16/4
f 4/17/5 3/18/5 11/19/5 8/20/5
f 3/21/6 12/22/6 7/23/6 11/24/6
f 8/25/7 11/26/7 2/27/7 13/28/7
f 11/29/8 7/30/8 19/31/8 2/32/8
f 12/33/9 15/34/9 10/35/9 7/36/9
f 15/37/10 20/38/10 9/39/10 10/40/10
f 7/41/11 10/42/11 24/43/11 19/44/11
f 10/45/12 9/46/12 1/47/12 24/48/12
f 20/49/13 21/50/13 16/51/13 9/52/13
f 21/53/14 5/54/14 17/55/14 16/56/14
f 9/57/15 16/58/15 23/59/15 1/60/15
f 16/61/16 17/62/16 22/63/16 23/64/16
f 1/65/17 23/66/17 14/67/17 24/68/17
f 23/69/18 22/70/18 18/71/18 14/72/18
f 24/73/19 14/74/19 2/75/19 19/76/19
f 14/72/20 18/77/20 13/78/20 2/79/20
f 4/80/21 25/81/21 26/82/21 3/83/21
f 25/84/22 5/85/22 21/86/22 26/87/22
f 3/88/23 26/89/23 15/90/23 12/91/23
f 26/89/24 21/92/24 20/93/24 15/90/24
f 27/94/25 39/95/25 31/96/25 35/97/25
f 39/98/25 30/99/25 32/100/25 31/101/25
f 37/102/26 29/103/26 28/104/26 33/105/26
f 29/106/26 27/107/26 35/108/26 28/109/26
f 34/110/27 38/111/27 43/112/27 44/113/27
f 38/114/27 37/115/27 33/116/27 43/117/27
f 30/118/28 42/119/28 45/120/28 32/121/28
f 42/122/28 34/123/28 44/124/28 45/125/28
f 31/101/25 32/100/25 36/126/25 48/127/25
f 43/117/25 33/116/25 49/128/25 41/129/25
f 44/113/25 43/112/25 41/130/25 40/131/25
f 45/125/25 44/124/25 40/132/25 52/133/25
f 30/134/29 39/135/29 47/136/29 42/137/29
f 39/138/29 27/139/29 29/140/29 47/141/29
f 42/142/29 47/143/29 38/144/29 34/145/29
f 47/146/29 29/147/29 37/148/29 38/149/29
f 52/133/30 40/132/30 58/150/30 57/151/30
f 36/152/30 52/153/30 57/154/30 60/155/30
f 50/156/25 48/157/25 46/158/25 53/159/25
f 48/127/25 36/126/25 60/160/25 46/161/25
f 33/105/25 28/104/25 51/162/25 49/163/25
f 28/109/25 35/108/25 50/164/25 51/165/25
f 32/121/25 45/120/25 52/153/25 36/152/25
f 35/97/25 31/96/25 48/157/25 50/156/25
f 60/166/31 57/167/31 56/168/31 46/169/31
f 57/170/31 58/171/31 59/172/31 56/173/31
f 46/174/31 56/175/31 55/176/31 53/177/31
f 56/178/31 59/179/31 54/180/31 55/181/31
f 49/163/32 51/162/32 55/182/32 54/183/32
f 51/165/32 50/164/32 53/184/32 55/185/32
f 41/129/27 49/128/27 54/186/27 59/187/27
f 40/131/27 41/130/27 59/188/27 58/189/27
