# Blender v2.82 (sub 7) OBJ File: 'Pillowy.blend'
# www.blender.org
mtllib Pillowy.mtl
o Cube
v -0.120701 -0.090182 0.120701
v -0.000000 -0.034393 -0.241403
v -0.120701 -0.058229 -0.241403
v 0.120701 -0.034393 -0.241403
v 0.120701 -0.006198 -0.120701
v 0.120701 -0.034393 0.241403
v -0.000000 -0.090182 0.120701
v -0.120701 -0.034393 0.241403
v -0.000000 -0.034393 0.241403
v 0.120701 -0.058229 0.241403
v -0.142671 0.001274 -0.000000
v -0.120701 -0.034393 -0.241403
v 0.120701 -0.006198 0.120701
v 0.142671 -0.097996 -0.000000
v 0.120701 -0.058229 -0.241403
v 0.142671 0.001274 -0.000000
v -0.000000 -0.058229 -0.241403
v -0.120701 -0.006198 -0.120701
v -0.120701 -0.090182 -0.120701
v -0.000000 -0.058229 0.241403
v 0.120701 -0.090182 0.120701
v -0.142671 -0.097996 -0.000000
v -0.000000 0.001274 -0.000000
v -0.000000 -0.006198 0.120701
v -0.000000 -0.097996 -0.000000
v 0.120701 -0.090182 -0.120701
v -0.000000 -0.006198 -0.120701
v -0.120701 -0.006198 0.120701
v -0.120701 -0.058229 0.241403
v -0.000000 -0.090182 -0.120701
vt 0.888932 0.522798
vt 0.902734 0.522798
vt 0.902734 0.545384
vt 0.888932 0.545384
vt 0.902821 0.522798
vt 0.916623 0.522798
vt 0.916623 0.545384
vt 0.902821 0.545384
vt 0.888932 0.522798
vt 0.902734 0.522798
vt 0.902734 0.545384
vt 0.888932 0.545384
vt 0.902821 0.522798
vt 0.916623 0.522798
vt 0.916623 0.545384
vt 0.902821 0.545384
vt 0.902821 0.500071
vt 0.916623 0.500071
vt 0.916623 0.522656
vt 0.902821 0.522656
vt 0.888932 0.500071
vt 0.902734 0.500071
vt 0.902734 0.522656
vt 0.888932 0.522656
vt 0.902821 0.500071
vt 0.916623 0.500071
vt 0.916623 0.522656
vt 0.902821 0.522656
vt 0.888932 0.500071
vt 0.902734 0.500071
vt 0.902734 0.522656
vt 0.888932 0.522656
vt 0.972266 0.886435
vt 0.986068 0.886435
vt 0.986068 0.909020
vt 0.972266 0.909020
vt 0.972266 0.886435
vt 0.986068 0.886435
vt 0.986068 0.909020
vt 0.972266 0.909020
vt 0.972266 0.886435
vt 0.986068 0.886435
vt 0.986068 0.909020
vt 0.972266 0.909020
vt 0.972266 0.886435
vt 0.986068 0.886435
vt 0.986068 0.909020
vt 0.972266 0.909020
vt 0.972266 0.886435
vt 0.986068 0.886435
vt 0.986068 0.909020
vt 0.972266 0.909020
vt 0.972266 0.886435
vt 0.986068 0.886435
vt 0.986068 0.909020
vt 0.972266 0.909020
vt 0.972266 0.886435
vt 0.986068 0.886435
vt 0.986068 0.909020
vt 0.972266 0.909020
vt 0.972266 0.886435
vt 0.986068 0.886435
vt 0.986068 0.909020
vt 0.972266 0.909020
vt 0.972266 0.886435
vt 0.986068 0.886435
vt 0.986068 0.909020
vt 0.972266 0.909020
vt 0.972266 0.886435
vt 0.986068 0.886435
vt 0.986068 0.909020
vt 0.972266 0.909020
vt 0.972266 0.886435
vt 0.986068 0.886435
vt 0.986068 0.909020
vt 0.972266 0.909020
vt 0.972266 0.886435
vt 0.986068 0.886435
vt 0.986068 0.909020
vt 0.972266 0.909020
vt 0.902821 0.522798
vt 0.916623 0.522798
vt 0.916623 0.545384
vt 0.902821 0.545384
vt 0.888932 0.522798
vt 0.902734 0.522798
vt 0.902734 0.545384
vt 0.888932 0.545384
vt 0.902821 0.522798
vt 0.916623 0.522798
vt 0.916623 0.545384
vt 0.902821 0.545384
vt 0.888932 0.522798
vt 0.902734 0.522798
vt 0.902734 0.545384
vt 0.888932 0.545384
vt 0.902821 0.500071
vt 0.916623 0.500071
vt 0.916623 0.522656
vt 0.902821 0.522656
vt 0.888932 0.500071
vt 0.902734 0.500071
vt 0.902734 0.522656
vt 0.888932 0.522656
vt 0.902821 0.500071
vt 0.916623 0.500071
vt 0.916623 0.522656
vt 0.902821 0.522656
vt 0.888932 0.500071
vt 0.902734 0.500071
vt 0.902734 0.522656
vt 0.888932 0.522656
vn 0.0000 -0.9667 -0.2559
vn 0.0000 -0.9979 -0.0646
vn 0.0000 -0.9979 0.0646
vn 0.0000 -0.9667 0.2559
vn 0.0000 0.0000 -1.0000
vn 1.0000 0.0000 0.0000
vn 0.9838 0.0000 -0.1791
vn 0.9838 0.0000 0.1791
vn 0.0000 0.0000 1.0000
vn -1.0000 0.0000 0.0000
vn -0.9838 0.0000 0.1791
vn -0.9838 0.0000 -0.1791
vn 0.0000 0.9738 0.2275
vn 0.0000 0.9981 0.0618
vn 0.0000 0.9981 -0.0618
vn 0.0000 0.9738 -0.2275
usemtl eMiscStuff
s off
f 17/1/1 30/2/1 19/3/1 3/4/1
f 30/5/2 25/6/2 22/7/2 19/8/2
f 25/9/3 7/10/3 1/11/3 22/12/3
f 7/13/4 20/14/4 29/15/4 1/16/4
f 21/17/4 10/18/4 20/19/4 7/20/4
f 14/21/3 21/22/3 7/23/3 25/24/3
f 26/25/2 14/26/2 25/27/2 30/28/2
f 15/29/1 26/30/1 30/31/1 17/32/1
f 17/33/5 3/34/5 12/35/5 2/36/5
f 15/37/5 17/38/5 2/39/5 4/40/5
f 26/41/6 15/42/6 4/43/6 5/44/6
f 14/45/7 26/46/7 5/47/7 16/48/7
f 21/49/8 14/50/8 16/51/8 13/52/8
f 10/53/6 21/54/6 13/55/6 6/56/6
f 20/57/9 10/58/9 6/59/9 9/60/9
f 29/61/9 20/62/9 9/63/9 8/64/9
f 1/65/10 29/66/10 8/67/10 28/68/10
f 22/69/11 1/70/11 28/71/11 11/72/11
f 19/73/12 22/74/12 11/75/12 18/76/12
f 3/77/10 19/78/10 18/79/10 12/80/10
f 24/81/13 9/82/13 6/83/13 13/84/13
f 23/85/14 24/86/14 13/87/14 16/88/14
f 27/89/15 23/90/15 16/91/15 5/92/15
f 2/93/16 27/94/16 5/95/16 4/96/16
f 28/97/13 8/98/13 9/99/13 24/100/13
f 11/101/14 28/102/14 24/103/14 23/104/14
f 18/105/15 11/106/15 23/107/15 27/108/15
f 12/109/16 18/110/16 27/111/16 2/112/16
