# Blender v2.82 (sub 7) OBJ File: 'Misc11coMpwall.blend'
# www.blender.org
mtllib Misc11coMpwall.mtl
o Cube
v 0.500000 0.000000 0.000000
v -0.250000 0.000000 0.000000
v -0.500000 0.000000 0.000000
v 0.250000 1.000000 0.000000
v 0.250000 0.000000 0.000000
v 0.000000 0.000000 0.000000
v -0.250000 1.000000 0.000000
v 0.250000 0.250000 0.000000
v -0.250000 0.250000 0.000000
v 0.500000 0.250000 0.000000
v -0.500000 0.250000 0.000000
v 0.250000 0.500000 0.000000
v -0.250000 0.750000 0.000000
v 0.500000 0.500000 0.000000
v 0.000000 0.250000 0.000000
v -0.500000 0.500000 0.000000
v -0.500000 1.000000 0.000000
v 0.500000 0.750000 0.000000
v -0.500000 0.750000 0.000000
v 0.000000 0.500000 0.000000
v -0.250000 0.500000 0.000000
v 0.250000 0.750000 0.000000
v 0.500000 1.000000 0.000000
v 0.000000 1.000000 0.000000
v 0.000000 0.750000 0.000000
v -0.500000 0.250000 0.147001
v -0.250000 0.250000 0.147001
v 0.250000 0.500000 0.147001
v 0.250000 0.750000 0.147001
v -0.500000 0.000000 0.147001
v 0.500000 0.500000 0.147001
v -0.250000 0.750000 0.147001
v -0.250000 0.500000 0.147001
v 0.250000 0.000000 0.147001
v 0.000000 0.000000 0.147001
v 0.250000 0.250000 0.147001
v 0.000000 0.250000 0.147001
v 0.000000 1.000000 0.147001
v 0.000000 0.750000 0.147001
v 0.500000 0.000000 0.147001
v -0.250000 0.000000 0.147001
v 0.500000 0.250000 0.147001
v -0.250000 1.000000 0.147001
v -0.500000 0.500000 0.147001
v 0.250000 1.000000 0.147001
v 0.500000 1.000000 0.147001
v 0.500000 0.750000 0.147001
v -0.500000 1.000000 0.147001
v 0.000000 0.500000 0.147001
v -0.500000 0.750000 0.147001
vt 0.722266 0.721003
vt 0.722266 0.744113
vt 0.736068 0.744113
vt 0.736068 0.721003
vt 0.736154 0.721003
vt 0.736154 0.744113
vt 0.749957 0.744113
vt 0.749957 0.721003
vt 0.763846 0.744113
vt 0.763846 0.721003
vt 0.763932 0.721003
vt 0.763932 0.744113
vt 0.777734 0.744113
vt 0.777734 0.721003
vt 0.722266 0.744259
vt 0.722266 0.767369
vt 0.736068 0.767369
vt 0.736068 0.744259
vt 0.736154 0.744259
vt 0.736154 0.767369
vt 0.749957 0.767369
vt 0.749957 0.744259
vt 0.763846 0.767369
vt 0.763846 0.744259
vt 0.763932 0.744259
vt 0.763932 0.767369
vt 0.777734 0.767369
vt 0.777734 0.744259
vt 0.722266 0.767515
vt 0.722266 0.790625
vt 0.736068 0.790625
vt 0.736068 0.767515
vt 0.736154 0.767515
vt 0.736154 0.790625
vt 0.749957 0.790625
vt 0.749957 0.767515
vt 0.763846 0.790625
vt 0.763846 0.767515
vt 0.763932 0.767515
vt 0.763932 0.790625
vt 0.777734 0.790625
vt 0.777734 0.767515
vt 0.722266 0.790770
vt 0.722266 0.813881
vt 0.736068 0.813881
vt 0.736068 0.790770
vt 0.736154 0.790770
vt 0.736154 0.813881
vt 0.749957 0.813881
vt 0.749957 0.790770
vt 0.763846 0.813881
vt 0.763846 0.790770
vt 0.763932 0.790770
vt 0.763932 0.813881
vt 0.777734 0.813881
vt 0.777734 0.790770
vt 0.722266 0.721003
vt 0.736068 0.721003
vt 0.736068 0.744113
vt 0.722266 0.744113
vt 0.736154 0.721003
vt 0.749957 0.721003
vt 0.749957 0.744113
vt 0.736154 0.744113
vt 0.763846 0.721003
vt 0.763846 0.744113
vt 0.763932 0.721003
vt 0.777734 0.721003
vt 0.777734 0.744113
vt 0.763932 0.744113
vt 0.722266 0.744259
vt 0.736068 0.744259
vt 0.736068 0.767369
vt 0.722266 0.767369
vt 0.736154 0.744259
vt 0.749957 0.744259
vt 0.749957 0.767369
vt 0.736154 0.767369
vt 0.763846 0.744259
vt 0.763846 0.767369
vt 0.763932 0.744259
vt 0.777734 0.744259
vt 0.777734 0.767369
vt 0.763932 0.767369
vt 0.722266 0.767515
vt 0.736068 0.767515
vt 0.736068 0.790625
vt 0.722266 0.790625
vt 0.736154 0.767515
vt 0.749957 0.767515
vt 0.749957 0.790625
vt 0.736154 0.790625
vt 0.763846 0.767515
vt 0.763846 0.790625
vt 0.763932 0.767515
vt 0.777734 0.767515
vt 0.777734 0.790625
vt 0.763932 0.790625
vt 0.722266 0.790770
vt 0.736068 0.790770
vt 0.736068 0.813881
vt 0.722266 0.813881
vt 0.736154 0.790770
vt 0.749957 0.790770
vt 0.749957 0.813881
vt 0.736154 0.813881
vt 0.763846 0.790770
vt 0.763846 0.813881
vt 0.763932 0.790770
vt 0.777734 0.790770
vt 0.777734 0.813881
vt 0.763932 0.813881
vn 0.0000 0.0000 1.0000
vn 0.0000 0.0000 -1.0000
vn -1.0000 0.0000 0.0000
vn 0.0000 -1.0000 0.0000
vn 0.0000 1.0000 0.0000
vn 1.0000 0.0000 0.0000
usemtl sdddd
s off
f 1/1/1 10/2/1 8/3/1 5/4/1
f 5/5/1 8/6/1 15/7/1 6/8/1
f 6/8/1 15/7/1 9/9/1 2/10/1
f 2/11/1 9/12/1 11/13/1 3/14/1
f 10/15/1 14/16/1 12/17/1 8/18/1
f 8/19/1 12/20/1 20/21/1 15/22/1
f 15/22/1 20/21/1 21/23/1 9/24/1
f 9/25/1 21/26/1 16/27/1 11/28/1
f 14/29/1 18/30/1 22/31/1 12/32/1
f 12/33/1 22/34/1 25/35/1 20/36/1
f 20/36/1 25/35/1 13/37/1 21/38/1
f 21/39/1 13/40/1 19/41/1 16/42/1
f 18/43/1 23/44/1 4/45/1 22/46/1
f 22/47/1 4/48/1 24/49/1 25/50/1
f 25/50/1 24/49/1 7/51/1 13/52/1
f 13/53/1 7/54/1 17/55/1 19/56/1
f 40/57/2 34/58/2 36/59/2 42/60/2
f 34/61/2 35/62/2 37/63/2 36/64/2
f 35/62/2 41/65/2 27/66/2 37/63/2
f 41/67/2 30/68/2 26/69/2 27/70/2
f 42/71/2 36/72/2 28/73/2 31/74/2
f 36/75/2 37/76/2 49/77/2 28/78/2
f 37/76/2 27/79/2 33/80/2 49/77/2
f 27/81/2 26/82/2 44/83/2 33/84/2
f 31/85/2 28/86/2 29/87/2 47/88/2
f 28/89/2 49/90/2 39/91/2 29/92/2
f 49/90/2 33/93/2 32/94/2 39/91/2
f 33/95/2 44/96/2 50/97/2 32/98/2
f 47/99/2 29/100/2 45/101/2 46/102/2
f 29/103/2 39/104/2 38/105/2 45/106/2
f 39/104/2 32/107/2 43/108/2 38/105/2
f 32/109/2 50/110/2 48/111/2 43/112/2
f 14/16/3 10/15/3 42/71/3 31/74/3
f 18/30/3 14/29/3 31/85/3 47/88/3
f 4/45/4 23/44/4 46/102/4 45/101/4
f 23/44/3 18/43/3 47/99/3 46/102/3
f 17/55/4 7/54/4 43/112/4 48/111/4
f 5/5/5 6/8/5 35/62/5 34/61/5
f 24/49/4 4/48/4 45/106/4 38/105/4
f 2/11/5 3/14/5 30/68/5 41/67/5
f 7/51/4 24/49/4 38/105/4 43/108/4
f 16/42/6 19/41/6 50/97/6 44/96/6
f 1/1/5 5/4/5 34/58/5 40/57/5
f 10/2/3 1/1/3 40/57/3 42/60/3
f 3/14/6 11/13/6 26/69/6 30/68/6
f 19/56/6 17/55/6 48/111/6 50/110/6
f 6/8/5 2/10/5 41/65/5 35/62/5
f 11/28/6 16/27/6 44/83/6 26/82/6
