# Blender v2.82 (sub 7) OBJ File: 'PipewireDecall.blend'
# www.blender.org
mtllib PipewireDecall.mtl
o Cube
v 0.301777 -0.250000 1.000000
v -0.213388 -0.463388 1.000000
v -0.213388 -0.463388 -0.750000
v -0.000000 0.051777 -1.000000
v 0.213388 -0.036612 -0.500000
v 0.000000 0.051777 0.750000
v -0.213388 -0.036612 0.000000
v 0.000000 -0.551777 0.500000
v -0.000000 0.051777 -0.750000
v -0.213388 -0.036612 0.250000
v 0.213388 -0.463388 1.000000
v 0.213388 -0.036612 -0.750000
v 0.213388 -0.463388 0.500000
v -0.000000 0.051777 0.500000
v -0.213388 -0.036612 -0.500000
v -0.000000 0.051777 0.250000
v -0.213388 -0.036612 -0.250000
v 0.213388 -0.463388 0.750000
v 0.000000 0.051777 0.000000
v -0.000000 0.051777 -0.250000
v -0.000000 0.051777 -0.500000
v -0.213388 -0.463388 -0.250000
v 0.213388 -0.036612 0.750000
v -0.213388 -0.036612 0.500000
v 0.000000 0.051777 1.000000
v -0.213388 -0.463388 -0.500000
v 0.213388 -0.036612 1.000000
v -0.213388 -0.036612 -0.750000
v 0.213388 -0.463388 -1.000000
v -0.213388 -0.036612 -1.000000
v -0.301777 -0.250000 -1.000000
v -0.213388 -0.463388 0.500000
v -0.301777 -0.250000 -0.750000
v -0.301777 -0.250000 -0.500000
v -0.301777 -0.250000 0.000000
v -0.213388 -0.463388 0.750000
v 0.000000 -0.551777 -1.000000
v -0.301777 -0.250000 0.500000
v -0.301777 -0.250000 -0.250000
v -0.301777 -0.250000 0.750000
v -0.301777 -0.250000 0.250000
v -0.301777 -0.250000 1.000000
v -0.213388 -0.036612 1.000000
v -0.213388 -0.036612 0.750000
v -0.000000 -0.551777 1.000000
v -0.213388 -0.463388 -1.000000
v 0.301777 -0.250000 0.500000
v -0.000000 -0.551777 0.750000
v 0.213388 -0.463388 0.000000
v 0.000000 -0.551777 -0.750000
v -0.213388 -0.463388 0.250000
v 0.000000 -0.551777 0.250000
v 0.213388 -0.463388 0.250000
v 0.000000 -0.551777 -0.250000
v 0.213388 -0.036612 0.000000
v -0.213388 -0.463388 0.000000
v -0.000000 -0.551777 0.000000
v 0.000000 -0.551777 -0.500000
v 0.213388 -0.463388 -0.500000
v 0.301777 -0.250000 -0.750000
v 0.213388 -0.036612 -1.000000
v 0.213388 -0.036612 -0.250000
v 0.213388 -0.463388 -0.750000
v 0.301777 -0.250000 -0.500000
v 0.213388 -0.463388 -0.250000
v 0.213388 -0.036612 0.250000
v 0.301777 -0.250000 -1.000000
v 0.301777 -0.250000 -0.250000
v 0.213388 -0.036612 0.500000
v 0.301777 -0.250000 0.250000
v 0.301777 -0.250000 0.750000
v 0.301777 -0.250000 0.000000
vt 0.013932 0.721003
vt 0.027734 0.721003
vt 0.027734 0.744113
vt 0.013932 0.744113
vt 0.013932 0.721003
vt 0.027734 0.721003
vt 0.027734 0.744113
vt 0.013932 0.744113
vt 0.013932 0.721003
vt 0.027734 0.721003
vt 0.027734 0.744113
vt 0.013932 0.744113
vt 0.013932 0.721003
vt 0.027734 0.721003
vt 0.027734 0.744113
vt 0.013932 0.744113
vt 0.013932 0.721003
vt 0.027734 0.721003
vt 0.027734 0.744113
vt 0.013932 0.744113
vt 0.013932 0.721003
vt 0.027734 0.721003
vt 0.027734 0.744113
vt 0.013932 0.744113
vt 0.013932 0.721003
vt 0.027734 0.721003
vt 0.027734 0.744113
vt 0.013932 0.744113
vt 0.013932 0.721003
vt 0.027734 0.721003
vt 0.027734 0.744113
vt 0.013932 0.744113
vt 0.013932 0.721003
vt 0.027734 0.721003
vt 0.027734 0.744113
vt 0.013932 0.744113
vt 0.013932 0.721003
vt 0.027734 0.721003
vt 0.027734 0.744113
vt 0.013932 0.744113
vt 0.013932 0.721003
vt 0.027734 0.721003
vt 0.027734 0.744113
vt 0.013932 0.744113
vt 0.013932 0.721003
vt 0.027734 0.721003
vt 0.027734 0.744113
vt 0.013932 0.744113
vt 0.013932 0.721003
vt 0.027734 0.721003
vt 0.027734 0.744113
vt 0.013932 0.744113
vt 0.013932 0.721003
vt 0.027734 0.721003
vt 0.027734 0.744113
vt 0.013932 0.744113
vt 0.013845 0.790770
vt 0.013845 0.813881
vt 0.000043 0.813881
vt 0.000043 0.790770
vt 0.013845 0.790770
vt 0.013845 0.813881
vt 0.000043 0.813881
vt 0.000043 0.790770
vt 0.013932 0.721003
vt 0.027734 0.721003
vt 0.013932 0.744113
vt 0.013932 0.721003
vt 0.027734 0.721003
vt 0.013932 0.744113
vt 0.013932 0.721003
vt 0.027734 0.721003
vt 0.027734 0.744113
vt 0.013932 0.744113
vt 0.013932 0.721003
vt 0.027734 0.721003
vt 0.027734 0.744113
vt 0.013932 0.744113
vt 0.013932 0.721003
vt 0.027734 0.721003
vt 0.027734 0.744113
vt 0.013932 0.744113
vt 0.013932 0.721003
vt 0.027734 0.721003
vt 0.027734 0.744113
vt 0.013932 0.744113
vt 0.013932 0.721003
vt 0.027734 0.721003
vt 0.027734 0.744113
vt 0.013932 0.744113
vt 0.013932 0.721003
vt 0.027734 0.721003
vt 0.027734 0.744113
vt 0.013932 0.744113
vt 0.013932 0.721003
vt 0.027734 0.721003
vt 0.027734 0.744113
vt 0.013932 0.744113
vt 0.013845 0.813881
vt 0.000043 0.813881
vt 0.000043 0.790770
vt 0.013845 0.790770
vt 0.013845 0.813881
vt 0.000043 0.813881
vt 0.000043 0.790770
vt 0.013845 0.790770
vt 0.013932 0.721003
vt 0.027734 0.721003
vt 0.013932 0.744113
vt 0.013932 0.721003
vt 0.027734 0.721003
vt 0.013932 0.744113
vt 0.013932 0.721003
vt 0.027734 0.721003
vt 0.013932 0.744113
vt 0.013932 0.721003
vt 0.027734 0.721003
vt 0.013932 0.744113
vt 0.013932 0.721003
vt 0.027734 0.721003
vt 0.013932 0.744113
vt 0.013845 0.790770
vt 0.013845 0.813881
vt 0.000043 0.813881
vt 0.000043 0.790770
vt 0.013845 0.790770
vt 0.013845 0.813881
vt 0.000043 0.813881
vt 0.000043 0.790770
vt 0.013932 0.721003
vt 0.027734 0.721003
vt 0.027734 0.744113
vt 0.013932 0.744113
vt 0.013932 0.721003
vt 0.027734 0.721003
vt 0.027734 0.744113
vt 0.013932 0.744113
vt 0.013932 0.721003
vt 0.027734 0.721003
vt 0.027734 0.744113
vt 0.013932 0.744113
vt 0.013932 0.721003
vt 0.027734 0.744113
vt 0.013932 0.744113
vt 0.013932 0.721003
vt 0.027734 0.744113
vt 0.013932 0.744113
vt 0.013932 0.721003
vt 0.027734 0.744113
vt 0.013932 0.744113
vt 0.013932 0.721003
vt 0.027734 0.744113
vt 0.013932 0.744113
vt 0.013932 0.721003
vt 0.027734 0.744113
vt 0.013932 0.744113
vt 0.013932 0.721003
vt 0.027734 0.744113
vt 0.013932 0.744113
vt 0.013932 0.721003
vt 0.027734 0.744113
vt 0.013932 0.744113
vt 0.013932 0.721003
vt 0.027734 0.721003
vt 0.027734 0.744113
vt 0.013932 0.744113
vt 0.013932 0.721003
vt 0.027734 0.721003
vt 0.027734 0.744113
vt 0.013932 0.744113
vt 0.013932 0.721003
vt 0.027734 0.721003
vt 0.027734 0.744113
vt 0.013932 0.744113
vt 0.013932 0.721003
vt 0.027734 0.721003
vt 0.027734 0.744113
vt 0.013932 0.744113
vt 0.013932 0.721003
vt 0.027734 0.721003
vt 0.027734 0.744113
vt 0.027734 0.721003
vt 0.027734 0.744113
vt 0.013932 0.744113
vt 0.027734 0.721003
vt 0.027734 0.744113
vt 0.013932 0.744113
vt 0.027734 0.721003
vt 0.027734 0.744113
vt 0.013932 0.744113
vt 0.027734 0.721003
vt 0.027734 0.744113
vt 0.013932 0.744113
vt 0.027734 0.721003
vt 0.027734 0.744113
vt 0.013932 0.744113
vt 0.027734 0.721003
vt 0.027734 0.744113
vt 0.013932 0.744113
vt 0.027734 0.721003
vt 0.027734 0.744113
vt 0.013932 0.744113
vt 0.000043 0.790770
vt 0.013845 0.790770
vt 0.013845 0.813881
vt 0.000043 0.813881
vt 0.000043 0.790770
vt 0.013845 0.790770
vt 0.013845 0.813881
vt 0.000043 0.813881
vt 0.013932 0.721003
vt 0.027734 0.721003
vt 0.027734 0.744113
vt 0.013932 0.721003
vt 0.027734 0.721003
vt 0.027734 0.744113
vt 0.013932 0.721003
vt 0.027734 0.721003
vt 0.027734 0.744113
vt 0.013932 0.721003
vt 0.027734 0.721003
vt 0.027734 0.744113
vt 0.013932 0.721003
vt 0.027734 0.721003
vt 0.027734 0.744113
vt 0.013932 0.721003
vt 0.027734 0.721003
vt 0.027734 0.744113
vn -0.3827 0.9239 -0.0000
vn 0.3827 0.9239 0.0000
vn -0.9239 0.3827 0.0000
vn -0.9239 -0.3827 0.0000
vn -0.3827 -0.9239 0.0000
vn 0.3827 -0.9239 0.0000
vn 0.9239 -0.3827 0.0000
vn 0.9239 0.3827 0.0000
usemtl sdddd
s off
f 21/1/1 15/2/1 17/3/1 20/4/1
f 5/5/2 21/6/2 20/7/2 62/8/2
f 9/9/1 28/10/1 15/11/1 21/12/1
f 12/13/2 9/14/2 21/15/2 5/16/2
f 4/17/1 30/18/1 28/19/1 9/20/1
f 61/21/2 4/22/2 9/23/2 12/24/2
f 14/25/1 24/26/1 44/27/1 6/28/1
f 69/29/2 14/30/2 6/31/2 23/32/2
f 16/33/1 10/34/1 24/35/1 14/36/1
f 66/37/2 16/38/2 14/39/2 69/40/2
f 19/41/1 7/42/1 10/43/1 16/44/1
f 55/45/2 19/46/2 16/47/2 66/48/2
f 20/49/1 17/50/1 7/51/1 19/52/1
f 62/53/2 20/54/2 19/55/2 55/56/2
f 6/57/1 44/58/1 43/59/1 25/60/1
f 23/61/2 6/62/2 25/63/2 27/64/2
f 33/65/3 34/66/3 15/11/3 28/67/3
f 31/68/3 33/69/3 28/19/3 30/70/3
f 46/71/4 3/72/4 33/73/4 31/74/4
f 3/75/4 26/76/4 34/77/4 33/78/4
f 26/79/4 22/80/4 39/81/4 34/82/4
f 22/83/4 56/84/4 35/85/4 39/86/4
f 56/87/4 51/88/4 41/89/4 35/90/4
f 51/91/4 32/92/4 38/93/4 41/94/4
f 32/95/4 36/96/4 40/97/4 38/98/4
f 36/99/4 2/100/4 42/101/4 40/102/4
f 40/103/3 42/104/3 43/105/3 44/106/3
f 38/107/3 40/108/3 44/27/3 24/109/3
f 41/110/3 38/111/3 24/35/3 10/112/3
f 35/113/3 41/114/3 10/43/3 7/115/3
f 39/116/3 35/117/3 7/51/3 17/118/3
f 34/119/3 39/120/3 17/3/3 15/121/3
f 45/122/5 2/123/5 36/124/5 48/125/5
f 11/126/6 45/127/6 48/128/6 18/129/6
f 18/130/6 48/131/6 8/132/6 13/133/6
f 13/134/6 8/135/6 52/136/6 53/137/6
f 53/138/6 52/139/6 57/140/6 49/141/6
f 52/142/5 51/88/5 56/143/5 57/144/5
f 57/145/5 56/84/5 22/146/5 54/147/5
f 54/148/5 22/80/5 26/149/5 58/150/5
f 58/151/5 26/76/5 3/152/5 50/153/5
f 8/154/5 32/92/5 51/155/5 52/156/5
f 48/157/5 36/96/5 32/158/5 8/159/5
f 50/160/5 3/72/5 46/161/5 37/162/5
f 63/163/6 50/164/6 37/165/6 29/166/6
f 59/167/6 58/168/6 50/169/6 63/170/6
f 65/171/6 54/172/6 58/173/6 59/174/6
f 49/175/6 57/176/6 54/177/6 65/178/6
f 67/179/7 60/180/7 63/181/7 29/166/7
f 61/21/8 12/182/8 60/183/8 67/184/8
f 12/13/8 5/185/8 64/186/8 60/187/8
f 5/5/8 62/188/8 68/189/8 64/190/8
f 62/53/8 55/191/8 72/192/8 68/193/8
f 55/45/8 66/194/8 70/195/8 72/196/8
f 66/37/8 69/197/8 47/198/8 70/199/8
f 69/29/8 23/200/8 71/201/8 47/202/8
f 23/203/8 27/204/8 1/205/8 71/206/8
f 71/207/7 1/208/7 11/209/7 18/210/7
f 47/211/7 71/212/7 18/213/7 13/133/7
f 70/214/7 47/215/7 13/216/7 53/137/7
f 72/217/7 70/218/7 53/219/7 49/141/7
f 68/220/7 72/221/7 49/222/7 65/178/7
f 64/223/7 68/224/7 65/225/7 59/174/7
f 60/226/7 64/227/7 59/228/7 63/170/7
