# Blender v2.82 (sub 7) OBJ File: 'crater005.blend'
# www.blender.org
mtllib crater005.mtl
o Cube
v 0.500000 1.000000 -1.000000
v 0.000000 1.000000 -0.500000
v -0.500000 0.000000 0.000000
v 0.500000 0.500000 -1.000000
v 0.000000 0.500000 0.000000
v -0.500000 0.500000 -1.000000
v -0.500000 0.000000 -1.000000
v 0.500000 0.500000 -0.500000
v -0.500000 1.000000 0.000000
v 0.500000 1.000000 -0.500000
v 0.500000 0.500000 0.500000
v -0.500000 0.000000 0.500000
v -0.500000 0.500000 -0.500000
v -0.500000 1.000000 -1.000000
v 0.000000 0.500000 -1.000000
v 0.000000 1.000000 0.000000
v -0.500000 1.000000 -0.500000
v 0.500000 0.000000 0.000000
v 0.500000 0.000000 0.500000
v 0.000000 1.000000 -1.000000
v -0.500000 0.000000 -0.500000
v 0.500000 0.000000 -1.000000
v 0.500000 0.500000 0.000000
v 0.500000 1.000000 0.000000
v -0.500000 0.500000 0.000000
v 0.000000 0.000000 0.000000
v 0.000000 0.000000 0.500000
v 0.500000 1.000000 0.500000
v 0.000000 0.500000 0.500000
v -0.500000 1.000000 0.500000
v 0.000000 1.000000 0.500000
v -0.500000 0.500000 0.500000
v 0.500000 0.000000 -0.500000
v 0.000000 0.000000 -0.500000
v 0.000000 0.000000 -1.000000
vt 0.249957 0.799922
vt 0.249957 0.750078
vt 0.222266 0.750078
vt 0.222266 0.799922
vt 0.305512 0.750078
vt 0.277821 0.750078
vt 0.277821 0.799922
vt 0.305512 0.799922
vt 0.722266 0.750078
vt 0.749957 0.750078
vt 0.749957 0.799922
vt 0.722266 0.799922
vt 0.805599 0.750078
vt 0.833290 0.750078
vt 0.833290 0.799922
vt 0.805599 0.799922
vt 0.805599 0.600078
vt 0.833290 0.600078
vt 0.833290 0.649922
vt 0.805599 0.649922
vt 0.722266 0.600078
vt 0.749957 0.600078
vt 0.749957 0.649922
vt 0.722266 0.649922
vt 0.222266 0.649922
vt 0.249957 0.649922
vt 0.249957 0.600078
vt 0.222266 0.600078
vt 0.277821 0.600078
vt 0.277821 0.649922
vt 0.305512 0.649922
vt 0.305512 0.600078
vt 0.416623 0.600078
vt 0.388932 0.600078
vt 0.388932 0.649922
vt 0.416623 0.649922
vt 0.444401 0.600078
vt 0.416710 0.600078
vt 0.416710 0.649922
vt 0.444401 0.649922
vt 0.444401 0.750078
vt 0.416710 0.750078
vt 0.416710 0.799922
vt 0.444401 0.799922
vt 0.416623 0.750078
vt 0.388932 0.750078
vt 0.388932 0.799922
vt 0.416623 0.799922
vt 0.361068 0.750078
vt 0.333377 0.750078
vt 0.333377 0.799922
vt 0.361068 0.799922
vt 0.361068 0.600078
vt 0.333377 0.600078
vt 0.333377 0.649922
vt 0.361068 0.649922
vt 0.333377 0.600078
vt 0.333377 0.649922
vt 0.333377 0.750078
vt 0.333377 0.799922
vt 0.388845 0.750078
vt 0.361154 0.750078
vt 0.361154 0.799922
vt 0.388845 0.799922
vt 0.361068 0.750078
vt 0.361068 0.799922
vt 0.361068 0.600078
vt 0.361068 0.649922
vt 0.388845 0.600078
vt 0.361154 0.600078
vt 0.361154 0.649922
vt 0.388845 0.649922
vt 0.305512 0.649922
vt 0.277821 0.649922
vt 0.277821 0.600078
vt 0.305512 0.600078
vt 0.305599 0.600078
vt 0.333290 0.600078
vt 0.333290 0.649922
vt 0.305599 0.649922
vt 0.277821 0.600078
vt 0.305512 0.600078
vt 0.305512 0.649922
vt 0.277821 0.649922
vt 0.333290 0.600078
vt 0.305599 0.600078
vt 0.305599 0.649922
vt 0.333290 0.649922
vt 0.361068 0.750078
vt 0.333377 0.750078
vt 0.333377 0.799922
vt 0.361068 0.799922
vt 0.361068 0.600078
vt 0.333377 0.600078
vt 0.333377 0.649922
vt 0.361068 0.649922
vt 0.444401 0.600078
vt 0.416710 0.600078
vt 0.416710 0.649922
vt 0.444401 0.649922
vt 0.444401 0.750078
vt 0.416710 0.750078
vt 0.416710 0.799922
vt 0.444401 0.799922
vt 0.333290 0.600078
vt 0.305599 0.600078
vt 0.305599 0.649922
vt 0.333290 0.649922
vt 0.333290 0.750078
vt 0.305599 0.750078
vt 0.305599 0.799922
vt 0.333290 0.799922
vt 0.333290 0.750078
vt 0.305599 0.750078
vt 0.305599 0.799922
vt 0.249957 0.750078
vt 0.222266 0.750078
vt 0.222266 0.799922
vt 0.249957 0.799922
vt 0.249957 0.600078
vt 0.222266 0.600078
vt 0.222266 0.649922
vt 0.249957 0.649922
vt 0.333290 0.600078
vt 0.305599 0.600078
vt 0.305599 0.649922
vt 0.333290 0.649922
vt 0.305599 0.600078
vt 0.305599 0.600078
vt 0.333290 0.600078
vn 0.0000 1.0000 0.0000
vn 0.0000 0.0000 1.0000
vn -1.0000 0.0000 0.0000
vn 0.0000 0.0000 -1.0000
vn 1.0000 0.0000 0.0000
vn 0.0000 -1.0000 0.0000
usemtl CratesAndContainaers
s off
f 17/1/1 2/2/1 20/3/1 14/4/1
f 16/5/1 2/6/1 17/7/1 9/8/1
f 25/9/2 5/10/2 16/11/2 9/12/2
f 5/13/2 23/14/2 24/15/2 16/16/2
f 26/17/2 18/18/2 23/19/2 5/20/2
f 3/21/2 26/22/2 5/23/2 25/24/2
f 20/25/1 2/26/1 10/27/1 1/28/1
f 10/29/1 2/30/1 16/31/1 24/32/1
f 21/33/3 3/34/3 25/35/3 13/36/3
f 7/37/3 21/38/3 13/39/3 6/40/3
f 6/41/3 13/42/3 17/43/3 14/44/3
f 13/45/3 25/46/3 9/47/3 17/48/3
f 15/49/4 6/50/4 14/51/4 20/52/4
f 35/53/4 7/54/4 6/55/4 15/56/4
f 22/57/4 35/53/4 15/56/4 4/58/4
f 4/59/4 15/49/4 20/52/4 1/60/4
f 23/61/5 8/62/5 10/63/5 24/64/5
f 8/65/5 4/59/5 1/60/5 10/66/5
f 33/67/5 22/57/5 4/58/5 8/68/5
f 18/69/5 33/70/5 8/71/5 23/72/5
f 34/73/6 26/74/6 3/75/6 21/76/6
f 18/77/6 19/78/6 27/79/6 26/80/6
f 33/81/6 18/82/6 26/83/6 34/84/6
f 22/85/6 33/86/6 34/87/6 35/88/6
f 25/89/3 32/90/3 30/91/3 9/92/3
f 3/93/3 12/94/3 32/95/3 25/96/3
f 19/97/5 18/98/5 23/99/5 11/100/5
f 11/101/5 23/102/5 24/103/5 28/104/5
f 28/105/1 24/106/1 16/107/1 31/108/1
f 31/109/1 16/110/1 9/111/1 30/112/1
f 32/113/2 29/114/2 31/115/2 30/112/2
f 29/116/2 11/117/2 28/118/2 31/119/2
f 27/120/2 19/121/2 11/122/2 29/123/2
f 12/124/2 27/125/2 29/126/2 32/127/2
f 26/80/6 27/79/6 12/124/6 3/128/6
f 35/88/6 34/87/6 21/129/6 7/130/6
