# Blender v2.82 (sub 7) OBJ File: 'Misc6.blend'
# www.blender.org
mtllib Misc6.mtl
o Cube
v -0.652407 0.750000 -0.500000
v -0.750000 0.250000 1.000000
v -0.652407 0.750000 -0.750000
v -0.750000 0.000000 1.000000
v -0.750000 0.750000 -0.250000
v -0.750000 0.750000 0.000000
v 0.000000 0.000000 0.250000
v -0.750000 0.750000 0.250000
v -0.750000 0.750000 1.000000
v -0.652407 0.750000 0.250000
v -0.750000 0.250000 0.500000
v -0.489801 0.500000 -0.750000
v -0.543725 0.500000 -0.500000
v -0.489801 0.500000 0.750000
v -0.489801 0.500000 0.250000
v 0.000000 0.000000 0.750000
v -0.489801 0.500000 -0.250000
v -0.543725 0.500000 0.500000
v -0.543725 0.500000 0.000000
v -0.589967 0.250000 -0.750000
v -0.589967 0.250000 -0.500000
v -0.589967 0.250000 0.500000
v -0.589967 0.250000 -0.250000
v -0.589967 0.250000 0.250000
v -0.589967 0.250000 0.750000
v -0.250000 0.250000 -0.500000
v -0.250000 0.315481 -0.750000
v -0.242955 0.250000 1.000000
v -0.589967 0.250000 0.000000
v -0.250000 0.250000 -1.000000
v -0.250000 0.315481 0.250000
v -0.250000 0.315481 -0.250000
v 0.000000 0.000000 1.000000
v -0.250000 0.250000 0.000000
v -0.054376 0.185791 -0.250000
v -0.054376 0.185791 -1.000000
v -0.250000 0.250000 0.500000
v -0.054376 0.185791 0.000000
v -0.054376 0.185791 -0.750000
v -0.250000 0.000000 -0.750000
v -0.250000 0.315481 0.750000
v 0.000000 0.000000 -0.500000
v -0.054376 0.185791 -0.500000
v 0.000000 0.000000 0.000000
v -0.054376 0.185791 0.250000
v 0.000000 0.000000 -0.250000
v -0.054376 0.185791 0.500000
v -0.250000 0.000000 -1.000000
v 0.000000 0.000000 0.500000
v -0.054376 0.185791 1.000000
v -0.054376 0.185791 0.750000
v 0.000000 0.000000 -0.750000
v -0.242955 0.250000 -1.000000
v -0.652407 0.750000 -0.250000
v -0.652407 0.750000 0.000000
v -0.750000 0.750000 0.500000
v -0.652407 0.750000 0.500000
v -0.652407 0.750000 0.750000
v -0.652407 0.750000 1.000000
v -0.750000 0.000000 -0.500000
v -0.543725 0.500000 -1.000000
v -0.652407 0.750000 -1.000000
v -0.500000 0.000000 -1.000000
v -0.500000 0.000000 -0.250000
v -0.750000 0.250000 -1.000000
v -0.589967 0.250000 -1.000000
v -0.500000 0.000000 0.750000
v -0.750000 0.250000 0.750000
v -0.750000 0.750000 -0.750000
v -0.750000 0.750000 -1.000000
v -0.673027 0.500000 -1.000000
v -0.500000 0.000000 0.000000
v -0.750000 0.750000 -0.500000
v -0.750000 0.250000 0.250000
v -0.673027 0.500000 -0.500000
v -0.673027 0.500000 -0.750000
v -0.673027 0.500000 -0.250000
v -0.673027 0.500000 0.000000
v -0.242955 0.000000 -1.000000
v -0.673027 0.500000 0.250000
v -0.673027 0.500000 0.750000
v -0.673027 0.500000 0.500000
v -0.673027 0.500000 1.000000
v -0.543725 0.500000 1.000000
v -0.750000 0.750000 0.750000
v -0.500000 0.000000 1.000000
v -0.250000 0.250000 1.000000
v -0.589967 0.250000 1.000000
v -0.242955 0.000000 1.000000
v -0.750000 0.000000 -1.000000
v -0.250000 0.000000 0.000000
v -0.750000 0.250000 -0.750000
v -0.250000 0.000000 -0.250000
v -0.250000 0.000000 0.500000
v -0.750000 0.250000 -0.500000
v -0.750000 0.250000 -0.250000
v -0.750000 0.250000 0.000000
v 0.000000 0.000000 -1.000000
v -0.250000 0.000000 -0.500000
v -0.500000 0.000000 0.250000
v -0.250000 0.000000 0.750000
v -0.250000 0.000000 1.000000
v -0.250000 0.000000 0.250000
v -0.500000 0.000000 -0.750000
v -0.500000 0.000000 -0.500000
v -0.500000 0.000000 0.500000
v -0.750000 0.000000 -0.750000
v -0.750000 0.000000 -0.250000
v -0.750000 0.000000 0.000000
v -0.750000 0.000000 0.250000
v -0.750000 0.000000 0.500000
v -0.750000 0.000000 0.750000
vt 0.557632 0.305642
vt 0.538522 0.305642
vt 0.538522 0.333247
vt 0.557632 0.333247
vt 0.557632 0.277865
vt 0.538522 0.277865
vt 0.538522 0.305469
vt 0.557632 0.305469
vt 0.557632 0.305642
vt 0.538522 0.305642
vt 0.538522 0.333247
vt 0.557632 0.333247
vt 0.557632 0.277865
vt 0.538522 0.277865
vt 0.538522 0.305469
vt 0.557632 0.305469
vt 0.557632 0.305642
vt 0.538522 0.305642
vt 0.538522 0.333247
vt 0.557632 0.333247
vt 0.557632 0.277865
vt 0.538522 0.277865
vt 0.538522 0.305469
vt 0.557632 0.305469
vt 0.557632 0.305642
vt 0.538522 0.305642
vt 0.538522 0.333247
vt 0.557632 0.333247
vt 0.557632 0.277865
vt 0.538522 0.277865
vt 0.538522 0.305469
vt 0.557632 0.305469
vt 0.403786 0.305642
vt 0.384676 0.305642
vt 0.384676 0.333247
vt 0.403786 0.333247
vt 0.423017 0.305642
vt 0.403906 0.305642
vt 0.403906 0.333247
vt 0.423017 0.333247
vt 0.442248 0.305642
vt 0.423137 0.305642
vt 0.423137 0.333247
vt 0.442248 0.333247
vt 0.461478 0.305642
vt 0.442368 0.305642
vt 0.442368 0.333247
vt 0.461478 0.333247
vt 0.480709 0.305642
vt 0.461599 0.305642
vt 0.461599 0.333247
vt 0.480709 0.333247
vt 0.499940 0.305642
vt 0.480829 0.305642
vt 0.480829 0.333247
vt 0.499940 0.333247
vt 0.519171 0.305642
vt 0.500060 0.305642
vt 0.500060 0.333247
vt 0.519171 0.333247
vt 0.538401 0.305642
vt 0.519291 0.305642
vt 0.519291 0.333247
vt 0.538401 0.333247
vt 0.403786 0.277865
vt 0.384676 0.277865
vt 0.384676 0.305469
vt 0.403786 0.305469
vt 0.423017 0.277865
vt 0.403906 0.277865
vt 0.403906 0.305469
vt 0.423017 0.305469
vt 0.442248 0.277865
vt 0.423137 0.277865
vt 0.423137 0.305469
vt 0.442248 0.305469
vt 0.461478 0.277865
vt 0.442368 0.277865
vt 0.442368 0.305469
vt 0.461478 0.305469
vt 0.480709 0.277865
vt 0.461599 0.277865
vt 0.461599 0.305469
vt 0.480709 0.305469
vt 0.499940 0.277865
vt 0.480829 0.277865
vt 0.480829 0.305469
vt 0.499940 0.305469
vt 0.519171 0.277865
vt 0.500060 0.277865
vt 0.500060 0.305469
vt 0.519171 0.305469
vt 0.538401 0.277865
vt 0.519291 0.277865
vt 0.519291 0.305469
vt 0.538401 0.305469
vt 0.403786 0.305642
vt 0.384676 0.305642
vt 0.384676 0.333247
vt 0.403786 0.333247
vt 0.423017 0.305642
vt 0.403906 0.305642
vt 0.403906 0.333247
vt 0.423017 0.333247
vt 0.442248 0.305642
vt 0.423137 0.305642
vt 0.423137 0.333247
vt 0.442248 0.333247
vt 0.461478 0.305642
vt 0.442368 0.305642
vt 0.442368 0.333247
vt 0.461478 0.333247
vt 0.480709 0.305642
vt 0.461599 0.305642
vt 0.461599 0.333247
vt 0.480709 0.333247
vt 0.499940 0.305642
vt 0.480829 0.305642
vt 0.480829 0.333247
vt 0.499940 0.333247
vt 0.519171 0.305642
vt 0.500060 0.305642
vt 0.500060 0.333247
vt 0.519171 0.333247
vt 0.538401 0.305642
vt 0.519291 0.305642
vt 0.519291 0.333247
vt 0.538401 0.333247
vt 0.403786 0.277865
vt 0.384676 0.277865
vt 0.384676 0.305469
vt 0.403786 0.305469
vt 0.423017 0.277865
vt 0.403906 0.277865
vt 0.403906 0.305469
vt 0.423017 0.305469
vt 0.442248 0.277865
vt 0.423137 0.277865
vt 0.423137 0.305469
vt 0.442248 0.305469
vt 0.461478 0.277865
vt 0.442368 0.277865
vt 0.442368 0.305469
vt 0.461478 0.305469
vt 0.480709 0.277865
vt 0.461599 0.277865
vt 0.461599 0.305469
vt 0.480709 0.305469
vt 0.499940 0.277865
vt 0.480829 0.277865
vt 0.480829 0.305469
vt 0.499940 0.305469
vt 0.519171 0.277865
vt 0.500060 0.277865
vt 0.500060 0.305469
vt 0.519171 0.305469
vt 0.538401 0.277865
vt 0.519291 0.277865
vt 0.519291 0.305469
vt 0.538401 0.305469
vt 0.403786 0.250087
vt 0.384676 0.250087
vt 0.384676 0.277691
vt 0.403786 0.277691
vt 0.423017 0.250087
vt 0.403906 0.250087
vt 0.403906 0.277691
vt 0.423017 0.277691
vt 0.442248 0.250087
vt 0.423137 0.250087
vt 0.423137 0.277691
vt 0.442248 0.277691
vt 0.461478 0.250087
vt 0.442368 0.250087
vt 0.442368 0.277691
vt 0.461478 0.277691
vt 0.480709 0.250087
vt 0.461599 0.250087
vt 0.461599 0.277691
vt 0.480709 0.277691
vt 0.499940 0.250087
vt 0.480829 0.250087
vt 0.480829 0.277691
vt 0.499940 0.277691
vt 0.519171 0.250087
vt 0.500060 0.250087
vt 0.500060 0.277691
vt 0.519171 0.277691
vt 0.538401 0.250087
vt 0.519291 0.250087
vt 0.519291 0.277691
vt 0.538401 0.277691
vt 0.557632 0.277865
vt 0.538522 0.277865
vt 0.538522 0.305469
vt 0.557632 0.305469
vt 0.557632 0.305642
vt 0.538522 0.305642
vt 0.538522 0.333247
vt 0.557632 0.333247
vt 0.557632 0.250087
vt 0.538522 0.250087
vt 0.538522 0.277691
vt 0.557632 0.277691
vt 0.576863 0.250087
vt 0.557752 0.250087
vt 0.557752 0.277691
vt 0.576863 0.277691
vt 0.596094 0.277865
vt 0.576983 0.277865
vt 0.576983 0.305469
vt 0.596094 0.305469
vt 0.409722 0.325654
vt 0.395833 0.325654
vt 0.395833 0.348765
vt 0.409722 0.348765
vt 0.416623 0.325654
vt 0.402821 0.325654
vt 0.402821 0.348765
vt 0.416623 0.348765
vt 0.596094 0.277865
vt 0.576983 0.277865
vt 0.576983 0.305469
vt 0.596094 0.305469
vt 0.596094 0.277865
vt 0.576983 0.277865
vt 0.576983 0.305469
vt 0.596094 0.305469
vt 0.596094 0.277865
vt 0.576983 0.277865
vt 0.576983 0.305469
vt 0.596094 0.305469
vt 0.493056 0.313953
vt 0.506944 0.313953
vt 0.506944 0.337209
vt 0.493056 0.337209
vt 0.506944 0.313953
vt 0.493056 0.313953
vt 0.493056 0.337209
vt 0.506944 0.337209
vt 0.506944 0.313953
vt 0.493056 0.313953
vt 0.493056 0.337209
vt 0.506944 0.337209
vt 0.596094 0.277865
vt 0.576983 0.277865
vt 0.576983 0.305469
vt 0.596094 0.305469
vt 0.596094 0.277865
vt 0.576983 0.277865
vt 0.576983 0.305469
vt 0.596094 0.305469
vt 0.596094 0.277865
vt 0.576983 0.277865
vt 0.576983 0.305469
vt 0.596094 0.305469
vt 0.596094 0.277865
vt 0.576983 0.277865
vt 0.576983 0.305469
vt 0.596094 0.305469
vt 0.596094 0.277865
vt 0.576983 0.277865
vt 0.576983 0.305469
vt 0.596094 0.305469
vt 0.596094 0.277865
vt 0.576983 0.277865
vt 0.576983 0.305469
vt 0.596094 0.305469
vt 0.596094 0.277865
vt 0.576983 0.277865
vt 0.576983 0.305469
vt 0.596094 0.305469
vt 0.557632 0.305642
vt 0.538522 0.305642
vt 0.538522 0.333247
vt 0.557632 0.333247
vt 0.557632 0.305642
vt 0.538522 0.305642
vt 0.538522 0.333247
vt 0.557632 0.333247
vt 0.576863 0.250087
vt 0.557752 0.250087
vt 0.557752 0.277691
vt 0.576863 0.277691
vt 0.557752 0.250087
vt 0.557752 0.277691
vt 0.557632 0.250087
vt 0.538522 0.250087
vt 0.538522 0.277691
vt 0.557632 0.277691
vt 0.557632 0.277691
vt 0.557632 0.250087
vt 0.333290 0.279142
vt 0.319488 0.279142
vt 0.319488 0.302253
vt 0.333290 0.302253
vt 0.249957 0.348910
vt 0.236155 0.348910
vt 0.236155 0.372020
vt 0.249957 0.372020
vt 0.249957 0.348910
vt 0.236155 0.348910
vt 0.236155 0.372020
vt 0.249957 0.372020
vt 0.249957 0.348910
vt 0.236155 0.348910
vt 0.236155 0.372020
vt 0.249957 0.372020
vt 0.249957 0.348910
vt 0.236155 0.348910
vt 0.236155 0.372020
vt 0.249957 0.372020
vt 0.249957 0.348910
vt 0.236155 0.348910
vt 0.236155 0.372020
vt 0.249957 0.372020
vt 0.249957 0.348910
vt 0.236155 0.348910
vt 0.236155 0.372020
vt 0.249957 0.372020
vt 0.333290 0.279142
vt 0.319488 0.279142
vt 0.319488 0.302253
vt 0.333290 0.302253
vt 0.615325 0.305642
vt 0.596214 0.305642
vt 0.596214 0.333247
vt 0.615325 0.333247
vt 0.615325 0.305642
vt 0.596214 0.305642
vt 0.596214 0.333247
vt 0.615325 0.333247
vt 0.615325 0.305642
vt 0.596214 0.305642
vt 0.596214 0.333247
vt 0.615325 0.333247
vt 0.615325 0.305642
vt 0.596214 0.305642
vt 0.596214 0.333247
vt 0.615325 0.333247
vt 0.615325 0.305642
vt 0.596214 0.305642
vt 0.596214 0.333247
vt 0.615325 0.333247
vt 0.615325 0.305642
vt 0.596214 0.305642
vt 0.596214 0.333247
vt 0.615325 0.333247
vt 0.615325 0.305642
vt 0.596214 0.305642
vt 0.596214 0.333247
vt 0.615325 0.333247
vt 0.615325 0.305642
vt 0.596214 0.305642
vt 0.596214 0.333247
vt 0.615325 0.333247
vt 0.615325 0.305642
vt 0.596214 0.305642
vt 0.596214 0.333247
vt 0.615325 0.333247
vt 0.615325 0.305642
vt 0.596214 0.305642
vt 0.596214 0.333247
vt 0.615325 0.333247
vt 0.615325 0.305642
vt 0.596214 0.305642
vt 0.596214 0.333247
vt 0.615325 0.333247
vt 0.615325 0.305642
vt 0.596214 0.305642
vt 0.596214 0.333247
vt 0.615325 0.333247
vt 0.615325 0.305642
vt 0.596214 0.305642
vt 0.596214 0.333247
vt 0.615325 0.333247
vt 0.615325 0.305642
vt 0.596214 0.305642
vt 0.596214 0.333247
vt 0.615325 0.333247
vt 0.615325 0.305642
vt 0.596214 0.305642
vt 0.596214 0.333247
vt 0.615325 0.333247
vt 0.615325 0.305642
vt 0.596214 0.305642
vt 0.596214 0.333247
vt 0.615325 0.333247
vt 0.615325 0.305642
vt 0.596214 0.305642
vt 0.596214 0.333247
vt 0.615325 0.333247
vt 0.615325 0.305642
vt 0.596214 0.305642
vt 0.596214 0.333247
vt 0.615325 0.333247
vt 0.615325 0.305642
vt 0.596214 0.305642
vt 0.596214 0.333247
vt 0.615325 0.333247
vt 0.615325 0.305642
vt 0.596214 0.305642
vt 0.596214 0.333247
vt 0.615325 0.333247
vt 0.615325 0.305642
vt 0.596214 0.305642
vt 0.596214 0.333247
vt 0.615325 0.333247
vt 0.615325 0.305642
vt 0.596214 0.305642
vt 0.596214 0.333247
vt 0.615325 0.333247
vt 0.615325 0.305642
vt 0.596214 0.305642
vt 0.596214 0.333247
vt 0.615325 0.333247
vt 0.615325 0.305642
vt 0.596214 0.305642
vt 0.596214 0.333247
vt 0.615325 0.333247
vn 0.0000 1.0000 0.0000
vn 0.8750 0.4748 -0.0944
vn 0.8750 0.4748 0.0944
vn 0.9546 -0.2795 -0.1030
vn 0.9546 -0.2795 0.1030
vn -0.0951 0.9870 -0.1293
vn -0.0951 0.9870 0.1293
vn 0.4410 0.8899 -0.1165
vn 0.4410 0.8899 0.1165
vn 0.9597 0.2809 0.0000
vn 0.0000 0.0000 -1.0000
vn -0.9557 -0.2943 0.0000
vn -0.9557 0.2943 0.0000
vn 0.0000 0.0000 1.0000
vn -1.0000 0.0000 0.0000
vn 0.0000 -1.0000 0.0000
usemtl sdddd
s off
f 58/1/1 85/2/1 9/3/1 59/4/1
f 57/5/1 56/6/1 85/7/1 58/8/1
f 10/9/1 8/10/1 56/11/1 57/12/1
f 55/13/1 6/14/1 8/15/1 10/16/1
f 54/17/1 5/18/1 6/19/1 55/20/1
f 1/21/1 73/22/1 5/23/1 54/24/1
f 3/25/1 69/26/1 73/27/1 1/28/1
f 62/29/1 70/30/1 69/31/1 3/32/1
f 12/33/2 61/34/2 62/35/2 3/36/2
f 13/37/3 12/38/3 3/39/3 1/40/3
f 17/41/2 13/42/2 1/43/2 54/44/2
f 19/45/3 17/46/3 54/47/3 55/48/3
f 15/49/2 19/50/2 55/51/2 10/52/2
f 18/53/3 15/54/3 10/55/3 57/56/3
f 14/57/2 18/58/2 57/59/2 58/60/2
f 84/61/3 14/62/3 58/63/3 59/64/3
f 20/65/4 66/66/4 61/67/4 12/68/4
f 21/69/5 20/70/5 12/71/5 13/72/5
f 23/73/4 21/74/4 13/75/4 17/76/4
f 29/77/5 23/78/5 17/79/5 19/80/5
f 24/81/4 29/82/4 19/83/4 15/84/4
f 22/85/5 24/86/5 15/87/5 18/88/5
f 25/89/4 22/90/4 18/91/4 14/92/4
f 88/93/5 25/94/5 14/95/5 84/96/5
f 27/97/6 30/98/6 66/99/6 20/100/6
f 26/101/7 27/102/7 20/103/7 21/104/7
f 32/105/6 26/106/6 21/107/6 23/108/6
f 34/109/7 32/110/7 23/111/7 29/112/7
f 31/113/6 34/114/6 29/115/6 24/116/6
f 37/117/7 31/118/7 24/119/7 22/120/7
f 41/121/6 37/122/6 22/123/6 25/124/6
f 87/125/7 41/126/7 25/127/7 88/128/7
f 39/129/8 36/130/8 30/131/8 27/132/8
f 43/133/9 39/134/9 27/135/9 26/136/9
f 35/137/8 43/138/8 26/139/8 32/140/8
f 38/141/9 35/142/9 32/143/9 34/144/9
f 45/145/8 38/146/8 34/147/8 31/148/8
f 47/149/9 45/150/9 31/151/9 37/152/9
f 51/153/8 47/154/8 37/155/8 41/156/8
f 50/157/9 51/158/9 41/159/9 87/160/9
f 52/161/10 98/162/10 36/163/10 39/164/10
f 42/165/10 52/166/10 39/167/10 43/168/10
f 46/169/10 42/170/10 43/171/10 35/172/10
f 44/173/10 46/174/10 35/175/10 38/176/10
f 7/177/10 44/178/10 38/179/10 45/180/10
f 49/181/10 7/182/10 45/183/10 47/184/10
f 16/185/10 49/186/10 47/187/10 51/188/10
f 33/189/10 16/190/10 51/191/10 50/192/10
f 66/193/11 65/194/11 71/195/11 61/196/11
f 61/197/11 71/198/11 70/199/11 62/200/11
f 63/201/11 90/202/11 65/203/11 66/204/11
f 98/205/11 48/206/11 30/207/11 36/208/11
f 71/209/12 76/210/12 69/211/12 70/212/12
f 65/213/13 92/214/13 76/215/13 71/216/13
f 92/217/13 95/218/13 75/219/13 76/220/13
f 95/221/13 96/222/13 77/223/13 75/224/13
f 75/225/12 77/226/12 5/227/12 73/228/12
f 76/229/12 75/230/12 73/231/12 69/232/12
f 77/233/12 78/234/12 6/235/12 5/236/12
f 96/237/13 97/238/13 78/239/13 77/240/13
f 97/241/13 74/242/13 80/243/13 78/244/13
f 74/245/13 11/246/13 82/247/13 80/248/13
f 11/249/13 68/250/13 81/251/13 82/252/13
f 68/253/13 2/254/13 83/255/13 81/256/13
f 82/257/12 81/258/12 85/259/12 56/260/12
f 81/261/12 83/262/12 9/263/12 85/264/12
f 80/265/12 82/266/12 56/267/12 8/268/12
f 78/269/12 80/270/12 8/271/12 6/272/12
f 83/273/14 84/274/14 59/275/14 9/276/14
f 2/277/14 88/278/14 84/279/14 83/280/14
f 4/281/14 86/282/14 88/283/14 2/284/14
f 88/283/14 86/282/14 89/285/14 28/286/14
f 102/287/14 33/288/14 50/289/14 87/290/14
f 63/201/11 66/204/11 53/291/11 79/292/11
f 90/293/15 107/294/15 92/295/15 65/296/15
f 107/297/15 60/298/15 95/299/15 92/300/15
f 60/301/15 108/302/15 96/303/15 95/304/15
f 108/305/15 109/306/15 97/307/15 96/308/15
f 109/309/15 110/310/15 74/311/15 97/312/15
f 110/313/15 111/314/15 11/315/15 74/316/15
f 111/317/15 112/318/15 68/319/15 11/320/15
f 112/321/15 4/322/15 2/323/15 68/324/15
f 112/325/16 67/326/16 86/327/16 4/328/16
f 67/329/16 101/330/16 102/331/16 86/332/16
f 101/333/16 16/334/16 33/335/16 102/336/16
f 94/337/16 49/338/16 16/339/16 101/340/16
f 103/341/16 7/342/16 49/343/16 94/344/16
f 91/345/16 44/346/16 7/347/16 103/348/16
f 93/349/16 46/350/16 44/351/16 91/352/16
f 99/353/16 42/354/16 46/355/16 93/356/16
f 40/357/16 52/358/16 42/359/16 99/360/16
f 63/361/16 48/362/16 40/363/16 104/364/16
f 90/365/16 63/366/16 104/367/16 107/368/16
f 107/369/16 104/370/16 105/371/16 60/372/16
f 60/373/16 105/374/16 64/375/16 108/376/16
f 108/377/16 64/378/16 72/379/16 109/380/16
f 109/381/16 72/382/16 100/383/16 110/384/16
f 110/385/16 100/386/16 106/387/16 111/388/16
f 111/389/16 106/390/16 67/391/16 112/392/16
f 106/393/16 94/394/16 101/395/16 67/396/16
f 100/397/16 103/398/16 94/399/16 106/400/16
f 72/401/16 91/402/16 103/403/16 100/404/16
f 64/405/16 93/406/16 91/407/16 72/408/16
f 105/409/16 99/410/16 93/411/16 64/412/16
f 104/413/16 40/414/16 99/415/16 105/416/16
f 48/417/16 98/418/16 52/419/16 40/420/16
