# Blender v2.82 (sub 7) OBJ File: 'Misc9.blend'
# www.blender.org
mtllib Misc9.mtl
o Cube
v 0.250000 0.500000 0.000000
v 0.000000 0.500000 0.000000
v 0.500000 0.500000 0.000000
v -0.500000 0.500000 0.000000
v 0.250000 0.250000 0.000000
v 0.000000 0.250000 0.000000
v 0.500000 0.250000 0.000000
v -0.500000 0.250000 0.000000
v -0.250000 0.500000 0.000000
v 0.500000 0.000000 0.000000
v 0.250000 0.000000 0.000000
v -0.250000 0.250000 0.000000
v -0.500000 0.000000 0.000000
v 0.500000 -0.250000 0.000000
v 0.250000 -0.250000 0.000000
v -0.250000 -0.250000 0.000000
v 0.000000 0.000000 0.000000
v -0.250000 0.000000 0.000000
v 0.000000 -0.250000 0.000000
v -0.500000 -0.250000 0.000000
v 0.250000 0.500000 -0.089841
v 0.000000 0.500000 -0.089841
v 0.500000 0.500000 -0.089841
v -0.500000 0.500000 -0.089841
v 0.500000 0.250000 -0.089841
v -0.500000 0.250000 -0.089841
v -0.250000 0.500000 -0.089841
v 0.500000 0.000000 -0.089841
v -0.500000 0.000000 -0.089841
v 0.500000 -0.250000 -0.089841
v 0.250000 -0.250000 -0.089841
v -0.250000 -0.250000 -0.089841
v 0.000000 -0.250000 -0.089841
v -0.500000 -0.250000 -0.089841
v 0.205462 0.433193 -0.089841
v 0.000000 0.433193 -0.089841
v 0.410923 0.433193 -0.089841
v -0.410923 0.433193 -0.089841
v 0.410923 0.227731 -0.089841
v -0.410923 0.227731 -0.089841
v -0.205462 0.433193 -0.089841
v 0.410923 0.022269 -0.089841
v -0.410923 0.022269 -0.089841
v 0.410923 -0.183193 -0.089841
v 0.205462 -0.183193 -0.089841
v -0.205462 -0.183193 -0.089841
v 0.000000 -0.183193 -0.089841
v -0.410923 -0.183193 -0.089841
vt 0.673137 0.500087
vt 0.692248 0.500087
vt 0.692248 0.527691
vt 0.673137 0.527691
vt 0.653906 0.500087
vt 0.673017 0.500087
vt 0.673017 0.527691
vt 0.653906 0.527691
vt 0.634675 0.500087
vt 0.653786 0.500087
vt 0.653786 0.527691
vt 0.634675 0.527691
vt 0.615445 0.500087
vt 0.634555 0.500087
vt 0.634555 0.527691
vt 0.615445 0.527691
vt 0.673137 0.472309
vt 0.692248 0.472309
vt 0.692248 0.499913
vt 0.673137 0.499913
vt 0.653906 0.472309
vt 0.673017 0.472309
vt 0.673017 0.499913
vt 0.653906 0.499913
vt 0.634675 0.472309
vt 0.653786 0.472309
vt 0.653786 0.499913
vt 0.634675 0.499913
vt 0.615445 0.472309
vt 0.634555 0.472309
vt 0.634555 0.499913
vt 0.615445 0.499913
vt 0.673137 0.444531
vt 0.692248 0.444531
vt 0.692248 0.472135
vt 0.673137 0.472135
vt 0.653906 0.444531
vt 0.673017 0.444531
vt 0.673017 0.472135
vt 0.653906 0.472135
vt 0.634675 0.444531
vt 0.653786 0.444531
vt 0.653786 0.472135
vt 0.634675 0.472135
vt 0.615445 0.444531
vt 0.634555 0.444531
vt 0.634555 0.472135
vt 0.615445 0.472135
vt 0.692248 0.500087
vt 0.692248 0.527691
vt 0.615445 0.472135
vt 0.615445 0.444531
vt 0.692248 0.472309
vt 0.692248 0.499913
vt 0.634555 0.444531
vt 0.615445 0.527691
vt 0.615445 0.500087
vt 0.673017 0.527691
vt 0.653906 0.527691
vt 0.692248 0.444531
vt 0.692248 0.472135
vt 0.653906 0.444531
vt 0.673017 0.444531
vt 0.634555 0.527691
vt 0.673137 0.444531
vt 0.653786 0.527691
vt 0.634675 0.527691
vt 0.615445 0.499913
vt 0.615445 0.472309
vt 0.673137 0.527691
vt 0.634675 0.444531
vt 0.653786 0.444531
vt 0.615445 0.527691
vt 0.615445 0.500087
vt 0.653906 0.444531
vt 0.673017 0.444531
vt 0.692248 0.500087
vt 0.692248 0.527691
vt 0.634675 0.444531
vt 0.653786 0.444531
vt 0.673137 0.527691
vt 0.615445 0.444531
vt 0.634555 0.444531
vt 0.692248 0.472309
vt 0.692248 0.499913
vt 0.692248 0.444531
vt 0.692248 0.472135
vt 0.673017 0.527691
vt 0.653906 0.527691
vt 0.634555 0.527691
vt 0.653786 0.527691
vt 0.634675 0.527691
vt 0.673137 0.444531
vt 0.615445 0.472135
vt 0.615445 0.499913
vt 0.615445 0.472309
vn 0.0000 0.0000 1.0000
vn 1.0000 0.0000 0.0000
vn -1.0000 0.0000 0.0000
vn 0.0000 -1.0000 0.0000
vn 0.0000 1.0000 0.0000
vn -0.0000 0.0000 -1.0000
usemtl sdddd
s off
f 5/1/1 7/2/1 3/3/1 1/4/1
f 6/5/1 5/6/1 1/7/1 2/8/1
f 12/9/1 6/10/1 2/11/1 9/12/1
f 8/13/1 12/14/1 9/15/1 4/16/1
f 11/17/1 10/18/1 7/19/1 5/20/1
f 17/21/1 11/22/1 5/23/1 6/24/1
f 18/25/1 17/26/1 6/27/1 12/28/1
f 13/29/1 18/30/1 12/31/1 8/32/1
f 15/33/1 14/34/1 10/35/1 11/36/1
f 19/37/1 15/38/1 11/39/1 17/40/1
f 16/41/1 19/42/1 17/43/1 18/44/1
f 20/45/1 16/46/1 18/47/1 13/48/1
f 3/3/2 7/2/2 25/49/2 23/50/2
f 20/45/3 13/48/3 29/51/3 34/52/3
f 7/19/2 10/18/2 28/53/2 25/54/2
f 16/46/4 20/45/4 34/52/4 32/55/4
f 8/13/3 4/16/3 24/56/3 26/57/3
f 2/8/5 1/7/5 21/58/5 22/59/5
f 10/35/2 14/34/2 30/60/2 28/61/2
f 15/38/4 19/37/4 33/62/4 31/63/4
f 4/16/5 9/15/5 27/64/5 24/56/5
f 14/34/4 15/33/4 31/65/4 30/60/4
f 9/12/5 2/11/5 22/66/5 27/67/5
f 13/29/3 8/32/3 26/68/3 29/69/3
f 1/4/5 3/3/5 23/50/5 21/70/5
f 19/42/4 16/41/4 32/71/4 33/72/4
f 26/57/6 24/56/6 38/73/6 40/74/6
f 31/63/6 33/62/6 47/75/6 45/76/6
f 23/50/6 25/49/6 39/77/6 37/78/6
f 33/72/6 32/71/6 46/79/6 47/80/6
f 21/70/6 23/50/6 37/78/6 35/81/6
f 32/55/6 34/52/6 48/82/6 46/83/6
f 25/54/6 28/53/6 42/84/6 39/85/6
f 28/61/6 30/60/6 44/86/6 42/87/6
f 22/59/6 21/58/6 35/88/6 36/89/6
f 24/56/6 27/64/6 41/90/6 38/73/6
f 27/67/6 22/66/6 36/91/6 41/92/6
f 30/60/6 31/65/6 45/93/6 44/86/6
f 34/52/6 29/51/6 43/94/6 48/82/6
f 29/69/6 26/68/6 40/95/6 43/96/6
