# Blender v2.82 (sub 7) OBJ File: 'MachineProp03.blend'
# www.blender.org
mtllib Props04.mtl
o Cube
v 0.500000 0.750000 1.000000
v 0.250000 0.750000 1.000000
v 0.750000 0.750000 1.000000
v 0.250000 0.750000 0.750000
v 0.000000 0.750000 1.000000
v -0.750000 0.750000 1.000000
v -1.000000 0.750000 1.000000
v -0.500000 0.750000 1.000000
v 0.500000 0.750000 0.500000
v -0.750000 0.750000 0.750000
v -1.250000 0.750000 1.000000
v -1.250000 0.750000 0.750000
v -1.250000 0.250000 0.499999
v -0.500000 0.750000 0.500000
v -1.000000 0.750000 0.500000
v -1.000000 0.500000 0.500000
v -0.500000 0.500000 0.500000
v -0.750000 0.750000 0.500000
v -1.250000 0.500000 0.500000
v 0.250000 0.750000 0.500000
v -1.000000 -0.500001 0.749997
v -0.750000 0.500000 0.500000
v -0.750000 0.250000 0.500000
v -1.250000 0.000000 0.500000
v -0.750000 0.000000 0.500000
v -0.500000 0.000000 0.500000
v -1.000000 0.000000 0.500000
v -1.000000 0.250000 0.500000
v -1.250000 -0.250000 0.500000
v -1.250000 -0.500000 0.500000
v -0.500000 -0.250000 0.500000
v -0.500000 0.250000 0.500000
v -0.250000 0.000000 0.500000
v -1.000000 -0.250000 0.500000
v 0.500000 0.750000 0.750000
v -1.000000 0.750000 0.750000
v 0.000000 0.750000 0.750000
v 0.750000 0.500000 0.500001
v 0.750000 0.750000 0.500000
v -1.000000 -0.500000 0.500000
v 0.250000 0.500000 0.500000
v -0.750000 -0.500000 0.500000
v -0.250000 0.500000 0.500000
v -0.500000 -0.500000 0.500000
v -0.250000 0.250000 0.500000
v 0.500000 0.500000 0.500000
v 0.000000 0.500000 0.500000
v 0.750000 0.250000 0.500000
v 0.000000 0.250000 0.500000
v -0.750000 -0.250000 0.500000
v 0.250000 0.000000 0.500000
v 0.000000 0.000000 0.500000
v 0.750000 0.000000 0.500000
v 0.500000 0.250000 0.500000
v 0.500000 -0.250000 0.500000
v -0.250000 -0.250000 0.500000
v -0.250000 -0.500000 0.500000
v 0.500000 0.000000 0.500000
v 0.750000 -0.250000 0.500000
v 0.250000 0.250000 0.500000
v 0.000000 -0.500000 0.500000
v 0.250000 -0.500000 0.500000
v 0.000000 -0.250000 0.500000
v 0.250000 -0.250000 0.500000
v 0.500000 -0.500000 0.500000
v 0.750000 -0.500000 0.500000
v -0.250000 0.750000 0.500000
v -0.500000 0.750000 0.750000
v 0.000000 0.750000 0.500000
v -0.250000 0.750000 0.750000
v -0.250000 0.750000 1.000000
v 0.750000 -0.249998 1.000004
v 0.750000 -0.499998 1.000005
v 0.750000 -0.499999 0.750005
v 0.750000 0.000001 0.750003
v 0.750000 0.250001 0.750002
v 0.750000 -0.500000 0.500005
v 0.750000 -0.250000 0.500004
v 0.750000 -0.249999 0.750004
v 0.750000 0.000002 1.000003
v 0.750000 0.500001 0.750001
v 0.750000 0.250002 1.000002
v 0.750000 0.500002 1.000001
v 0.750000 -0.000000 0.500003
v 0.750000 0.750002 1.000000
v 0.750000 0.750001 0.750000
v 0.750000 0.250000 0.500002
v -1.250000 0.750000 0.500001
v -1.250000 0.249999 0.749999
v -1.250000 -0.250000 0.499997
v -1.250000 0.749999 0.750001
v -0.250000 -0.500001 0.750000
v -1.250000 0.749998 1.000001
v -1.250000 -0.000001 0.749998
v -1.250000 0.499999 0.750000
v -1.250000 0.499998 1.000000
v -1.250000 0.000000 0.499998
v -1.250000 -0.500000 0.499996
v -1.250000 0.249998 0.999999
v -1.249999 -0.500001 0.499996
v -0.999999 -0.500001 0.499997
v -1.250000 -0.000002 0.999998
v -1.250000 -0.250001 0.749997
v -1.250000 -0.500002 0.999996
v -1.250000 -0.250002 0.999997
v -0.500000 -0.500001 0.749999
v -1.250000 -0.500001 0.749996
v -1.250001 -0.500001 0.999996
v -0.749999 -0.500001 0.499998
v -0.499999 -0.500001 0.499999
v -0.750000 -0.500001 0.749998
v -1.000001 -0.500001 0.999997
v 0.250000 -0.500001 0.750002
v 0.000000 -0.500001 0.750001
v -0.000001 -0.500004 0.999998
v -0.249999 -0.500001 0.500000
v 0.250001 -0.500001 0.500002
v -0.500001 -0.500001 0.999999
v 0.000001 -0.500001 0.500001
v 0.500000 -0.500001 0.750003
v -0.250001 -0.500001 1.000000
v 0.500001 -0.500001 0.500003
v -0.000001 -0.500001 1.000001
v 0.249999 -0.500001 1.000002
v 0.750001 -0.500001 0.500004
v 0.750000 -0.500001 0.750004
v 0.499999 -0.500001 1.000003
v 0.749999 -0.500001 1.000004
v -1.249996 0.750001 0.999998
v -1.249997 0.500001 0.999998
v -0.999997 0.500000 0.999998
v 0.750000 -0.250006 0.999998
v -0.999996 0.750000 0.999998
v -1.249998 0.250001 0.999998
v -1.250000 -0.249999 0.999998
v -1.249999 0.000001 0.999998
v -0.500000 -0.250002 0.999998
v -0.499998 0.249998 0.999998
v -0.999999 0.000000 0.999998
v -0.749997 0.499999 0.999998
v -0.999998 0.250000 0.999998
v -1.000000 -0.250000 0.999998
v -1.000001 -0.500000 0.999998
v -0.749999 -0.000001 0.999998
v -0.249998 0.249997 0.999998
v -0.750001 -0.500001 0.999998
v -0.750000 -0.250001 0.999998
v -0.500001 -0.500002 0.999998
v 0.250001 -0.000005 0.999998
v -0.250001 -0.500003 0.999998
v 0.249999 -0.500005 0.999998
v -0.250000 -0.250003 0.999998
v 0.000000 -0.250004 0.999998
v 0.250000 -0.250005 0.999998
v -0.249997 0.499997 0.999998
v 0.499999 -0.500005 0.999998
v 0.750002 0.249994 0.999998
v 0.500000 -0.250005 0.999998
v 0.000002 0.249996 0.999998
v -1.250001 -0.499999 0.999998
v 0.750001 -0.000006 0.999998
v 0.749999 -0.500006 0.999998
v 0.000003 0.499996 0.999998
v 0.000001 -0.000004 0.999998
v -0.499999 -0.000002 0.999998
v -0.249999 -0.000003 0.999998
v 0.500001 -0.000005 0.999998
v 0.000004 0.749996 0.999998
v -0.749998 0.249999 0.999998
v 0.250002 0.249995 0.999998
v 0.500003 0.499995 0.999998
v 0.500002 0.249995 0.999998
v 0.500004 0.749995 0.999998
v -0.499997 0.499998 0.999998
v 0.750003 0.499994 0.999998
v 0.750004 0.749994 0.999998
v -0.749996 0.749999 0.999998
v 0.250003 0.499995 0.999998
v 0.250004 0.749995 0.999998
v -0.499996 0.749998 0.999998
v -0.249996 0.749997 0.999998
vt 0.861154 0.860538
vt 0.874957 0.860538
vt 0.874957 0.883648
vt 0.861154 0.883648
vt 0.847266 0.860538
vt 0.861068 0.860538
vt 0.861068 0.883648
vt 0.847266 0.883648
vt 0.833377 0.860538
vt 0.847179 0.860538
vt 0.847179 0.883648
vt 0.833377 0.883648
vt 0.861154 0.837282
vt 0.874957 0.837282
vt 0.874957 0.860392
vt 0.861154 0.860392
vt 0.847266 0.837282
vt 0.861068 0.837282
vt 0.861068 0.860392
vt 0.847266 0.860392
vt 0.833377 0.837282
vt 0.847179 0.837282
vt 0.847179 0.860392
vt 0.833377 0.860392
vt 0.847179 0.860538
vt 0.833377 0.860538
vt 0.833377 0.883648
vt 0.847179 0.883648
vt 0.861068 0.860538
vt 0.847266 0.860538
vt 0.847266 0.883648
vt 0.861068 0.883648
vt 0.874957 0.860538
vt 0.861154 0.860538
vt 0.861154 0.883648
vt 0.874957 0.883648
vt 0.847179 0.837282
vt 0.833377 0.837282
vt 0.833377 0.860392
vt 0.847179 0.860392
vt 0.861068 0.837282
vt 0.847266 0.837282
vt 0.847266 0.860392
vt 0.861068 0.860392
vt 0.874957 0.837282
vt 0.861154 0.837282
vt 0.861154 0.860392
vt 0.874957 0.860392
vt 0.847179 0.814026
vt 0.833377 0.814026
vt 0.833377 0.837137
vt 0.847179 0.837137
vt 0.861068 0.814026
vt 0.847266 0.814026
vt 0.847266 0.837137
vt 0.861068 0.837137
vt 0.874957 0.814026
vt 0.861154 0.814026
vt 0.861154 0.837137
vt 0.874957 0.837137
vt 0.888846 0.814026
vt 0.888846 0.837137
vt 0.847179 0.790770
vt 0.833377 0.790770
vt 0.833377 0.813881
vt 0.847179 0.813881
vt 0.861068 0.790770
vt 0.847266 0.790770
vt 0.847266 0.813881
vt 0.861068 0.813881
vt 0.874957 0.790770
vt 0.861154 0.790770
vt 0.861154 0.813881
vt 0.874957 0.813881
vt 0.888846 0.790770
vt 0.888846 0.813881
vt 0.847179 0.767515
vt 0.833377 0.767515
vt 0.833377 0.790625
vt 0.847179 0.790625
vt 0.861068 0.767515
vt 0.847266 0.767515
vt 0.847266 0.790625
vt 0.861068 0.790625
vt 0.874957 0.767515
vt 0.861154 0.767515
vt 0.861154 0.790625
vt 0.874957 0.790625
vt 0.888846 0.767515
vt 0.888846 0.790625
vt 0.847179 0.744259
vt 0.833377 0.744259
vt 0.833377 0.767369
vt 0.847179 0.767369
vt 0.861068 0.744259
vt 0.847266 0.744259
vt 0.847266 0.767369
vt 0.861068 0.767369
vt 0.874957 0.744259
vt 0.861154 0.744259
vt 0.861154 0.767369
vt 0.874957 0.767369
vt 0.888846 0.744259
vt 0.888846 0.767369
vt 0.847179 0.721003
vt 0.833377 0.721003
vt 0.833377 0.744113
vt 0.847179 0.744113
vt 0.861068 0.721003
vt 0.847266 0.721003
vt 0.847266 0.744113
vt 0.861068 0.744113
vt 0.874957 0.721003
vt 0.861154 0.721003
vt 0.861154 0.744113
vt 0.874957 0.744113
vt 0.888846 0.721003
vt 0.888846 0.744113
vt 0.875043 0.814026
vt 0.875043 0.837137
vt 0.861154 0.814026
vt 0.861154 0.837137
vt 0.847266 0.814026
vt 0.861068 0.814026
vt 0.861068 0.837137
vt 0.847266 0.837137
vt 0.833377 0.814026
vt 0.847179 0.814026
vt 0.847179 0.837137
vt 0.833377 0.837137
vt 0.875043 0.790770
vt 0.875043 0.813881
vt 0.861154 0.790770
vt 0.861154 0.813881
vt 0.847266 0.790770
vt 0.861068 0.790770
vt 0.861068 0.813881
vt 0.847266 0.813881
vt 0.833377 0.790770
vt 0.847179 0.790770
vt 0.847179 0.813881
vt 0.833377 0.813881
vt 0.875043 0.767515
vt 0.875043 0.790625
vt 0.861154 0.767515
vt 0.861154 0.790625
vt 0.847266 0.767515
vt 0.861068 0.767515
vt 0.861068 0.790625
vt 0.847266 0.790625
vt 0.833377 0.767515
vt 0.847179 0.767515
vt 0.847179 0.790625
vt 0.833377 0.790625
vt 0.875043 0.744259
vt 0.875043 0.767369
vt 0.861154 0.744259
vt 0.861154 0.767369
vt 0.847266 0.744259
vt 0.861068 0.744259
vt 0.861068 0.767369
vt 0.847266 0.767369
vt 0.833377 0.744259
vt 0.847179 0.744259
vt 0.847179 0.767369
vt 0.833377 0.767369
vt 0.875043 0.721003
vt 0.875043 0.744113
vt 0.861154 0.721003
vt 0.861154 0.744113
vt 0.847266 0.721003
vt 0.861068 0.721003
vt 0.861068 0.744113
vt 0.847266 0.744113
vt 0.833377 0.721003
vt 0.847179 0.721003
vt 0.847179 0.744113
vt 0.833377 0.744113
vt 0.861154 0.837282
vt 0.861154 0.860392
vt 0.861154 0.860538
vt 0.861154 0.883648
vt 0.861154 0.837282
vt 0.874957 0.837282
vt 0.874957 0.860392
vt 0.861154 0.860392
vt 0.861154 0.860538
vt 0.874957 0.860538
vt 0.874957 0.883648
vt 0.861154 0.883648
vt 0.861154 0.837282
vt 0.874957 0.837282
vt 0.874957 0.860392
vt 0.861154 0.860392
vt 0.861154 0.860538
vt 0.874957 0.860538
vt 0.874957 0.883648
vt 0.861154 0.883648
vt 0.861154 0.837282
vt 0.874957 0.837282
vt 0.874957 0.860392
vt 0.861154 0.860392
vt 0.861154 0.860538
vt 0.874957 0.860538
vt 0.874957 0.883648
vt 0.861154 0.883648
vt 0.861154 0.837282
vt 0.874957 0.837282
vt 0.874957 0.860392
vt 0.861154 0.860392
vt 0.861154 0.860538
vt 0.874957 0.860538
vt 0.874957 0.883648
vt 0.861154 0.883648
vt 0.861154 0.837282
vt 0.874957 0.837282
vt 0.874957 0.860392
vt 0.861154 0.860392
vt 0.861154 0.860538
vt 0.874957 0.860538
vt 0.874957 0.883648
vt 0.861154 0.883648
vt 0.861154 0.837282
vt 0.874957 0.837282
vt 0.874957 0.860392
vt 0.861154 0.860392
vt 0.861154 0.860538
vt 0.874957 0.860538
vt 0.874957 0.883648
vt 0.861154 0.883648
vt 0.861154 0.837282
vt 0.874957 0.837282
vt 0.874957 0.860392
vt 0.861154 0.860392
vt 0.861154 0.860538
vt 0.874957 0.860538
vt 0.874957 0.883648
vt 0.861154 0.883648
vt 0.861154 0.837282
vt 0.874957 0.837282
vt 0.874957 0.860392
vt 0.861154 0.860392
vt 0.861154 0.860538
vt 0.874957 0.860538
vt 0.874957 0.883648
vt 0.861154 0.883648
vt 0.861154 0.837282
vt 0.874957 0.837282
vt 0.874957 0.860392
vt 0.861154 0.860392
vt 0.861154 0.860538
vt 0.874957 0.860538
vt 0.874957 0.883648
vt 0.861154 0.883648
vt 0.861154 0.837282
vt 0.874957 0.837282
vt 0.874957 0.860392
vt 0.861154 0.860392
vt 0.861154 0.860538
vt 0.874957 0.860538
vt 0.874957 0.883648
vt 0.861154 0.883648
vt 0.861154 0.837282
vt 0.874957 0.837282
vt 0.874957 0.860392
vt 0.861154 0.860392
vt 0.861154 0.860538
vt 0.874957 0.860538
vt 0.874957 0.883648
vt 0.861154 0.883648
vt 0.861154 0.837282
vt 0.874957 0.837282
vt 0.861154 0.860392
vt 0.861154 0.860538
vt 0.874957 0.883648
vt 0.861154 0.883648
vt 0.861154 0.837282
vt 0.874957 0.837282
vt 0.874957 0.860392
vt 0.861154 0.860392
vt 0.861154 0.860538
vt 0.874957 0.860538
vt 0.874957 0.883648
vt 0.861154 0.883648
vt 0.861154 0.837282
vt 0.874957 0.837282
vt 0.874957 0.860392
vt 0.861154 0.860392
vt 0.861154 0.860538
vt 0.874957 0.860538
vt 0.874957 0.883648
vt 0.861154 0.883648
vt 0.861154 0.837282
vt 0.874957 0.837282
vt 0.874957 0.860392
vt 0.861154 0.860392
vt 0.861154 0.860538
vt 0.874957 0.860538
vt 0.874957 0.883648
vt 0.861154 0.883648
vt 0.861154 0.837282
vt 0.874957 0.837282
vt 0.874957 0.860392
vt 0.861154 0.860392
vt 0.861154 0.860538
vt 0.874957 0.860538
vt 0.874957 0.883648
vt 0.861154 0.883648
vt 0.861154 0.837282
vt 0.874957 0.837282
vt 0.874957 0.860392
vt 0.861154 0.860392
vt 0.861154 0.860538
vt 0.874957 0.860538
vt 0.874957 0.883648
vt 0.861154 0.883648
vt 0.861154 0.837282
vt 0.874957 0.837282
vt 0.874957 0.860392
vt 0.861154 0.860392
vt 0.861154 0.860538
vt 0.874957 0.860538
vt 0.874957 0.883648
vt 0.861154 0.883648
vt 0.861154 0.837282
vt 0.874957 0.837282
vt 0.874957 0.860392
vt 0.861154 0.860392
vt 0.861154 0.860538
vt 0.874957 0.860538
vt 0.874957 0.883648
vt 0.861154 0.883648
vt 0.166710 0.814026
vt 0.180512 0.814026
vt 0.180512 0.837137
vt 0.166710 0.837137
vt 0.166710 0.814026
vt 0.180512 0.814026
vt 0.180512 0.837137
vt 0.166710 0.837137
vt 0.166710 0.837282
vt 0.180512 0.837282
vt 0.180512 0.860392
vt 0.166710 0.860392
vt 0.166710 0.837282
vt 0.180512 0.837282
vt 0.180512 0.860392
vt 0.166710 0.860392
vt 0.180599 0.814026
vt 0.194401 0.814026
vt 0.194401 0.837137
vt 0.180599 0.837137
vt 0.166710 0.814026
vt 0.180512 0.814026
vt 0.180512 0.837137
vt 0.166710 0.837137
vt 0.180599 0.837282
vt 0.194401 0.837282
vt 0.194401 0.860392
vt 0.180599 0.860392
vt 0.166710 0.837282
vt 0.180512 0.837282
vt 0.180512 0.860392
vt 0.166710 0.860392
vt 0.180599 0.837282
vt 0.194401 0.837282
vt 0.194401 0.860392
vt 0.180599 0.860392
vt 0.166710 0.837282
vt 0.180512 0.837282
vt 0.180512 0.860392
vt 0.166710 0.860392
vt 0.180599 0.837282
vt 0.194401 0.837282
vt 0.194401 0.860392
vt 0.180599 0.860392
vt 0.166710 0.814026
vt 0.180512 0.814026
vt 0.180512 0.837137
vt 0.166710 0.837137
vt 0.180599 0.814026
vt 0.194401 0.814026
vt 0.194401 0.837137
vt 0.180599 0.837137
vt 0.166710 0.837282
vt 0.180512 0.837282
vt 0.180512 0.860392
vt 0.166710 0.860392
vt 0.180599 0.837282
vt 0.194401 0.837282
vt 0.194401 0.860392
vt 0.180599 0.860392
vt 0.166710 0.814026
vt 0.180512 0.814026
vt 0.180512 0.837137
vt 0.166710 0.837137
vt 0.180599 0.814026
vt 0.194401 0.814026
vt 0.194401 0.837137
vt 0.180599 0.837137
vt 0.166710 0.814026
vt 0.180512 0.814026
vt 0.180512 0.837137
vt 0.166710 0.837137
vt 0.180599 0.814026
vt 0.194401 0.814026
vt 0.194401 0.837137
vt 0.180599 0.837137
vt 0.166710 0.837282
vt 0.180512 0.837282
vt 0.180512 0.860392
vt 0.166710 0.860392
vt 0.180599 0.837282
vt 0.194401 0.837282
vt 0.194401 0.860392
vt 0.180599 0.860392
vt 0.180599 0.814026
vt 0.194401 0.814026
vt 0.194401 0.837137
vt 0.180599 0.837137
vt 0.180599 0.814026
vt 0.194401 0.814026
vt 0.194401 0.837137
vt 0.180599 0.837137
vt 0.180599 0.837282
vt 0.194401 0.837282
vt 0.194401 0.860392
vt 0.180599 0.860392
vt 0.180599 0.837282
vt 0.194401 0.837282
vt 0.194401 0.860392
vt 0.180599 0.860392
vt 0.180599 0.814026
vt 0.194401 0.814026
vt 0.194401 0.837137
vt 0.180599 0.837137
vt 0.180599 0.814026
vt 0.194401 0.814026
vt 0.194401 0.837137
vt 0.180599 0.837137
vt 0.180599 0.837282
vt 0.194401 0.837282
vt 0.194401 0.860392
vt 0.180599 0.860392
vt 0.180599 0.837282
vt 0.194401 0.837282
vt 0.194401 0.860392
vt 0.180599 0.860392
vt 0.166710 0.814026
vt 0.180512 0.814026
vt 0.180512 0.837137
vt 0.166710 0.837137
vt 0.166710 0.837282
vt 0.180512 0.837282
vt 0.180512 0.860392
vt 0.166710 0.860392
vt 0.166710 0.814026
vt 0.180512 0.814026
vt 0.180512 0.837137
vt 0.166710 0.837137
vt 0.166710 0.837282
vt 0.180512 0.837282
vt 0.180512 0.860392
vt 0.166710 0.860392
vt 0.166710 0.814026
vt 0.180512 0.814026
vt 0.180512 0.837137
vt 0.166710 0.837137
vt 0.166710 0.814026
vt 0.180512 0.814026
vt 0.180512 0.837137
vt 0.166710 0.837137
vt 0.166710 0.837282
vt 0.180512 0.837282
vt 0.180512 0.860392
vt 0.166710 0.860392
vt 0.166710 0.837282
vt 0.180512 0.837282
vt 0.180512 0.860392
vt 0.166710 0.860392
vt 0.180599 0.814026
vt 0.194401 0.814026
vt 0.194401 0.837137
vt 0.180599 0.837137
vt 0.180599 0.837282
vt 0.194401 0.837282
vt 0.194401 0.860392
vt 0.180599 0.860392
vt 0.180599 0.814026
vt 0.194401 0.814026
vt 0.194401 0.837137
vt 0.180599 0.837137
vn 0.0000 1.0000 0.0000
vn -0.0000 0.0000 -1.0000
vn 1.0000 0.0000 0.0000
vn -1.0000 -0.0000 0.0000
vn 0.0000 0.0000 1.0000
usemtl sdddd
s off
f 4/1/1 37/2/1 5/3/1 2/4/1
f 35/5/1 4/6/1 2/7/1 1/8/1
f 86/9/1 35/10/1 1/11/1 3/12/1
f 20/13/1 69/14/1 37/15/1 4/16/1
f 9/17/1 20/18/1 4/19/1 35/20/1
f 39/21/1 9/22/1 35/23/1 86/24/1
f 36/25/1 12/26/1 11/27/1 7/28/1
f 10/29/1 36/30/1 7/31/1 6/32/1
f 68/33/1 10/34/1 6/35/1 8/36/1
f 15/37/1 88/38/1 12/39/1 36/40/1
f 18/41/1 15/42/1 36/43/1 10/44/1
f 14/45/1 18/46/1 10/47/1 68/48/1
f 16/49/2 19/50/2 88/51/2 15/52/2
f 22/53/2 16/54/2 15/55/2 18/56/2
f 17/57/2 22/58/2 18/59/2 14/60/2
f 43/61/2 17/57/2 14/60/2 67/62/2
f 28/63/2 13/64/2 19/65/2 16/66/2
f 23/67/2 28/68/2 16/69/2 22/70/2
f 32/71/2 23/72/2 22/73/2 17/74/2
f 45/75/2 32/71/2 17/74/2 43/76/2
f 27/77/2 24/78/2 13/79/2 28/80/2
f 25/81/2 27/82/2 28/83/2 23/84/2
f 26/85/2 25/86/2 23/87/2 32/88/2
f 33/89/2 26/85/2 32/88/2 45/90/2
f 34/91/2 29/92/2 24/93/2 27/94/2
f 50/95/2 34/96/2 27/97/2 25/98/2
f 31/99/2 50/100/2 25/101/2 26/102/2
f 56/103/2 31/99/2 26/102/2 33/104/2
f 40/105/2 30/106/2 29/107/2 34/108/2
f 42/109/2 40/110/2 34/111/2 50/112/2
f 44/113/2 42/114/2 50/115/2 31/116/2
f 57/117/2 44/113/2 31/116/2 56/118/2
f 47/119/2 43/61/2 67/62/2 69/120/2
f 41/121/2 47/119/2 69/120/2 20/122/2
f 46/123/2 41/124/2 20/125/2 9/126/2
f 38/127/2 46/128/2 9/129/2 39/130/2
f 49/131/2 45/75/2 43/76/2 47/132/2
f 60/133/2 49/131/2 47/132/2 41/134/2
f 54/135/2 60/136/2 41/137/2 46/138/2
f 48/139/2 54/140/2 46/141/2 38/142/2
f 52/143/2 33/89/2 45/90/2 49/144/2
f 51/145/2 52/143/2 49/144/2 60/146/2
f 58/147/2 51/148/2 60/149/2 54/150/2
f 53/151/2 58/152/2 54/153/2 48/154/2
f 63/155/2 56/103/2 33/104/2 52/156/2
f 64/157/2 63/155/2 52/156/2 51/158/2
f 55/159/2 64/160/2 51/161/2 58/162/2
f 59/163/2 55/164/2 58/165/2 53/166/2
f 61/167/2 57/117/2 56/118/2 63/168/2
f 62/169/2 61/167/2 63/168/2 64/170/2
f 65/171/2 62/172/2 64/173/2 55/174/2
f 66/175/2 65/176/2 55/177/2 59/178/2
f 67/179/1 14/45/1 68/48/1 70/180/1
f 70/181/1 68/33/1 8/36/1 71/182/1
f 69/183/1 67/184/1 70/185/1 37/186/1
f 37/187/1 70/188/1 71/189/1 5/190/1
f 72/191/3 73/192/3 74/193/3 79/194/3
f 79/195/3 74/196/3 77/197/3 78/198/3
f 80/199/3 72/200/3 79/201/3 75/202/3
f 75/203/3 79/204/3 78/205/3 84/206/3
f 82/207/3 80/208/3 75/209/3 76/210/3
f 76/211/3 75/212/3 84/213/3 87/214/3
f 83/215/3 82/216/3 76/217/3 81/218/3
f 81/219/3 76/220/3 87/221/3 38/222/3
f 85/223/3 83/224/3 81/225/3 86/226/3
f 86/227/3 81/228/3 38/229/3 39/230/3
f 88/231/4 19/232/4 95/233/4 91/234/4
f 91/235/4 95/236/4 96/237/4 93/238/4
f 19/239/4 13/240/4 89/241/4 95/242/4
f 95/243/4 89/244/4 99/245/4 96/246/4
f 13/247/4 97/248/4 94/249/4 89/250/4
f 89/251/4 94/252/4 102/253/4 99/254/4
f 97/255/4 90/256/4 103/257/4 94/258/4
f 94/259/4 103/260/4 105/261/4 102/262/4
f 90/263/4 98/264/4 107/265/4 103/266/4
f 103/267/4 107/268/4 104/269/4 105/270/4
f 101/271/1 100/272/1 107/265/1 21/273/1
f 21/274/1 107/268/1 108/275/1 112/276/1
f 109/277/1 101/278/1 21/279/1 111/280/1
f 111/281/1 21/282/1 112/283/1 146/284/1
f 110/285/1 109/286/1 111/287/1 106/288/1
f 106/289/1 111/290/1 146/291/1 118/292/1
f 116/293/1 110/294/1 106/295/1 92/296/1
f 92/297/1 106/298/1 118/299/1 121/300/1
f 119/301/1 116/302/1 92/303/1 114/304/1
f 114/305/1 92/306/1 121/307/1 123/308/1
f 117/309/1 119/310/1 114/311/1 113/312/1
f 113/313/1 114/314/1 123/315/1 124/316/1
f 122/317/1 117/318/1 113/319/1 120/320/1
f 120/321/1 113/322/1 124/323/1 127/324/1
f 125/325/1 122/326/1 120/327/1 126/328/1
f 126/329/1 120/330/1 127/331/1 128/332/1
f 129/333/5 130/334/5 131/335/5 133/336/5
f 130/337/5 134/338/5 141/339/5 131/340/5
f 133/341/5 131/342/5 140/343/5 177/344/5
f 131/345/5 141/346/5 169/347/5 140/348/5
f 134/349/5 136/350/5 139/351/5 141/352/5
f 136/353/5 135/354/5 142/355/5 139/356/5
f 141/357/5 139/358/5 144/359/5 169/360/5
f 139/361/5 142/362/5 147/363/5 144/364/5
f 142/365/5 143/366/5 146/367/5 147/368/5
f 144/369/5 147/370/5 137/371/5 165/372/5
f 147/373/5 146/374/5 148/375/5 137/376/5
f 165/377/5 137/378/5 152/379/5 166/380/5
f 137/381/5 148/382/5 150/383/5 152/384/5
f 166/385/5 152/386/5 153/387/5 164/388/5
f 152/389/5 150/390/5 115/391/5 153/392/5
f 164/393/5 153/394/5 154/395/5 149/396/5
f 153/397/5 115/398/5 151/399/5 154/400/5
f 149/401/5 154/402/5 158/403/5 167/404/5
f 154/405/5 151/406/5 156/407/5 158/408/5
f 167/409/5 158/410/5 132/411/5 161/412/5
f 158/413/5 156/414/5 162/415/5 132/416/5
f 155/417/5 145/418/5 159/419/5 163/420/5
f 145/421/5 166/422/5 164/423/5 159/424/5
f 163/425/5 159/426/5 170/427/5 178/428/5
f 159/429/5 164/430/5 149/431/5 170/432/5
f 178/433/5 170/434/5 172/435/5 171/436/5
f 170/437/5 149/438/5 167/439/5 172/440/5
f 171/441/5 172/442/5 157/443/5 175/444/5
f 172/445/5 167/446/5 161/447/5 157/448/5
f 179/449/5 178/450/5 171/451/5 173/452/5
f 173/453/5 171/454/5 175/455/5 176/456/5
f 181/457/5 155/458/5 163/459/5 168/460/5
f 168/461/5 163/462/5 178/463/5 179/464/5
f 177/465/5 140/466/5 174/467/5 180/468/5
f 140/469/5 169/470/5 138/471/5 174/472/5
f 180/473/5 174/474/5 155/475/5 181/476/5
f 174/477/5 138/478/5 145/479/5 155/480/5
f 169/481/5 144/482/5 165/483/5 138/484/5
f 138/485/5 165/486/5 166/487/5 145/488/5
f 135/489/5 160/490/5 143/491/5 142/492/5
