# Blender v2.82 (sub 7) OBJ File: 'MachineProp03.blend'
# www.blender.org
mtllib Props05.mtl
o Cube
v 0.000000 -0.000000 0.000000
v 0.250000 0.000001 0.000000
v 0.249993 1.000002 0.223518
v -0.000004 0.500000 0.000000
v 0.249999 0.750003 0.249996
v 0.249998 0.500001 0.000000
v -0.000002 0.500000 0.000000
v -0.000001 0.250000 0.000000
v -0.250001 0.249999 0.000000
v -0.250002 0.499999 0.000000
v -0.250000 -0.000001 0.000000
v -0.250009 1.249998 0.491996
v -0.250007 0.999998 0.223518
v -0.000009 1.250000 0.491996
v 0.249991 1.250002 0.491996
v 0.249999 0.500003 0.249998
v -0.000007 1.000000 0.223518
v -0.250005 0.749998 0.000000
v 0.249995 0.750002 0.000000
v 0.249999 1.000004 0.499995
v -0.000005 0.750000 0.000000
v -0.250004 0.499998 0.000000
v 0.249996 0.500002 0.000000
v 0.249999 0.750001 -0.000004
v 0.249999 0.500001 -0.000002
v 0.249999 0.000003 0.250002
v 0.249999 1.000003 0.249995
v 0.249999 0.500004 0.499998
v 0.249999 0.250001 0.000000
v 0.249999 0.250004 0.500000
v 0.249999 0.250003 0.250000
v 0.249999 0.000001 0.000002
v 0.249999 0.000004 0.500002
v 0.249999 0.762940 -0.000005
v 0.249999 1.250004 0.499993
v 0.249999 0.750004 0.499996
v 0.249999 1.019942 0.249993
v -0.000004 0.249994 0.500005
v -0.250000 0.749997 0.250005
v -0.250000 0.499997 0.250004
v -0.250000 0.499999 0.000004
v -0.250000 -0.000003 0.250000
v 0.249998 0.499992 0.500005
v -0.250000 0.749999 0.000005
v -0.250000 0.499996 0.500004
v -0.250000 0.762938 0.000007
v -0.250000 0.249997 0.250002
v -0.250000 0.249999 0.000002
v -0.250000 0.249996 0.500002
v -0.250000 -0.000004 0.500000
v -0.000005 -0.000006 0.500005
v -0.250000 1.249996 0.500009
v -0.250000 1.019936 0.250009
v 0.000000 0.749994 0.500005
v -0.250000 0.999996 0.500007
v 0.250000 0.749992 0.500005
v -0.250000 0.999997 0.250007
v -0.250000 0.749996 0.500005
v -0.250002 0.499996 0.500005
v -0.000002 0.499994 0.500005
v 0.249996 0.249992 0.500005
v -0.250004 0.249995 0.500005
v 0.000004 1.249994 0.500005
v 0.249995 -0.000008 0.500005
v -0.250005 -0.000004 0.500005
v 0.250004 1.249992 0.500005
v -0.249998 0.999996 0.500005
v -0.249996 1.249996 0.500005
v 0.250002 0.999992 0.500005
v 0.000002 0.999994 0.500005
v -0.000004 0.701628 -0.263147
v -0.250004 0.701628 -0.263149
v -0.250005 0.768546 -0.022271
v 0.249995 0.768547 -0.022268
v 0.249996 0.701629 -0.263145
v -0.000005 0.768546 -0.022270
vt 0.291710 0.465189
vt 0.305512 0.465189
vt 0.305512 0.488299
vt 0.291710 0.488299
vt 0.277821 0.465189
vt 0.291623 0.465189
vt 0.291623 0.488299
vt 0.277821 0.488299
vt 0.291623 0.465189
vt 0.277821 0.465189
vt 0.305512 0.465189
vt 0.291710 0.465189
vt 0.305599 0.534811
vt 0.319401 0.534811
vt 0.319401 0.511701
vt 0.305599 0.511701
vt 0.319488 0.534811
vt 0.333290 0.534811
vt 0.333290 0.511701
vt 0.319488 0.511701
vt 0.305599 0.511555
vt 0.319401 0.511555
vt 0.319401 0.488445
vt 0.305599 0.488445
vt 0.319488 0.511555
vt 0.333290 0.511555
vt 0.333290 0.488445
vt 0.319488 0.488445
vt 0.000000 0.000000
vt 0.000000 0.000000
vt 0.000000 0.000000
vt 0.000000 0.000000
vt 0.000000 0.000000
vt 0.000000 0.000000
vt 0.055599 0.278997
vt 0.069401 0.278997
vt 0.069401 0.255887
vt 0.055599 0.255887
vt 0.069488 0.278997
vt 0.083290 0.278997
vt 0.083290 0.255887
vt 0.069488 0.255887
vt 0.055599 0.278997
vt 0.069401 0.278997
vt 0.069401 0.255887
vt 0.055599 0.255887
vt 0.069488 0.278997
vt 0.083290 0.278997
vt 0.083290 0.255887
vt 0.069488 0.255887
vt 0.055599 0.278997
vt 0.069401 0.278997
vt 0.069401 0.255887
vt 0.055599 0.255887
vt 0.069488 0.278997
vt 0.083290 0.278997
vt 0.083290 0.255887
vt 0.069488 0.255887
vt 0.055599 0.302253
vt 0.069401 0.302253
vt 0.069401 0.279142
vt 0.055599 0.279142
vt 0.069488 0.302253
vt 0.083290 0.302253
vt 0.083290 0.279142
vt 0.069488 0.279142
vt 0.069488 0.325509
vt 0.083290 0.325509
vt 0.083290 0.302398
vt 0.069488 0.302398
vt 0.055599 0.278997
vt 0.069401 0.278997
vt 0.069401 0.255887
vt 0.055599 0.255887
vt 0.069488 0.278997
vt 0.083290 0.278997
vt 0.083290 0.255887
vt 0.069488 0.255887
vt 0.055599 0.302253
vt 0.069401 0.302253
vt 0.069401 0.279142
vt 0.055599 0.279142
vt 0.069488 0.302253
vt 0.083290 0.302253
vt 0.083290 0.279142
vt 0.069488 0.279142
vt 0.055599 0.278997
vt 0.069401 0.278997
vt 0.069401 0.255887
vt 0.055599 0.255887
vt 0.069488 0.278997
vt 0.083290 0.278997
vt 0.083290 0.255887
vt 0.069488 0.255887
vt 0.055599 0.325509
vt 0.069401 0.325509
vt 0.069401 0.302398
vt 0.055599 0.302398
vt 0.055599 0.302253
vt 0.069401 0.302253
vt 0.069401 0.279142
vt 0.055599 0.279142
vt 0.069488 0.302253
vt 0.083290 0.302253
vt 0.083290 0.279142
vt 0.069488 0.279142
vt 0.055599 0.278997
vt 0.069401 0.278997
vt 0.069401 0.255887
vt 0.055599 0.255887
vt 0.069488 0.278997
vt 0.083290 0.278997
vt 0.083290 0.255887
vt 0.069488 0.255887
vt 0.055599 0.302253
vt 0.069401 0.302253
vt 0.069401 0.279142
vt 0.055599 0.279142
vt 0.069488 0.302253
vt 0.083290 0.302253
vt 0.083290 0.279142
vt 0.069488 0.279142
vt 0.055599 0.278997
vt 0.069401 0.278997
vt 0.069401 0.255887
vt 0.055599 0.255887
vt 0.069488 0.278997
vt 0.083290 0.278997
vt 0.083290 0.255887
vt 0.069488 0.255887
vt 0.055599 0.325509
vt 0.069401 0.325509
vt 0.069401 0.302398
vt 0.055599 0.302398
vt 0.069488 0.325509
vt 0.083290 0.325509
vt 0.083290 0.302398
vt 0.069488 0.302398
vt 0.055599 0.302253
vt 0.069401 0.302253
vt 0.069401 0.279142
vt 0.055599 0.279142
vt 0.069488 0.302253
vt 0.083290 0.302253
vt 0.083290 0.279142
vt 0.069488 0.279142
vt 0.305599 0.488299
vt 0.319401 0.488299
vt 0.319401 0.465189
vt 0.305599 0.465189
vt 0.319488 0.488299
vt 0.333290 0.488299
vt 0.333290 0.465189
vt 0.319488 0.465189
vt 0.000000 0.000000
vt 0.000000 0.000000
vt 0.000000 0.000000
vt 0.000000 0.000000
vt 0.333290 0.488445
vt 0.319488 0.488445
vt 0.319401 0.488445
vt 0.305599 0.488445
vn 0.0000 0.0000 -1.0000
vn -0.0000 0.7318 -0.6815
vn -0.0000 0.6665 -0.7455
vn 0.0000 -0.7938 -0.6082
vn 1.0000 0.0000 0.0000
vn -1.0000 0.0000 0.0000
vn 0.0000 0.0000 1.0000
vn -0.0000 0.9635 -0.2677
vn -0.0000 0.7684 0.6399
usemtl sdddd
s off
f 29/1/1 2/2/1 1/3/1 8/4/1
f 6/5/1 29/6/1 8/7/1 7/8/1
f 7/8/1 8/7/1 9/9/1 10/10/1
f 8/4/1 1/3/1 11/11/1 9/12/1
f 12/13/2 14/14/2 17/15/2 13/16/2
f 14/17/2 15/18/2 3/19/2 17/20/2
f 13/21/3 17/22/3 21/23/3 18/24/3
f 17/25/3 3/26/3 19/27/3 21/28/3
f 23/29/4 4/30/4 71/31/4 75/32/4
f 19/33/5 23/29/5 75/32/5 74/34/5
f 24/35/5 5/36/5 16/37/5 25/38/5
f 5/39/5 36/40/5 28/41/5 16/42/5
f 25/43/5 16/44/5 31/45/5 29/46/5
f 16/47/5 28/48/5 30/49/5 31/50/5
f 29/51/5 31/52/5 26/53/5 32/54/5
f 31/55/5 30/56/5 33/57/5 26/58/5
f 34/59/5 27/60/5 5/61/5 24/62/5
f 27/63/5 20/64/5 36/65/5 5/66/5
f 37/67/5 35/68/5 20/69/5 27/70/5
f 58/71/6 39/72/6 40/73/6 45/74/6
f 39/75/6 44/76/6 41/77/6 40/78/6
f 45/79/6 40/80/6 47/81/6 49/82/6
f 40/83/6 41/84/6 48/85/6 47/86/6
f 49/87/6 47/88/6 42/89/6 50/90/6
f 47/91/6 48/92/6 11/93/6 42/94/6
f 52/95/6 53/96/6 57/97/6 55/98/6
f 55/99/6 57/100/6 39/101/6 58/102/6
f 57/103/6 46/104/6 44/105/6 39/106/6
f 56/107/7 54/108/7 60/109/7 43/110/7
f 54/111/7 58/112/7 59/113/7 60/114/7
f 43/115/7 60/116/7 38/117/7 61/118/7
f 60/119/7 59/120/7 62/121/7 38/122/7
f 61/123/7 38/124/7 51/125/7 64/126/7
f 38/127/7 62/128/7 65/129/7 51/130/7
f 66/131/7 63/132/7 70/133/7 69/134/7
f 63/135/7 68/136/7 67/137/7 70/138/7
f 69/139/7 70/140/7 54/141/7 56/142/7
f 70/143/7 67/144/7 58/145/7 54/146/7
f 73/147/8 76/148/8 71/149/8 72/150/8
f 76/151/8 74/152/8 75/153/8 71/154/8
f 22/155/6 18/156/6 73/157/6 72/158/6
f 21/28/9 19/27/9 74/159/9 76/160/9
f 18/24/9 21/23/9 76/161/9 73/162/9
f 4/30/4 22/155/4 72/158/4 71/31/4
