# Blender v2.82 (sub 7) OBJ File: 'ChairMetal.blend'
# www.blender.org
mtllib ChairMetal.mtl
o Cube
v -0.500000 0.250000 0.250000
v -0.500000 0.250000 0.000000
v -0.250000 0.250000 0.000000
v 0.000000 0.250000 -0.250000
v -0.500000 0.000000 -0.250000
v 0.000000 0.000000 0.000000
v -0.250000 0.000000 -0.250000
v -0.500000 0.750000 0.250000
v 0.000000 0.000000 -0.250000
v -0.500000 0.250000 -0.250000
v -0.250000 0.250000 -0.250000
v 0.000000 0.250000 0.250000
v 0.000000 0.250000 0.000000
v -0.250000 0.000000 0.000000
v -0.250000 0.500000 0.250000
v -0.500000 0.500000 0.250000
v -0.250000 0.250000 0.250000
v 0.000000 0.500000 0.250000
v -0.250000 0.750000 0.250000
v 0.000000 0.750000 0.250000
v -0.500000 0.000000 0.000000
v -0.500000 0.000000 0.250000
v -0.250000 0.000000 0.250000
v 0.000000 0.000000 0.250000
v -0.500000 0.750000 0.302082
v -0.500000 0.250000 0.302082
v 0.000000 0.500000 0.302082
v -0.250000 0.250000 0.302082
v 0.000000 0.250000 0.302082
v -0.250000 0.750000 0.302082
v -0.250000 0.500000 0.302082
v -0.500000 0.000000 0.302082
v 0.000000 0.000000 0.302082
v -0.500000 0.500000 0.302082
v 0.000000 0.750000 0.302082
v -0.250000 0.000000 0.302082
vt 0.263932 0.363707
vt 0.277734 0.363707
vt 0.277734 0.386293
vt 0.263932 0.386293
vt 0.263932 0.363707
vt 0.277734 0.363707
vt 0.277734 0.386293
vt 0.263932 0.386293
vt 0.263932 0.363707
vt 0.277734 0.363707
vt 0.277734 0.386293
vt 0.263932 0.386293
vt 0.263932 0.363707
vt 0.277734 0.363707
vt 0.277734 0.386293
vt 0.263932 0.386293
vt 0.263932 0.363707
vt 0.277734 0.363707
vt 0.277734 0.386293
vt 0.263932 0.386293
vt 0.263932 0.363707
vt 0.277734 0.363707
vt 0.277734 0.386293
vt 0.263932 0.386293
vt 0.055599 0.659020
vt 0.055599 0.636435
vt 0.069401 0.636435
vt 0.069401 0.659020
vt 0.055599 0.659020
vt 0.055599 0.636435
vt 0.069401 0.636435
vt 0.138845 0.704616
vt 0.138845 0.727202
vt 0.125043 0.727202
vt 0.125043 0.704616
vt 0.125043 0.636435
vt 0.138845 0.636435
vt 0.138845 0.659020
vt 0.125043 0.659020
vt 0.263932 0.363707
vt 0.277734 0.363707
vt 0.277734 0.386293
vt 0.263932 0.386293
vt 0.263932 0.363707
vt 0.277734 0.363707
vt 0.277734 0.386293
vt 0.263932 0.386293
vt 0.861154 0.318253
vt 0.874957 0.318253
vt 0.874957 0.340838
vt 0.861154 0.340838
vt 0.861154 0.340980
vt 0.874957 0.340980
vt 0.874957 0.363565
vt 0.861154 0.363565
vt 0.861154 0.318253
vt 0.861154 0.340838
vt 0.861154 0.340980
vt 0.861154 0.363565
vt 0.874957 0.318253
vt 0.861154 0.318253
vt 0.861154 0.340838
vt 0.874957 0.340838
vt 0.874957 0.340980
vt 0.861154 0.340980
vt 0.861154 0.363565
vt 0.874957 0.363565
vt 0.874957 0.318253
vt 0.861154 0.318253
vt 0.861154 0.340838
vt 0.874957 0.340838
vt 0.874957 0.340980
vt 0.861154 0.340980
vt 0.861154 0.363565
vt 0.874957 0.363565
vt 0.861154 0.318253
vt 0.861154 0.340838
vt 0.277734 0.386293
vt 0.277734 0.363707
vt 0.861154 0.340980
vt 0.861154 0.363565
vt 0.861154 0.363565
vt 0.861154 0.340980
vt 0.861154 0.340838
vt 0.861154 0.318253
vt 0.263932 0.363707
vt 0.263932 0.386293
vt 0.874957 0.363565
vt 0.263932 0.363707
vt 0.277734 0.363707
vt 0.874957 0.318253
vt 0.874957 0.340838
vt 0.874957 0.340980
vt 0.305599 0.818253
vt 0.319401 0.818253
vt 0.319401 0.840838
vt 0.305599 0.840838
vt 0.319488 0.818253
vt 0.333290 0.818253
vt 0.333290 0.840838
vt 0.319488 0.840838
vn 0.0000 0.0000 1.0000
vn -1.0000 0.0000 0.0000
vn 0.0000 0.0000 -1.0000
vn 0.0000 1.0000 0.0000
vn 1.0000 0.0000 0.0000
vn 0.0000 -1.0000 0.0000
usemtl eMiscStuff
s off
f 23/1/1 24/2/1 12/3/1 17/4/1
f 22/5/1 23/6/1 17/7/1 1/8/1
f 21/9/2 22/10/2 1/11/2 2/12/2
f 5/13/2 21/14/2 2/15/2 10/16/2
f 7/17/3 5/18/3 10/19/3 11/20/3
f 9/21/3 7/22/3 11/23/3 4/24/3
f 17/25/4 12/26/4 13/27/4 3/28/4
f 2/29/4 1/30/4 17/31/4 3/28/4
f 11/32/4 10/33/4 2/34/4 3/35/4
f 13/36/4 4/37/4 11/38/4 3/39/4
f 6/40/5 9/41/5 4/42/5 13/43/5
f 24/44/5 6/45/5 13/46/5 12/47/5
f 12/48/3 17/49/3 15/50/3 18/51/3
f 18/52/3 15/53/3 19/54/3 20/55/3
f 17/49/3 1/56/3 16/57/3 15/50/3
f 15/53/3 16/58/3 8/59/3 19/54/3
f 22/60/6 21/61/6 14/62/6 23/63/6
f 23/64/6 14/65/6 6/66/6 24/67/6
f 21/68/6 5/69/6 7/70/6 14/71/6
f 14/72/6 7/73/6 9/74/6 6/75/6
f 16/57/2 1/56/2 26/76/2 34/77/2
f 24/2/5 12/3/5 29/78/5 33/79/5
f 8/59/2 16/58/2 34/80/2 25/81/2
f 18/52/5 20/55/5 35/82/5 27/83/5
f 12/48/5 18/51/5 27/84/5 29/85/5
f 1/8/2 22/5/2 32/86/2 26/87/2
f 19/54/4 8/59/4 25/81/4 30/88/4
f 23/1/6 24/2/6 33/79/6 36/89/6
f 20/55/4 19/54/4 30/88/4 35/82/4
f 22/5/6 23/6/6 36/90/6 32/86/6
f 28/91/1 29/85/1 27/84/1 31/92/1
f 31/93/1 27/83/1 35/82/1 30/88/1
f 26/76/1 28/91/1 31/92/1 34/77/1
f 34/80/1 31/93/1 30/88/1 25/81/1
f 32/94/1 36/95/1 28/96/1 26/97/1
f 36/98/1 33/99/1 29/100/1 28/101/1
