# Blender v2.82 (sub 7) OBJ File: 'ComputerNodisplay.blend'
# www.blender.org
mtllib ComputerNodisplay.mtl
o Cube
v 0.216176 0.540932 0.059825
v -0.216176 0.970426 0.165054
v -0.250000 0.250000 0.500000
v -0.250000 0.500000 0.500000
v 0.000000 0.500000 0.500000
v 0.000000 0.000000 0.250000
v 0.250000 0.000000 0.250000
v 0.250000 0.000000 0.000000
v 0.250000 0.500000 0.080464
v 0.000000 0.750000 0.500000
v -0.250000 1.000000 0.500000
v 0.250000 0.250000 0.000000
v 0.250000 0.750000 0.250000
v 0.250000 0.250000 0.250000
v -0.250000 0.753306 0.145039
v 0.250000 0.250000 0.500000
v 0.250000 0.500000 0.250000
v 0.000000 1.000000 0.500000
v 0.250000 0.996694 0.202157
v 0.250000 0.000000 0.500000
v -0.250000 1.000000 0.250000
v -0.250000 0.750000 0.250000
v 0.250000 1.000000 0.500000
v -0.216176 0.759967 0.115663
v 0.250000 0.500000 0.500000
v 0.000000 1.000000 0.250000
v 0.250000 1.000000 0.250000
v -0.250000 0.000000 0.500000
v 0.000000 0.540932 0.059825
v 0.000000 0.250000 0.500000
v 0.250000 0.750000 0.500000
v 0.000000 0.000000 0.000000
v -0.250000 0.000000 0.000000
v -0.250000 0.500000 0.080464
v -0.250000 0.996694 0.202157
v -0.250000 0.500000 0.250000
v -0.216176 0.540932 0.059825
v 0.250000 0.753306 0.145039
v 0.000000 0.996694 0.202157
v 0.000000 0.000000 0.500000
v -0.250000 0.250000 0.250000
v -0.250000 0.250000 0.000000
v -0.216176 0.743625 0.182427
v -0.250000 0.000000 0.250000
v 0.000000 0.500000 0.080464
v 0.000000 0.250000 0.000000
v -0.250000 0.750000 0.500000
v 0.216176 0.759967 0.115663
v 0.000000 0.970426 0.165054
v 0.216176 0.970426 0.165054
v -0.216176 0.524589 0.126589
v 0.216176 0.743625 0.182427
v 0.000000 0.954083 0.231818
v -0.216176 0.954083 0.231818
v 0.216176 0.954083 0.231818
v 0.216176 0.524589 0.126589
v 0.000000 0.524589 0.126589
vt 0.277821 0.465189
vt 0.291623 0.465189
vt 0.291623 0.488299
vt 0.277821 0.488299
vt 0.125043 0.860538
vt 0.138845 0.860538
vt 0.138845 0.883648
vt 0.125043 0.883648
vt 0.125043 0.860538
vt 0.138845 0.860538
vt 0.138845 0.883648
vt 0.125043 0.883648
vt 0.125043 0.860538
vt 0.138845 0.860538
vt 0.138845 0.883648
vt 0.125043 0.883648
vt 0.291710 0.465189
vt 0.305512 0.465189
vt 0.305512 0.488299
vt 0.291710 0.488299
vt 0.125043 0.860538
vt 0.125043 0.883648
vt 0.125043 0.883648
vt 0.125043 0.860538
vt 0.125043 0.860538
vt 0.138845 0.860538
vt 0.138845 0.883648
vt 0.125043 0.883648
vt 0.125043 0.860538
vt 0.138845 0.860538
vt 0.138845 0.883648
vt 0.125043 0.883648
vt 0.319488 0.488299
vt 0.333290 0.488299
vt 0.333290 0.488299
vt 0.319488 0.488299
vt 0.305599 0.488299
vt 0.319401 0.488299
vt 0.319401 0.488299
vt 0.305599 0.488299
vt 0.125043 0.860538
vt 0.138845 0.860538
vt 0.138845 0.883648
vt 0.125043 0.883648
vt 0.138845 0.860538
vt 0.138845 0.883648
vt 0.138845 0.883648
vt 0.138845 0.860538
vt 0.138845 0.860538
vt 0.138845 0.883648
vt 0.125043 0.860538
vt 0.138845 0.860538
vt 0.138845 0.883648
vt 0.125043 0.883648
vt 0.138845 0.860538
vt 0.125043 0.860538
vt 0.125043 0.860538
vt 0.138845 0.860538
vt 0.138845 0.883648
vt 0.138845 0.860538
vt 0.138845 0.860538
vt 0.138845 0.883648
vt 0.125043 0.860538
vt 0.138845 0.860538
vt 0.138845 0.883648
vt 0.125043 0.883648
vt 0.125043 0.860538
vt 0.138845 0.860538
vt 0.138845 0.883648
vt 0.125043 0.883648
vt 0.138845 0.860538
vt 0.138845 0.883648
vt 0.125043 0.883648
vt 0.125043 0.860538
vt 0.138845 0.860538
vt 0.138845 0.883648
vt 0.125043 0.883648
vt 0.125043 0.860538
vt 0.138845 0.860538
vt 0.138845 0.883648
vt 0.125043 0.883648
vt 0.125043 0.860538
vt 0.138845 0.860538
vt 0.138845 0.883648
vt 0.125043 0.883648
vt 0.125043 0.860538
vt 0.138845 0.860538
vt 0.138845 0.883648
vt 0.125043 0.883648
vt 0.138845 0.860538
vt 0.138845 0.883648
vt 0.125043 0.883648
vt 0.125043 0.860538
vt 0.138845 0.883648
vt 0.125043 0.883648
vt 0.138845 0.860538
vt 0.138845 0.883648
vt 0.125043 0.860538
vt 0.138845 0.883648
vt 0.125043 0.883648
vt 0.125043 0.860538
vt 0.138845 0.860538
vt 0.138845 0.883648
vt 0.125043 0.883648
vt 0.125043 0.860538
vt 0.138845 0.860538
vt 0.138845 0.883648
vt 0.125043 0.883648
vt 0.125043 0.860538
vt 0.138845 0.860538
vt 0.138845 0.883648
vt 0.125043 0.883648
vt 0.138845 0.860538
vt 0.138845 0.883648
vt 0.125043 0.883648
vt 0.125043 0.860538
vt 0.138845 0.860538
vt 0.138845 0.883648
vt 0.125043 0.883648
vt 0.125043 0.860538
vt 0.125043 0.883648
vt 0.125043 0.883648
vt 0.125043 0.860538
vt 0.125043 0.860538
vt 0.138845 0.883648
vt 0.125043 0.883648
vt 0.138845 0.883648
vt 0.125043 0.883648
vt 0.138845 0.860538
vt 0.125043 0.860538
vt 0.138845 0.860538
vt 0.138845 0.883648
vt 0.125043 0.883648
vt 0.305599 0.465189
vt 0.319401 0.465189
vt 0.319401 0.488299
vt 0.305599 0.488299
vt 0.125043 0.860538
vt 0.125043 0.883648
vt 0.125043 0.860538
vt 0.138845 0.860538
vt 0.138845 0.883648
vt 0.125043 0.860538
vt 0.138845 0.860538
vt 0.125043 0.860538
vt 0.138845 0.860538
vt 0.138845 0.883648
vt 0.125043 0.883648
vt 0.125043 0.860538
vt 0.138845 0.860538
vt 0.319488 0.465189
vt 0.333290 0.465189
vt 0.333290 0.488299
vt 0.319488 0.488299
vt 0.125043 0.860538
vt 0.138845 0.860538
vt 0.125043 0.883648
vt 0.125043 0.860538
vt 0.125043 0.860538
vt 0.138845 0.860538
vt 0.125043 0.883648
vt 0.125043 0.860538
vt 0.125043 0.860538
vt 0.138845 0.860538
vn 0.0000 0.0000 -1.0000
vn 0.0000 0.0000 1.0000
vn 0.0000 -1.0000 0.0000
vn 1.0000 0.0000 0.0000
vn -0.6649 0.1845 -0.7238
vn 0.0000 0.9713 0.2378
vn -1.0000 0.0000 0.0000
vn 0.0000 0.8162 -0.5778
vn 0.6649 0.1845 -0.7238
vn -0.6650 0.1706 -0.7271
vn 0.0000 0.9976 -0.0689
vn 0.6650 0.1706 -0.7271
vn 0.0000 0.3064 -0.9519
vn 0.0000 1.0000 0.0000
vn 0.0000 -0.4502 -0.8929
vn 0.0000 -0.9713 -0.2378
usemtl sdddd
s off
f 8/1/1 32/2/1 46/3/1 12/4/1
f 5/5/2 25/6/2 31/7/2 10/8/2
f 6/9/3 44/10/3 33/11/3 32/12/3
f 7/13/4 8/14/4 12/15/4 14/16/4
f 32/17/1 33/18/1 42/19/1 46/20/1
f 34/21/5 15/22/5 24/23/5 37/24/5
f 10/25/2 31/26/2 23/27/2 18/28/2
f 30/29/2 16/30/2 25/31/2 5/32/2
f 29/33/6 37/34/6 51/35/6 57/36/6
f 1/37/6 29/38/6 57/39/6 56/40/6
f 3/41/2 30/42/2 5/43/2 4/44/2
f 34/21/7 36/45/7 22/46/7 15/22/7
f 50/47/7 48/48/7 52/49/7 55/50/7
f 4/51/2 5/52/2 10/53/2 47/54/2
f 35/55/8 39/56/8 49/57/8 2/58/8
f 38/59/9 9/60/9 1/61/9 48/62/9
f 20/63/3 40/64/3 6/65/3 7/66/3
f 40/67/3 28/68/3 44/69/3 6/70/3
f 20/63/4 7/71/4 14/72/4 16/73/4
f 25/74/4 17/75/4 13/76/4 31/77/4
f 22/78/7 47/79/7 11/80/7 21/81/7
f 36/82/7 4/83/7 47/84/7 22/85/7
f 13/86/4 38/87/4 19/88/4 27/89/4
f 40/67/2 20/90/2 16/91/2 30/92/2
f 33/93/7 44/10/7 41/94/7 42/95/7
f 48/62/7 1/61/7 56/96/7 52/97/7
f 44/98/7 28/68/7 3/99/7 41/100/7
f 42/101/7 41/102/7 36/103/7 34/104/7
f 41/105/7 3/106/7 4/107/7 36/108/7
f 14/109/4 12/110/4 9/111/4 17/112/4
f 7/13/3 6/113/3 32/114/3 8/115/3
f 47/116/2 10/117/2 18/118/2 11/119/2
f 15/120/10 35/121/10 2/122/10 24/123/10
f 28/124/2 40/64/2 30/125/2 3/126/2
f 39/56/11 35/55/11 21/127/11 26/128/11
f 15/120/7 22/129/7 21/127/7 35/121/7
f 19/88/12 38/87/12 48/48/12 50/47/12
f 16/130/4 14/131/4 17/132/4 25/133/4
f 12/134/13 46/135/13 45/136/13 9/137/13
f 17/138/4 9/60/4 38/59/4 13/139/4
f 19/140/11 39/141/11 26/142/11 27/89/11
f 26/143/14 21/144/14 11/80/14 18/28/14
f 31/145/4 13/146/4 27/147/4 23/148/4
f 27/149/14 26/150/14 18/118/14 23/148/14
f 46/151/13 42/152/13 34/153/13 45/154/13
f 9/137/15 45/136/15 29/38/15 1/37/15
f 39/141/8 19/140/8 50/155/8 49/156/8
f 45/154/15 34/153/15 37/34/15 29/33/15
f 37/24/4 24/23/4 43/157/4 51/158/4
f 2/58/16 49/57/16 53/159/16 54/160/16
f 24/123/4 2/122/4 54/161/4 43/162/4
f 49/156/16 50/155/16 55/163/16 53/164/16
