# Blender v2.82 (sub 7) OBJ File: 'Container001.blend'
# www.blender.org
mtllib Container001.mtl
o Cube
v -1.000000 1.000000 -1.000000
v 0.000000 2.000000 1.000000
v 0.000000 2.000000 0.000000
v -2.000000 2.000000 -1.000000
v 0.000000 1.000000 -1.000000
v -2.000000 0.000000 -1.000000
v 0.000000 1.000000 0.000000
v 0.000000 0.000000 1.000000
v 0.000000 0.000000 0.000000
v 0.000000 2.000000 -1.000000
v -2.000000 0.000000 1.000000
v -1.000000 2.000000 0.000000
v 0.000000 0.000000 -1.000000
v -1.000000 2.000000 1.000000
v -1.000000 2.000000 -1.000000
v -2.000000 1.000000 -1.000000
v -2.000000 1.000000 1.000000
v -1.000000 0.000000 1.000000
v -2.000000 1.000000 0.000000
v -2.000000 2.000000 0.000000
v 0.000000 1.000000 1.000000
v -2.000000 2.000000 1.000000
v -1.000000 1.000000 1.000000
v -1.000000 0.000000 -1.000000
v -2.000000 0.000000 0.000000
v -1.000000 0.000000 0.000000
vt 0.222266 0.700078
vt 0.277734 0.700078
vt 0.277734 0.799922
vt 0.222266 0.799922
vt 0.277821 0.600078
vt 0.333290 0.600078
vt 0.333290 0.699922
vt 0.277821 0.699922
vt 0.222266 0.600078
vt 0.277734 0.600078
vt 0.277734 0.699922
vt 0.222266 0.699922
vt 0.166710 0.900078
vt 0.222179 0.900078
vt 0.222179 0.999922
vt 0.166710 0.999922
vt 0.111155 0.900078
vt 0.166623 0.900078
vt 0.166623 0.999922
vt 0.111155 0.999922
vt 0.166710 0.800078
vt 0.222179 0.800078
vt 0.222179 0.899922
vt 0.166710 0.899922
vt 0.111155 0.800078
vt 0.166623 0.800078
vt 0.166623 0.899922
vt 0.111155 0.899922
vt 0.277821 0.700078
vt 0.333290 0.700078
vt 0.333290 0.799922
vt 0.277821 0.799922
vt 0.111155 0.800078
vt 0.166623 0.800078
vt 0.166623 0.899922
vt 0.111155 0.899922
vt 0.166710 0.800078
vt 0.222179 0.800078
vt 0.222179 0.899922
vt 0.166710 0.899922
vt 0.111155 0.900078
vt 0.166623 0.900078
vt 0.166623 0.999922
vt 0.111155 0.999922
vt 0.166710 0.900078
vt 0.222179 0.900078
vt 0.222179 0.999922
vt 0.166710 0.999922
vt 0.333377 0.600078
vt 0.388846 0.600078
vt 0.388846 0.699922
vt 0.333377 0.699922
vt 0.388932 0.600078
vt 0.444401 0.600078
vt 0.444401 0.699922
vt 0.388932 0.699922
vt 0.333377 0.700078
vt 0.388846 0.700078
vt 0.388846 0.799922
vt 0.333377 0.799922
vt 0.388932 0.700078
vt 0.444401 0.700078
vt 0.444401 0.799922
vt 0.388932 0.799922
vt 0.222266 0.800078
vt 0.277734 0.800078
vt 0.277734 0.899922
vt 0.222266 0.899922
vt 0.277821 0.800078
vt 0.333290 0.800078
vt 0.333290 0.899922
vt 0.277821 0.899922
vt 0.222266 0.900078
vt 0.277734 0.900078
vt 0.277734 0.999922
vt 0.222266 0.999922
vt 0.277821 0.900078
vt 0.333290 0.900078
vt 0.333290 0.999922
vt 0.277821 0.999922
vt 0.222266 0.800078
vt 0.277734 0.800078
vt 0.277734 0.899922
vt 0.222266 0.899922
vt 0.277821 0.800078
vt 0.333290 0.800078
vt 0.333290 0.899922
vt 0.277821 0.899922
vt 0.222266 0.900078
vt 0.277734 0.900078
vt 0.277734 0.999922
vt 0.222266 0.999922
vt 0.277821 0.900078
vt 0.333290 0.900078
vt 0.333290 0.999922
vt 0.277821 0.999922
vn 0.0000 0.0000 -1.0000
vn 1.0000 0.0000 0.0000
vn -1.0000 0.0000 0.0000
vn 0.0000 0.0000 1.0000
vn 0.0000 1.0000 0.0000
vn 0.0000 -1.0000 0.0000
usemtl CratesAndContainaers
s off
f 5/1/1 1/2/1 15/3/1 10/4/1
f 24/5/1 6/6/1 16/7/1 1/8/1
f 13/9/1 24/10/1 1/11/1 5/12/1
f 7/13/2 5/14/2 10/15/2 3/16/2
f 21/17/2 7/18/2 3/19/2 2/20/2
f 9/21/2 13/22/2 5/23/2 7/24/2
f 8/25/2 9/26/2 7/27/2 21/28/2
f 1/29/1 16/30/1 4/31/1 15/32/1
f 6/33/3 25/34/3 19/35/3 16/36/3
f 25/37/3 11/38/3 17/39/3 19/40/3
f 16/41/3 19/42/3 20/43/3 4/44/3
f 19/45/3 17/46/3 22/47/3 20/48/3
f 11/49/4 18/50/4 23/51/4 17/52/4
f 18/53/4 8/54/4 21/55/4 23/56/4
f 17/57/4 23/58/4 14/59/4 22/60/4
f 23/61/4 21/62/4 2/63/4 14/64/4
f 22/65/5 14/66/5 12/67/5 20/68/5
f 14/69/5 2/70/5 3/71/5 12/72/5
f 20/73/5 12/74/5 15/75/5 4/76/5
f 12/77/5 3/78/5 10/79/5 15/80/5
f 6/81/6 24/82/6 26/83/6 25/84/6
f 24/85/6 13/86/6 9/87/6 26/88/6
f 25/89/6 26/90/6 18/91/6 11/92/6
f 26/93/6 9/94/6 8/95/6 18/96/6
