# Blender v2.82 (sub 7) OBJ File: 'Drawersinoy.blend'
# www.blender.org
mtllib Drawersinoy.mtl
o Cube
v 0.250000 1.000000 -0.250000
v 0.250000 0.750000 -0.250000
v 0.250000 0.250000 -0.250000
v 0.250000 0.500000 -0.250000
v 0.500000 0.250000 -0.250000
v 0.500000 1.000000 -0.250000
v 0.500000 1.000000 0.000000
v 0.000000 0.000000 -0.250000
v 0.500000 0.500000 -0.250000
v 0.250000 1.000000 0.000000
v 0.500000 0.250000 0.000000
v 0.500000 0.750000 -0.250000
v 0.000000 0.000000 0.000000
v 0.000000 1.000000 0.250000
v 0.000000 0.750000 0.000000
v 0.500000 1.000000 0.250000
v 0.000000 1.000000 0.000000
v 0.500000 0.500000 0.250000
v 0.000000 1.000000 -0.250000
v 0.000000 0.750000 -0.250000
v 0.000000 0.500000 0.000000
v 0.000000 0.000000 0.250000
v 0.000000 0.250000 -0.250000
v 0.000000 0.250000 0.000000
v 0.000000 0.500000 -0.250000
v 0.500000 0.000000 0.000000
v 0.500000 0.000000 0.250000
v 0.500000 0.000000 -0.250000
v 0.000000 0.500000 0.250000
v 0.250000 1.000000 0.250000
v 0.500000 0.500000 0.000000
v 0.500000 0.750000 0.000000
v 0.500000 0.250000 0.250000
v 0.250000 0.750000 0.250000
v 0.250000 0.000000 0.250000
v 0.500000 0.750000 0.250000
v 0.000000 0.750000 0.250000
v 0.250000 0.250000 0.250000
v 0.250000 0.000000 0.000000
v 0.000000 0.250000 0.250000
v 0.250000 0.500000 0.250000
v 0.250000 0.000000 -0.250000
vt 0.208377 0.590980
vt 0.222179 0.590980
vt 0.222179 0.613565
vt 0.208377 0.613565
vt 0.208377 0.590980
vt 0.222179 0.590980
vt 0.222179 0.613565
vt 0.208377 0.613565
vt 0.208377 0.590980
vt 0.222179 0.590980
vt 0.222179 0.613565
vt 0.208377 0.613565
vt 0.208377 0.590980
vt 0.222179 0.590980
vt 0.222179 0.613565
vt 0.208377 0.613565
vt 0.208377 0.590980
vt 0.222179 0.590980
vt 0.222179 0.613565
vt 0.208377 0.613565
vt 0.208377 0.590980
vt 0.222179 0.590980
vt 0.222179 0.613565
vt 0.208377 0.613565
vt 0.208377 0.590980
vt 0.222179 0.590980
vt 0.222179 0.613565
vt 0.208377 0.613565
vt 0.208377 0.590980
vt 0.222179 0.590980
vt 0.222179 0.613565
vt 0.208377 0.613565
vt 0.208377 0.590980
vt 0.222179 0.590980
vt 0.222179 0.613565
vt 0.208377 0.613565
vt 0.208377 0.590980
vt 0.222179 0.590980
vt 0.222179 0.613565
vt 0.208377 0.613565
vt 0.208377 0.590980
vt 0.222179 0.590980
vt 0.222179 0.613565
vt 0.208377 0.613565
vt 0.208377 0.590980
vt 0.222179 0.590980
vt 0.222179 0.613565
vt 0.208377 0.613565
vt 0.208377 0.590980
vt 0.222179 0.590980
vt 0.222179 0.613565
vt 0.208377 0.613565
vt 0.208377 0.590980
vt 0.222179 0.590980
vt 0.222179 0.613565
vt 0.208377 0.613565
vt 0.208377 0.590980
vt 0.222179 0.590980
vt 0.222179 0.613565
vt 0.208377 0.613565
vt 0.194488 0.568253
vt 0.208290 0.568253
vt 0.208290 0.590838
vt 0.194488 0.590838
vt 0.263932 0.409020
vt 0.277734 0.409020
vt 0.277734 0.386435
vt 0.263932 0.386435
vt 0.277734 0.409020
vt 0.277734 0.386435
vt 0.263932 0.386435
vt 0.277734 0.386435
vt 0.277734 0.386435
vt 0.180599 0.522798
vt 0.194401 0.522798
vt 0.194401 0.545384
vt 0.180599 0.545384
vt 0.166710 0.522798
vt 0.180512 0.522798
vt 0.180512 0.545384
vt 0.166710 0.545384
vt 0.180599 0.500071
vt 0.194401 0.500071
vt 0.194401 0.522656
vt 0.180599 0.522656
vt 0.166710 0.500071
vt 0.180512 0.500071
vt 0.180512 0.522656
vt 0.166710 0.522656
vt 0.180599 0.477344
vt 0.194401 0.477344
vt 0.194401 0.499929
vt 0.180599 0.499929
vt 0.166710 0.477344
vt 0.180512 0.477344
vt 0.180512 0.499929
vt 0.166710 0.499929
vt 0.180599 0.454616
vt 0.194401 0.454616
vt 0.194401 0.477202
vt 0.180599 0.477202
vt 0.166710 0.454616
vt 0.180512 0.454616
vt 0.180512 0.477202
vt 0.166710 0.477202
vt 0.208377 0.590980
vt 0.222179 0.590980
vt 0.222179 0.613565
vt 0.208377 0.613565
vt 0.208377 0.590980
vt 0.222179 0.590980
vt 0.222179 0.613565
vt 0.208377 0.613565
vt 0.208377 0.590980
vt 0.222179 0.590980
vt 0.222179 0.613565
vt 0.208377 0.613565
vt 0.208377 0.590980
vt 0.222179 0.590980
vt 0.222179 0.613565
vt 0.208377 0.613565
vt 0.208377 0.590980
vt 0.222179 0.590980
vt 0.222179 0.613565
vt 0.208377 0.613565
vt 0.208377 0.590980
vt 0.222179 0.590980
vt 0.222179 0.613565
vt 0.208377 0.613565
vt 0.208377 0.590980
vt 0.222179 0.590980
vt 0.222179 0.613565
vt 0.208377 0.613565
vt 0.208377 0.590980
vt 0.222179 0.590980
vt 0.222179 0.613565
vt 0.208377 0.613565
vt 0.222179 0.590980
vt 0.222179 0.613565
vt 0.208377 0.613565
vt 0.222179 0.613565
vt 0.208377 0.613565
vt 0.222179 0.613565
vt 0.208377 0.613565
vt 0.208377 0.590980
vt 0.222179 0.613565
vt 0.208377 0.613565
vn 1.0000 0.0000 0.0000
vn 0.0000 0.0000 -1.0000
vn 0.0000 1.0000 0.0000
vn -1.0000 0.0000 0.0000
vn 0.0000 0.0000 1.0000
vn 0.0000 -1.0000 0.0000
usemtl eMiscStuff
s off
f 36/1/1 32/2/1 7/3/1 16/4/1
f 18/5/1 31/6/1 32/7/1 36/8/1
f 33/9/1 11/10/1 31/11/1 18/12/1
f 27/13/1 26/14/1 11/15/1 33/16/1
f 26/17/1 28/18/1 5/19/1 11/20/1
f 11/21/1 5/22/1 9/23/1 31/24/1
f 31/25/1 9/26/1 12/27/1 32/28/1
f 32/29/1 12/30/1 6/31/1 7/32/1
f 28/33/2 42/34/2 3/35/2 5/36/2
f 12/37/2 2/38/2 1/39/2 6/40/2
f 9/41/2 4/42/2 2/43/2 12/44/2
f 5/45/2 3/46/2 4/47/2 9/48/2
f 42/49/2 8/50/2 23/51/2 3/52/2
f 3/53/2 23/54/2 25/55/2 4/56/2
f 4/57/2 25/58/2 20/59/2 2/60/2
f 2/61/2 20/62/2 19/63/2 1/64/2
f 10/65/3 30/66/3 16/67/3 7/68/3
f 1/69/3 10/65/3 7/68/3 6/70/3
f 17/71/3 14/72/3 30/66/3 10/65/3
f 19/73/3 17/71/3 10/65/3 1/69/3
f 15/74/4 37/75/4 14/76/4 17/77/4
f 20/78/4 15/79/4 17/80/4 19/81/4
f 21/82/4 29/83/4 37/84/4 15/85/4
f 25/86/4 21/87/4 15/88/4 20/89/4
f 24/90/4 40/91/4 29/92/4 21/93/4
f 23/94/4 24/95/4 21/96/4 25/97/4
f 13/98/4 22/99/4 40/100/4 24/101/4
f 8/102/4 13/103/4 24/104/4 23/105/4
f 37/106/5 34/107/5 30/108/5 14/109/5
f 29/110/5 41/111/5 34/112/5 37/113/5
f 40/114/5 38/115/5 41/116/5 29/117/5
f 22/118/5 35/119/5 38/120/5 40/121/5
f 35/122/5 27/123/5 33/124/5 38/125/5
f 38/126/5 33/127/5 18/128/5 41/129/5
f 41/130/5 18/131/5 36/132/5 34/133/5
f 34/134/5 36/135/5 16/136/5 30/137/5
f 42/49/6 39/138/6 13/139/6 8/140/6
f 28/33/6 26/14/6 39/141/6 42/142/6
f 26/17/6 27/123/6 35/143/6 39/144/6
f 39/145/6 35/119/6 22/146/6 13/147/6
